<svg data-name="レイヤー 2" xmlns="http://www.w3.org/2000/svg" viewBox="0 0 1457.08 135.96"><path d="M3.27 129.6c24.92 2.22 24.75 5.99 49.77 5.99s25.02-6 50.04-6 25.02 6 50.04 6 25.02-6 50.03-6 25.02 6 50.03 6 25.02-6 50.04-6 25.02 6 50.04 6 25.02-6 50.04-6 25.02 6 50.04 6 25.02-6 50.04-6 25.02 6 50.04 6 25.02-6 50.03-6 25.02 6 50.03 6 25.02-6 50.04-6 25.02 6 50.03 6 25.02-6 50.04-6 25.02 6 50.03 6 25.02-6 50.04-6 25.02 6 50.04 6 25.02-6 50.04-6 25.02 6 50.04 6 25.02-6 50.04-6 25.02 6 50.04 6 25.02-6 50.04-6 25.02 6 50.04 6 25.02-6 50.04-6 25.02 6 50.04 6 25.02-6 50.05-6 25.39 8.21 50.31 5.99c2.22-.2-3.27-5.21-3.27-7.44s6-2.23 6-4.45-6-2.23-6-4.45 6-2.23 6-4.45-6-2.23-6-4.45 6-2.23 6-4.45-6-2.23-6-4.46 6-2.23 6-4.45-6-2.23-6-4.46 6-2.23 6-4.45-6-2.23-6-4.46 6-2.23 6-4.45-6-2.23-6-4.46 6-2.23 6-4.46-6-2.23-6-4.46 6-2.23 6-4.46-6-2.23-6-4.45 6-2.23 6-4.45-6-2.23-6-4.46 6-2.23 6-4.45-6-2.23-6-4.46 6-2.23 6-4.46-6-2.23-6-4.46 6-2.23 6-4.46-6-2.23-6-4.46 6-2.23 6-4.46-6-2.23-6-4.46 6-2.23 6-4.46-1.04-1.28-3.27-1.48c-24.92-2.22-24.75-5.99-49.77-5.99s-25.02 6-50.04 6-25.02-6-50.04-6-25.02 6-50.03 6-25.02-6-50.03-6c-25.02 0-25.02 6-50.04 6s-25.02-6-50.04-6-25.02 6-50.04 6-25.02-6-50.04-6-25.02 6-50.04 6-25.02-6-50.04-6-25.02 6-50.03 6c-25.02 0-25.02-6-50.03-6s-25.02 6-50.04 6-25.02-6-50.03-6c-25.02 0-25.02 6-50.04 6s-25.02-6-50.03-6c-25.02 0-25.02 6-50.04 6s-25.02-6-50.04-6-25.02 6-50.04 6-25.02-6-50.04-6-25.02 6-50.04 6S328.27.37 303.25.37s-25.02 6-50.04 6-25.02-6-50.04-6-25.02 6-50.04 6-25.02-6-50.04-6-25.02 6-50.05 6S27.66-1.84 2.73.38C.51.58 6 5.59 6 7.82s-6 2.23-6 4.45 6 2.23 6 4.45-6 2.23-6 4.46 6 2.23 6 4.45-6 2.23-6 4.46 6 2.23 6 4.46S0 36.77 0 39s6 2.23 6 4.46-6 2.22-6 4.45 6 2.23 6 4.46-6 2.22-6 4.45 6 2.23 6 4.46-6 2.22-6 4.45 6 2.23 6 4.46-6 2.22-6 4.45 6 2.23 6 4.45-6 2.23-6 4.46 6 2.23 6 4.46-6 2.22-6 4.45 6 2.23 6 4.46-6 2.22-6 4.45 6 2.23 6 4.46-6 2.23-6 4.46 6 2.23 6 4.46-6 2.22-6 4.45 6 2.23 6 4.46-5.12 1.38-5.84 3.5c-.41 1.21.88 2.25 3.11 2.44z" fill="#eceded" data-name="テキスト"/></svg>