<svg data-name="レイヤー 2" xmlns="http://www.w3.org/2000/svg" viewBox="0 0 121.34 24.29"><g data-name="テキスト"><path d="M12.29 9.56c0 2.46-2.19 3.86-4.52 3.86-1.02 0-2.11-.2-3.06-.66-.42-.2-.41-.22-.42-.53-.03-.46-.2-2.04-.2-2.26v-.02c0-.19.17-.25.32-.25.14 0 .25.05.27.12.56 2.65 1.95 3.01 3.19 3.01 1.1 0 2.17-.48 2.17-2.17 0-1.54-.76-2.22-2.02-3.06l-.61-.41c-1.31-.87-2.7-1.82-2.7-3.7C4.72 1.12 7.04.14 9.01.14c1.09 0 2.02.2 2.29.2.32 0 .25 0 .36.34.17.53.41 1.9.41 2.29 0 .08-.22.19-.39.19-.08 0-.17-.03-.19-.12C10.98 1.41 10 .73 8.81.73c-.66 0-1.99.24-1.99 1.95 0 1.32 1.07 1.77 1.82 2.26.32.2.63.37.88.53 1.29.78 2.77 2.07 2.77 4.06v.03zM28.51.34c.51 0 .61 0 .63.41.02.48.39 2.4.39 3.04 0 .2-.2.36-.39.36-.12 0-.24-.07-.29-.24C28.1 1.6 26 .68 24.15.68c-2.29 0-4.64 1.8-4.64 5.96s2.39 6.18 5.18 6.18c2.55 0 3.97-2.14 4.45-3.36.03-.1.15-.15.27-.15.19 0 .41.12.41.27 0 .03-.02.05-.02.07-.14.39-.36 1.38-.51 2.11-.07.29-.17.51-.61.76-.98.59-2.77 1-4.18 1-4.02 0-7.78-2.26-7.78-6.88 0-3.62 3.23-6.64 7.49-6.64 1.65 0 2.62.34 4.18.34h.12zm5.4 12.86c-.12 0-.17-.07-.17-.17 0-.12.07-.27.17-.34 1.36-.15 1.31-.32 1.34-2.5.02-.66.02-2.6.02-4.33 0-1.26 0-2.39-.02-2.82-.05-1.85-.08-1.85-1.41-2.11-.1-.07-.14-.15-.14-.24 0-.15.1-.27.15-.27.56.03 1.09.05 1.58.05 1 0 1.9-.05 2.97-.1.19 0 .37-.02.56-.02 2.31 0 4.7.63 4.7 3.19 0 1.94-1.55 2.41-2.89 2.84-.03.02-.05.02-.05.05 0 0 0 .02.02.03.9.88 1.83 3.24 2.92 4.43.73.82 1.29 1.63 2.65 1.85.17.03.25.14.25.24 0 .14 0 .34-1.6.34-1.39 0-2.7-.39-3.67-1.6-1.1-1.38-2.17-4.16-2.9-4.77-.12-.1-.27-.1-.41-.1-.05 0-.17.02-.24.02-.07.02-.1.02-.1.14 0 .76.02 2.51.03 3.14.07 2.12.07 2.39 1.61 2.53.1.1.15.2.15.29 0 .14-.1.24-.17.24-.02 0-1.56-.12-3.18-.12-.75 0-1.53.02-2.16.1h-.05zm3.75-7.17q0 .34.08.34c1.68-.07 3.36-.58 3.36-2.48 0-1.41-.8-2.99-2.65-2.99-.44 0-.76.1-.78.93 0 .36-.02.76-.02.93v3.26zm18.5 7.39c-4.47 0-7.06-3.12-7.06-6.59 0-3.7 3.07-6.72 7.15-6.72 4.3 0 7 3.04 7 6.72s-2.55 6.59-7.08 6.59zm4.33-6.15c0-2.9-1.14-6.59-4.42-6.59-2.87 0-4.21 2.84-4.21 5.69 0 2.14.78 6.47 4.43 6.47 2.92 0 4.19-2.51 4.19-5.57zm6.86 5.93c-.12 0-.15-.08-.15-.19 0-.12.07-.29.15-.34 1.55-.12 1.48-.95 1.49-2.51.02-.75.02-2.04.02-3.33s0-2.6-.02-3.35c-.03-1.92.17-2.45-1.46-2.6-.14-.1-.19-.2-.19-.29 0-.14.08-.22.17-.22.02 0 1.53.08 3.07.08.83 0 1.66-.02 2.28-.1h.03c.1 0 .19.1.19.22 0 .1-.05.2-.19.31-1.58.17-1.43.73-1.46 2.62-.02.63-.02 2-.02 3.4s0 2.8.02 3.55c.03 1.66.22 2.11 1.32 2.11.32 0 .92-.03 1.27-.07 2.38-.24 3.35-2.31 3.72-2.75.03-.03.1-.05.17-.05.15 0 .36.07.36.22 0 .07-.48 1.43-1.17 2.82-.2.42-.51.49-.93.49-.02 0-3.12-.14-5.71-.14-1.21 0-2.31.03-2.92.12h-.05zm14.56 0c-.12 0-.15-.08-.15-.19 0-.12.07-.29.15-.34 1.55-.12 1.48-.95 1.49-2.51.02-.75.02-2.04.02-3.33s0-2.6-.02-3.35c-.03-1.92.17-2.45-1.46-2.6-.14-.1-.19-.2-.19-.29 0-.14.08-.22.17-.22.02 0 1.53.08 3.07.08.83 0 1.66-.02 2.28-.1h.03c.1 0 .19.1.19.22 0 .1-.05.2-.19.31-1.58.17-1.43.73-1.46 2.62-.02.63-.02 2-.02 3.4s0 2.8.02 3.55c.03 1.66.22 2.11 1.32 2.11.32 0 .92-.03 1.27-.07 2.38-.24 3.35-2.31 3.72-2.75.03-.03.1-.05.17-.05.15 0 .36.07.36.22 0 .07-.48 1.43-1.17 2.82-.2.42-.51.49-.93.49-.02 0-3.12-.14-5.71-.14-1.21 0-2.31.03-2.92.12h-.05z" fill="#231815" stroke-width="0"/><path fill="none" stroke="#231815" stroke-miterlimit="10" d="M0 23.79h119.89l-10.57-8.26"/></g></svg>