<svg id="_レイヤー_2" data-name="レイヤー 2" xmlns="http://www.w3.org/2000/svg" viewBox="0 0 638.64 201.79"><defs><style>.cls-1{fill:#231815}.cls-1,.cls-2{stroke-width:0}.cls-3{fill:none;stroke:#231815;stroke-miterlimit:10;stroke-width:.5px}.cls-2{fill:#fff}</style></defs><g id="_テキスト" data-name="テキスト"><circle class="cls-1" cx="100.9" cy="100.9" r="100.9"/><path class="cls-2" d="M100.9 190.45c-49.38 0-89.55-40.17-89.55-89.55s40.17-89.56 89.55-89.56 89.55 40.17 89.55 89.55-40.17 89.55-89.55 89.55z"/><path class="cls-3" d="M100.9 186.19c-47.04 0-85.3-38.26-85.3-85.3S53.86 15.6 100.9 15.6s85.3 38.26 85.3 85.3-38.26 85.3-85.3 85.3z"/><circle class="cls-1" cx="319.32" cy="100.9" r="100.9"/><path class="cls-2" d="M319.32 190.45c-49.38 0-89.55-40.17-89.55-89.55s40.17-89.56 89.55-89.56 89.55 40.17 89.55 89.55-40.17 89.55-89.55 89.55z"/><path class="cls-3" d="M319.32 186.19c-47.04 0-85.3-38.26-85.3-85.3s38.26-85.29 85.3-85.29 85.3 38.26 85.3 85.3-38.26 85.3-85.3 85.3z"/><circle class="cls-1" cx="537.74" cy="100.9" r="100.9"/><path class="cls-2" d="M537.74 190.45c-49.38 0-89.55-40.17-89.55-89.55s40.17-89.55 89.55-89.55 89.55 40.17 89.55 89.55-40.17 89.55-89.55 89.55z"/><path class="cls-3" d="M537.74 186.19c-47.04 0-85.3-38.26-85.3-85.3s38.26-85.3 85.3-85.3 85.3 38.26 85.3 85.3-38.26 85.3-85.3 85.3z"/><path class="cls-1" d="M530.43 137.35c0 1.7.1 3.6.1 4.25 0 .95-.35 1.1-1.45 1.1h-5.35c-1.1 0-1.45-.15-1.45-1.1 0-.65.1-2.55.1-4.25 0-1.25-.25-1.5-1.5-1.5h-7.5c-3.35 0-8.4.1-8.75.1-1.05 0-1.25-.3-1.25-1.45v-2.05c0-1.15.15-1.85.7-2.9 1.1-2.2 2.2-4.5 3.25-6.65l3.65-7.7c1-2.15 2.25-4.8 3.55-7.95.55-1.2.8-1.4 2.1-1.4h6.6c.75 0 1.1.1 1.1.45 0 .2-.1.5-.3.9-1.95 3.7-3.2 6.2-4.4 8.7l-5.55 11.55c-.2.4-.25.65-.25.85 0 .4.3.5 1.1.5h6.4c.9 0 1.05-.15 1.05-1.05v-1.15c0-2.45-.1-6.9-.1-7.25 0-1.05.3-1.25 1.45-1.25h5.35c1.15 0 1.45.2 1.45 1.25 0 .35-.1 4.8-.1 7.25v.7c0 1.25.25 1.5 1.5 1.5 1.7 0 3.1-.05 3.75-.05 1 0 1.2.25 1.2 1.4v4.35c0 1.15-.2 1.4-1.2 1.4-.65 0-2.05-.05-3.75-.05-1.25 0-1.5.25-1.5 1.5zm20.56 4.64c-.76 0-1.28.32-1.32 1.16-.04 1.04-.48 1.08-2.32 1.08h-2.08c-1.64 0-2.16-.08-2.16-1.12 0-2 .12-4 .12-6v-19.2c0-1.4-.08-2.84-.08-4.28 0-1.72.84-2.2 2.44-2.2 1.48 0 2.92.08 4.4.08h10.88c1.44 0 2.88-.08 4.36-.08s2.48.36 2.48 2.2c0 1.44-.08 2.88-.08 4.28v19.2c0 2 .12 3.96.12 5.96 0 1-.48 1.12-1.76 1.12h-2.96c-1.48 0-1.84-.12-1.84-1.2 0-.44-.4-1-1.44-1h-8.76zm-1.44-19.44c0 .64.52 1.16 1.12 1.16h9.52c.6 0 1.12-.52 1.12-1.12v-4.36c0-.6-.52-1.12-1.12-1.12h-9.52c-.6 0-1.12.52-1.12 1.12v4.32zm0 12.56c0 .64.52 1.12 1.12 1.12h9.52c.6 0 1.12-.48 1.12-1.12v-4.84c0-.64-.52-1.12-1.12-1.12h-9.52c-.6 0-1.12.48-1.12 1.16v4.8zm-43.08-57.07v3.66h3.2v-4.62h1.42v4.62h3.24v-3.66h1.45v5h-4.69v4.99h3.68v-4.15h1.44v5.5h-11.66v-5.5h1.42v4.15h3.68v-4.99h-4.64v-5h1.44zm15.13 2.53c-.19.47-.46 1.18-.9 2v7.11h-1.37v-5.16c-.39.46-.66.69-.93.93l-.66-1.42c.73-.67 1.98-1.95 2.57-3.94l1.29.48zm-3.7-2.59h3.15v-.94h1.34v.94h3.63v-.94h1.36v.94h3.17v1.32h-3.17v.86h-1.36v-.86h-3.63v.86h-1.34v-.86h-3.15v-1.32zm12.65 2.59v1.25h-1.12v6.59c0 .79-.39 1.28-1.37 1.28h-1.61l-.25-1.38h1.44c.39 0 .43-.2.43-.46v-6.02h-6.3v-1.25h8.79zm-3.66 2.22v4.71h-4.92v-4.71h4.92zm-3.67 1.22v2.3h2.39v-2.3h-2.39zm19.88-6.34v11.64h-10.4V77.67h10.4zm-8.92 5.07h7.43v-3.68h-7.43v3.68zm0 1.37v3.82h7.43v-3.82h-7.43zm20.55-3.57h-6.32v-.44c-.79.36-1.44.63-2.85 1l-.52-1.33c1.91-.38 3.94-1.08 5.71-2.73h1.57c1.79 1.6 3.33 2.25 5.75 2.76l-.66 1.41c-1.25-.34-1.92-.63-2.69-1v.34zm1.94 4.25v4.62h-10.26v-4.62h4.45l-.43-.75c1.26-.27 3.04-.95 4.03-1.59h-8.29v-1.13h10.58v1.13c-1.38 1.2-4.21 2.29-4.36 2.34h4.27zm-1.39 1.16h-7.47v2.33h7.47v-2.33zm-1.87-6.48c-.56-.36-1.05-.69-1.84-1.44-.59.56-1.06.93-1.92 1.44h3.76zm8.48-1.2c.08.75.21 1.59.4 2.31.32-.17 1.51-.82 3.07-.89.09-1.06.11-1.45.11-2.08l1.55.09c-.05.71-.12 1.49-.19 2 3.43.38 4.1 3.13 4.1 4.64 0 4.33-4.36 4.58-5.35 4.64l-.42-1.38c1.12-.05 4.32-.2 4.32-3.32 0-1.96-1.12-3.08-2.88-3.27-1 5.88-3.4 7.08-4.75 7.08-1.69 0-2.37-1.59-2.37-2.96 0-1.26.5-2.72 1.71-3.79-.23-.81-.38-1.37-.62-2.77l1.32-.31zm-.24 4.49c-.66.85-.82 1.8-.82 2.41 0 1.04.48 1.53 1.09 1.53s1.02-.36 1.45-.83c-.98-1.06-1.65-2.93-1.72-3.1zm3.61-1.77c-1.3.16-2.12.58-2.59.87.34 1.08.81 2.25 1.4 2.98.71-1.3 1.06-3.13 1.2-3.86zM264.89 85.1c.58.32 1.34.64 1.34 1.28 0 .26-.22.87-.32 1.15-1.22 3.78-1.79 5.25-3.55 8.8-.06.19-.22.48-.22.67 0 .26.13.42.13.61 0 .22-.13.45-.35.45-.16 0-1.06-.61-1.63-.96-.19-.1-.35-.22-.42-.26-.86-.54-1.95-1.15-1.95-1.57 0-.13.1-.32.19-.42 1.41-2.21 3.23-7.07 4.13-9.64.26-.77.35-.99.67-.99.38 0 1.6.64 1.99.86zm-3.55-14.47c.38 0 2.91 1.83 3.36 2.18.61.45 1.22.93 1.79 1.44.16.16.26.29.26.51 0 .42-.67 1.31-1.06 1.86-.06.1-.13.19-.19.26-.06.06-.1.13-.16.19-.26.32-.61.77-.96.77-.22 0-.42-.16-.58-.29-1.09-.9-3.36-2.56-4.55-3.23-.19-.13-.35-.26-.35-.48 0-.61 1.89-3.2 2.43-3.2zm13.12 12.23c-.99 0-1.98.06-2.98.06s-1.02-.45-1.02-1.28c0-.26 0-.67-.32-.67-.16 0-.77.64-.93.8-.54.51-2.56 2.46-3.2 2.46-.77 0-2.95-2.18-2.95-2.82 0-.32.74-.8.99-.99 2.56-1.73 5.54-5.09 7.3-7.62.86-1.22 1.09-1.73 1.7-3.04.1-.22.19-.42.45-.42s2.72.48 3.17.58c1.09.19 1.92.26 1.92.77 0 .29-.32.48-.58.54-.13.03-.29.06-.29.26s.58.83.9 1.28c.06.1.16.19.19.26 2.4 2.85 4.35 4.55 7.43 6.69.42.29 1.09.67 1.09 1.09s-.83 1.5-1.09 1.86c-.38.45-1.18 1.44-1.83 1.44-.35 0-.74-.29-3.01-2.24-.06-.06-.1-.1-.19-.1-.19 0-.26.16-.26.32-.06.48-.16.83-1.02.83-.99 0-1.99-.06-2.95-.06h-2.53zm2.34 9.83c0 1.7.1 3.39.1 5.09 0 .86-.35.96-1.47.96h-2.05c-1.09 0-1.5-.06-1.5-.93 0-1.7.1-3.42.1-5.12v-3.14c0-.64-.26-1.09-.96-1.09-1.12 0-2.24.06-3.36.06-.77 0-.86-.29-.86-1.57v-1.47c0-1.02.16-1.25.9-1.25 1.28 0 2.56.1 3.84.1h10.28c.54 0 1.09-.03 1.63-.03 1.31 0 1.63.35 1.63 1.66 0 .61-.03 1.25-.03 1.86v3.49c0 .48.03.96.03 1.47 0 1.79-.7 2.82-2.46 3.3-.74.19-2.31.29-3.11.29-.9 0-1.38 0-1.6-.32-.38-.58-.54-2.18-.54-2.88 0-1.02.13-1.31.64-1.31.1 0 .26.03.35.03.32.03.83.1 1.15.1.77 0 .83-.38.83-1.31V89.4c0-.58-.38-.93-.96-.93h-1.67c-.51 0-.9.35-.9.9v3.33zm.19-13.77c.64 0 .93 0 .93-.29 0-.13-.06-.19-.16-.29a34.86 34.86 0 01-1.92-2.27c-.19-.22-.42-.51-.74-.51s-.67.45-1.25 1.18c-.35.42-.77.93-1.28 1.54-.06.1-.16.19-.16.32 0 .32.38.32 2.05.32h2.53zm41.42 17.71c-.61 1.31-1.73 2.11-3.17 2.11-1.57 0-2.66-.64-3.49-1.73-.16-.22-.29-.35-.54-.35s-.42.16-.58.35c-.35.42-1.6 1.79-2.08 1.79-.54 0-1.57-.99-1.99-1.41-.61-.61-.74-.61-2.94-.61h-2.15c-.45 0-.61.06-.67.48-.06.54-.19.61-1.38.61h-1.79c-.51 0-.74-.13-.74-.67 0-1.02.06-2.05.06-3.04v-7.11c0-.86-.06-1.73-.06-2.59 0-1.09.61-1.34 1.57-1.34.83 0 1.63.06 2.43.06h2.66c.93 0 1.79-.06 2.62-.06.67 0 .74.19.74 1.02v.93c0 .87-.03 1.09-.7 1.09-.19 0-.42-.03-.61-.03-.32 0-.51.22-.51.54 0 .42.29.54.64.54.64 0 .9.32.9.93 0 .48-.03 1.06-.03 1.73v.19c0 .67.03 1.22.03 1.73 0 .83-.48.93-1.06.93-.26 0-.48.22-.48.51 0 .22.19.48.51.48h1.02c.42 0 .48.1.54.35.03.13.1.26.26.26s1.57-1.34 1.57-2.11c0-.32-.13-.64-.22-.93-.93-2.53-1.57-5.63-1.79-8-.06-.8-.16-1.06-.8-1.06h-9.09c-.7 0-1.06.29-1.06 1.02v.86c0 4.19-.16 8.26-1.15 12.36-.48 1.95-.7 2.34-1.38 2.34-.77 0-3.59-.83-3.59-1.76 0-.13.13-.45.19-.61 1.41-3.84 1.73-8.45 1.73-12.55v-1.54c0-.86-.06-1.7-.06-2.56 0-1.18.8-1.34 1.79-1.34 1.09 0 2.18.06 3.23.06h9.06c.54 0 .83-.16.83-.74 0-.22-.06-.42-.06-.64 0-.58.35-.64.54-.67.22-.03.42-.26.42-.51 0-.42-.32-.54-.67-.54h-4.29c-.51 0-.93.19-.93.77v.26c0 .64-.35.71-1.38.71h-1.89c-.93 0-1.38-.06-1.38-.71 0-.1.03-.19.03-.29 0-.54-.45-.74-.93-.74h-1.06c-1.28 0-2.56.06-3.87.06-.77 0-.83-.29-.83-1.34v-.77c0-1.47.03-1.73.9-1.73 1.28 0 2.53.06 3.81.06h1.06c.51 0 .96-.16.96-.77 0-.16-.03-.48-.06-.64-.03-.16-.03-.19-.03-.26 0-.35.35-.38.64-.38.61 0 2.24.1 2.91.16.32.03.54.03.77.06.67.06.99.13.99.42 0 .13-.1.22-.29.35-.1.06-.16.26-.16.42 0 .61.51.64.87.64h4.07c.26 0 .83-.06.83-.74 0-.16-.03-.51-.06-.67 0-.1-.03-.19-.03-.26 0-.35.35-.38.64-.38.61 0 2.56.13 3.23.19.16.03.29.03.42.03.61.06.99.1.99.42 0 .13-.06.22-.29.38-.1.06-.13.29-.13.42 0 .54.45.61.83.61h1.06c1.28 0 2.56-.06 3.81-.06.83 0 .9.16.9 1.73v.77c0 1.06-.06 1.34-.8 1.34-1.31 0-2.62-.06-3.91-.06h-1.12c-.51 0-.96.13-.96.74v.26c0 .45-.16.54-.29.64-.13.1-.16.19-.22.32q-.06.13-.29.26c-.1.06-.16.26-.16.42 0 .38.29.48.61.48h.83c.22 0 .48 0 .48-.29 0-.16-.38-.8-.48-.93a.602.602 0 01-.13-.38c0-.48 2.88-1.31 3.33-1.31.26 0 .38.1.9 1.02.26.48.48.9.74 1.47.13.26.22.29.51.38.35.13.38.32.38.99v1.66c0 .96-.06 1.15-.8 1.15-1.22 0-2.46-.06-3.68-.06h-1.67c-.42 0-.77.13-.77.61 0 .51.32 2.5.42 3.11.06.32.13.58.32.58.22 0 .38-.29.48-.54.19-.51.61-1.6.74-2.14.06-.26.19-.67.54-.67.29 0 1.92.77 2.34.96 1.09.48 1.7.7 1.7 1.09 0 .29-.22.35-.48.38-.26.03-.32.13-.42.35-.77 1.92-1.7 3.78-2.69 5.57-.16.29-.38.67-.38.99s.38 1.18.77 1.18c.45 0 .51-1.54.54-1.89.03-.54.06-.8.51-.8.61 0 1.6.22 2.27.48.86.35 1.12.58 1.12 1.28 0 1.22-.38 2.79-.9 3.87zm-16.29-10.02c0-.29-.26-.51-.51-.51h-.38a.5.5 0 00-.51.51v.13c0 .26.19.48.51.51h.38c.26 0 .51-.26.51-.51v-.13zm.83 3.33a.5.5 0 00-.51-.51h-1.22a.5.5 0 00-.51.51V90c0 .26.19.48.51.51h1.22c.29 0 .51-.26.51-.51v-.06zm-1.35 2.75h-.38c-.32 0-.51.26-.51.54.03.32.22.51.51.51h.38c.26 0 .51-.22.51-.51s-.22-.54-.51-.54zM343.35 94c0 1.15.1 2.34.1 3.52 0 .96-.38 1.06-1.5 1.06h-1.79c-1.06 0-1.41-.1-1.41-1.06 0-1.12.1-2.3.1-3.52v-1.6c0-.32 0-.67-.26-.67s-.48.38-.64.54c-.64.83-3.91 4.42-4.77 4.42-.67 0-1.31-.77-1.76-1.25-.32-.35-1.06-1.09-1.06-1.6 0-.42.38-.64.67-.87.8-.64 4.87-4.13 4.87-4.96 0-.35-.42-.35-.64-.35h-.22c-.99 0-1.99.06-2.98.06-.93 0-1.02-.29-1.02-1.28v-1.57c0-.99.1-1.28 1.02-1.28.99 0 1.99.06 2.98.06h2.72c.58 0 1.06-.26 1.06-.9 0-1.76-.19-1.79-.51-1.79h-.58c-.29 0-.35.03-.38.19-.16.58-.29.58-2.11.58h-.8c-1.12 0-1.41-.06-1.41-.8 0-1.18.06-2.34.06-3.52v-2.79c0-1.63 0-2.34-.35-2.34-.26 0-.38.38-.48.61-.77 1.6-1.47 3.23-2.3 4.77-.1.19-.29.51-.29.74 0 .32.26.45.51.51.19.03.54.1.54.42 0 .19-.13.26-.32.45-.26.26-.32.51-.32 1.82v11.68c0 1.47.1 2.95.1 4.45 0 .8-.35.86-1.44.86h-1.95c-1.06 0-1.41-.06-1.41-.86 0-1.5.1-2.98.1-4.45v-7.49c0-.29 0-.58-.26-.58-.13 0-.26.13-.32.19-.16.16-.29.26-.51.26-.77 0-2.56-3.07-2.56-3.84 0-.45.51-.99.77-1.31 2.18-2.72 4.42-6.72 5.38-10.05.13-.42.26-.99.8-.99.19 0 .35.03.58.1.51.19 3.36 1.15 3.71 1.15.16 0 .38-.06.54-.1.51-.19.7-.19 1.22-.19.96 0 1.89.06 2.82.06h7.2c.93 0 1.89-.06 2.82-.06 1.06 0 1.79.19 1.79 1.54 0 .93-.03 1.89-.03 2.82v2.62c0 1.18.06 2.34.06 3.52 0 .74-.29.8-1.67.8h-1.06c-1.31 0-1.57-.06-1.7-.51-.06-.26-.19-.26-.45-.26h-.16c-.13 0-.35.03-.35.13s.13.16.13.35c0 .22-.16.32-.32.45-.26.22-.48.45-.48.83 0 .67.48.93 1.09.93h2.62c1.02 0 2.05-.06 2.88-.06.96 0 1.06.29 1.06 1.31v1.5c0 .96-.06 1.31-1.06 1.31s-1.92-.06-2.88-.06h-.32c-.19 0-.54.03-.54.35 0 .26.32.64.54.93.06.06.13.13.16.19 1.28 1.57 2.75 3.04 4.39 4.29.16.16.32.29.32.54 0 .83-1.86 2.66-2.95 2.66-.58 0-.96-.45-2.05-1.6-.96-.99-1.86-2.05-2.62-3.14-.13-.16-.26-.35-.45-.35-.26 0-.26.32-.26.64v1.82zm.86-16.87c.51 0 .9-.42.9-.9v-1.06c0-.48-.38-.9-.9-.9h-6.08c-.48 0-.9.42-.9.9v1.06c0 .48.45.9.9.9h6.08zm15.33-.38c-1.41 0-2.82.06-4.23.06-.77 0-.83-.35-.83-1.31v-1.73c0-.93.06-1.31.83-1.31 1.41 0 2.82.1 4.23.1h2.21c1.41 0 1.41-1.02 1.67-2.5.06-.32.1-.54.42-.54.48 0 2.43.38 3.04.51 1.54.29 2.24.45 2.24.8 0 .26-.19.42-.45.54-.26.13-.48.38-.48.67 0 .42.35.51.7.51h8.96c1.41 0 2.79-.1 4.19-.1.77 0 .83.38.83 1.31v1.73c0 .93-.06 1.31-.83 1.31-1.38 0-2.79-.06-4.19-.06h-10.31c-1.15 0-1.28 1.12-1.28 1.18 0 .42.32.45 3.23.45h5.6c1.28 0 2.56-.03 3.84-.03.93 0 1.18.1 1.83.8.29.29.96 1.22.96 1.63 0 .67-3.71 3.36-4.45 3.84-.54.35-1.15.74-1.67 1.03-.13.06-.29.16-.29.32 0 .19.22.22.35.22h2.62c1.18 0 2.4-.06 3.58-.06.74 0 .93.29.93 1.02v2.15c0 .67-.19.99-.86.99-1.22 0-2.43-.06-3.65-.06h-2.11c-.51 0-.9.38-.9.9v1.25c0 .86.06 1.73.06 2.59 0 3.36-3.59 3.68-6.18 3.68-.61 0-1.66 0-1.95-.32-.64-.67-.83-2.34-.83-3.2 0-.99.26-1.18.9-1.18s1.31.13 1.95.13c1.22 0 1.22-.26 1.22-1.73v-1.22c0-.51-.42-.9-.9-.9h-2.21c-1.22 0-2.4.06-3.62.06-.83 0-.9-.38-.9-1.31V87.4c0-.86.06-1.28.83-1.28 1.22 0 2.46.06 3.68.06h2.24c.48 0 .8-.22.8-.74 0-.1 0-.58-.03-.67-.03-.16-.03-.22-.03-.32 0-.48.38-.48.7-.48 1.12-.03 2.11-1.25 2.11-1.34 0-.13-.32-.13-.83-.13h-2.82c-1.09 0-2.18.06-3.27.06-.83 0-.86-.32-.86-1.18v-.71c0-.13 0-.38-.19-.38s-.32.32-.42.48a27.01 27.01 0 01-1.98 2.98c-.45.58-.74.93-.74 1.73v8.61c0 1.22.1 2.4.1 3.62 0 .8-.35.86-1.54.86h-1.86c-.9 0-1.28-.06-1.28-.86 0-1.22.06-2.4.06-3.62V89.9c0-.22-.06-.48-.32-.48-.13 0-.29.03-.45.13-.19.13-.26.16-.42.16-.77 0-2.56-2.53-2.56-3.2 0-.42.38-.64.67-.86.8-.61 1.57-1.25 2.27-1.95.51-.51.77-.96.77-1.67 0-.22 0-.51-.03-.74-.03-.1-.03-.19-.03-.29 0-.38.29-.45.61-.45.19 0 .38.03.58.03.77 0 1.06-.48 1.44-1.12.29-.45 1.12-1.83 1.12-2.27 0-.38-.35-.45-.67-.45h-.96zM303.13 112v1.38h-3.11v1.47c.3-.05.83-.13 1.65-.13 3.84 0 4.58 2.14 4.58 3.55 0 .93-.35 2.41-2.3 3.11-.83.3-1.64.36-2.54.38l-.23-1.34c1.08-.01 3.47-.07 3.47-2.14 0-.98-.63-2.25-2.88-2.25-.47 0-1.02.04-1.76.15v3.79c0 1.05-.63 1.55-1.87 1.55-1.98 0-2.98-1.24-2.98-2.68 0-2.29 2.18-3.17 3.4-3.66v-1.79h-3.15v-1.38h3.15v-1.59h1.45v1.59h3.11zm-4.54 4.56c-.74.34-2 .91-2 2.18 0 .75.61 1.33 1.47 1.33.54 0 .54-.23.54-.42v-3.09zm5.59-6.11c1.28 1.01 2.08 2.26 2.67 3.51l-1.32.79c-.51-1.05-1.22-2.42-2.51-3.54l1.16-.77zm16.91 8.81h-5.67v3.21h-1.4v-3.21h-5.52v-1.32h5.52v-1.57h-4.27v-6.13h10.1v6.13h-4.42v1.57h5.67v1.32zm-2.59-7.78h-7.43v1.18h7.43v-1.18zm0 2.38h-7.43v1.28h7.43v-1.28zm6.89-2.81c.08.75.21 1.59.4 2.31.32-.17 1.51-.82 3.07-.89.09-1.06.11-1.45.11-2.08l1.55.09c-.05.71-.12 1.49-.19 2 3.43.38 4.1 3.13 4.1 4.64 0 4.33-4.36 4.58-5.35 4.64l-.42-1.38c1.12-.05 4.32-.2 4.32-3.32 0-1.96-1.12-3.08-2.88-3.27-1 5.88-3.4 7.08-4.75 7.08-1.69 0-2.37-1.59-2.37-2.96 0-1.26.5-2.72 1.71-3.79-.23-.81-.38-1.37-.62-2.77l1.32-.31zm-.24 4.49c-.66.85-.82 1.8-.82 2.41 0 1.04.48 1.53 1.09 1.53s1.02-.36 1.45-.83c-.98-1.06-1.65-2.93-1.72-3.1zm3.6-1.77c-1.3.16-2.12.58-2.59.87.34 1.08.81 2.25 1.4 2.98.71-1.3 1.06-3.13 1.2-3.86zm10.51-3.03c-.2.97-.58 2.78-.58 6.13 0 1.6.07 3.2.39 4.76l-1.6.12c-.12-.79-.34-2.11-.34-4.64 0-2.18.12-4.36.54-6.49l1.59.12zm3.44 5.8c-.4.56-.66 1.21-.66 1.73 0 1.13 1.33 1.25 2.62 1.25 1.05 0 2.18-.05 3.11-.16v1.56c-.73.05-1.53.12-2.49.12-2.21 0-4.64-.21-4.64-2.59 0-.46.08-1.25.7-2.3l1.36.39zm4.8-4.9v1.48h-6.45v-1.48h6.45zm-81.87 22.21v1.38h-3.11v1.47c.3-.05.83-.13 1.65-.13 3.84 0 4.58 2.14 4.58 3.55 0 .93-.35 2.41-2.3 3.11-.83.3-1.64.36-2.54.38l-.23-1.34c1.08-.01 3.47-.07 3.47-2.14 0-.98-.63-2.25-2.88-2.25-.47 0-1.02.04-1.76.15v3.79c0 1.05-.63 1.55-1.87 1.55-1.98 0-2.98-1.24-2.98-2.68 0-2.29 2.18-3.17 3.4-3.66v-1.79h-3.15v-1.38h3.15v-1.59h1.45v1.59h3.11zm-4.54 4.55c-.74.34-2 .91-2 2.18 0 .75.61 1.33 1.47 1.33.54 0 .54-.23.54-.42v-3.09zm5.59-6.11c1.28 1.01 2.08 2.26 2.67 3.51l-1.32.79c-.51-1.05-1.22-2.42-2.51-3.54l1.16-.77zm15.23-.07c-.03 1.46-.19 3.48-.44 4.11-.25.65-.75 1.06-1.77 1.06h-2.58l-.21-1.37h2.69c.51 0 .75-.23.91-2.49h-4.03c-.74 2.34-3.09 3.75-5.98 4.29l-.54-1.38c1.95-.27 4.34-1.02 4.96-2.9h-4.52v-1.32h11.52zm-.63 11.74h-10.11v-5.93h10.11v5.93zm-1.37-4.66h-7.35v3.39h7.35v-3.39zm5.92-6.93c-.12 2.85-.19 5.83-.19 6.57 0 1.64.12 3.23 2.43 3.23 3.33 0 3.76-2.46 4.11-4.36l1.41.59c-.48 2.5-1.48 5.2-5.5 5.2-3.66 0-4.02-2.34-4.02-4.72 0-1.04.07-5.61.08-6.53h1.67zm14.99-.67v4.06h5.04v1.44h-5.04v5.24h5.9v1.41H294v-1.41h5.34V131.7h1.48zm6.55 11.13c1.48-2.57 2.11-5.75 2.3-6.78h-2.1v-1.41h2.33c.12-.85.17-1.38.24-2.45l1.57.12c-.11 1-.16 1.38-.31 2.33h1.3c1.95 0 2.73.81 2.73 3.6 0 5.07-1.68 5.31-2.85 5.31-.66 0-1.16-.11-1.55-.17l-.08-1.46c.34.07.89.19 1.34.19.7 0 1.17-.31 1.4-1.24.32-1.3.34-2.66.34-2.92 0-1.08-.07-1.92-1.38-1.91h-1.49c-.54 2.61-1.13 5.22-2.39 7.55l-1.4-.77zm9.65-2.91c-.15-1.95-.65-3.9-1.99-5.31l1.04-.75c.67.71 2.04 2.26 2.51 5.83l-1.56.23zm-.02-7.79c.74.83 1.21 1.64 1.61 2.39l-.89.63c-.5-1.04-.86-1.59-1.55-2.45l.82-.58zm1.56-.96c.65.71 1.02 1.32 1.61 2.39l-.87.63c-.54-1.06-.85-1.55-1.56-2.45l.82-.58zm4.49 1.4c-.16.73-.5 2.23-.51 4.56.42-.71.69-1.16.93-1.53l.87.74c-.4.5-.78 1.1-1.24 2.02-.39.79-.42 1.17-.43 1.61l-1.41.08c-.07-.52-.2-1.63-.2-3.15 0-2.18.28-3.7.43-4.49l1.56.16zm6.21-.09c.19 2.46.19 4.14.19 4.52 0 3.17-.35 5.62-5.11 6.84l-1.16-1.14c4.64-1.14 4.67-3.23 4.67-5.89 0-1.88-.15-3.59-.2-4.33h1.61zm10.04 11.37c-1.91-1.63-3.52-2.61-6.09-4.18-1.1-.69-1.67-1.04-1.67-1.71 0-.62.48-1.04 1.49-1.82 3.09-2.38 3.89-3.08 4.92-4.18l1.63.89c-1.2 1.14-2.27 2.06-5.44 4.26-.32.23-.77.54-.77.75 0 .2.46.44.83.65 2.19 1.17 5.12 2.9 6.55 4.18l-1.45 1.16zm2.72-.55c1.16-2.45 1.96-6.13 2.22-7.98h-1.87v-1.41h2.06c.09-.93.11-1.12.15-1.69l1.6.05c-.09.83-.13 1.09-.21 1.64h3.47v1.41h-3.67c-.74 4.05-1.53 6.88-2.21 8.48l-1.53-.5zm6.52-3.39c-.2.29-.43.7-.43 1.12 0 .98 1.29 1.09 2.92 1.09.43 0 1.64-.03 2.51-.11v1.51c-.83.01-1.68.03-2.53.03-1.87 0-2.63-.19-3.24-.51-.73-.38-1.08-1.1-1.08-1.77 0-.82.42-1.48.66-1.86l1.18.51zm4.73-2.65c-.38-.01-.78-.04-1.44-.04-1.67 0-2.69.24-3.58.57l-.51-1.28c1.34-.52 2.47-.79 5.53-.74v1.49zm-2.18-5.4c.56.89.9 1.68 1.24 2.61l-1.04.51c-.35-1.1-.6-1.68-1.17-2.66l.97-.46zm1.99-.49c.62.93.98 1.91 1.24 2.61l-1.04.51c-.34-1.09-.63-1.73-1.18-2.66l.98-.46zm10.04 8.53c-1.06-1.2-1.72-2.66-2.34-4.14-.55.01-1.6.03-1.67.03h-4.14v-1.44l4.21.07c.52.01.85 0 1.14-.01-.22-.66-.36-1.37-.51-2.08l1.59-.12c.09.52.27 1.52.46 2.15 1.69-.08 2.82-.24 3.88-.5l.28 1.45c-1.34.28-2.15.34-3.68.42.51 1.22 1.21 2.41 2.1 3.35l-1.32.83zm-4.73-.99c-.28.15-1.34.67-1.34 1.64 0 1.55 2.27 1.59 3.84 1.59 1.76 0 2.7-.09 3.62-.22v1.49c-.55.04-1.59.13-3.47.13-2.33 0-3.72-.26-4.69-1.13-.56-.52-.79-1.21-.79-1.84 0-1.21.82-2.11 2.06-2.72l.78 1.05zm11.12-5.94c-.12.86-.32 2.18-.32 3.99s.12 4.62 1.48 4.62c.43 0 .73-.32.97-.66.32-.44.75-1.26 1.06-2.18l1.22.73c-.34.98-.91 2.27-1.8 3.16-.51.5-1.05.66-1.55.66-2.38 0-2.88-3.48-2.88-6.49 0-1.32.12-2.77.23-3.98l1.59.15zm7.74 9.05c.03-2.38.08-5.94-2.38-7.96l1.18-.85c2.12 1.88 2.84 3.8 2.84 8.74l-1.64.07zm7.35-.3a2.074 2.074 0 01-4.15 0c0-1.14.94-2.08 2.08-2.08s2.07.93 2.07 2.08zm-3.38 0c0 .73.59 1.32 1.32 1.32s1.32-.59 1.32-1.32-.61-1.33-1.32-1.33-1.32.59-1.32 1.33zm-86.61-92.61v1.38h-3.11v1.47c.3-.05.83-.13 1.65-.13 3.84 0 4.58 2.14 4.58 3.55 0 .93-.35 2.41-2.3 3.11-.83.3-1.64.36-2.54.38l-.23-1.34c1.08-.01 3.47-.07 3.47-2.14 0-.98-.63-2.25-2.88-2.25-.47 0-1.02.04-1.76.15v3.79c0 1.05-.63 1.55-1.87 1.55-1.98 0-2.98-1.24-2.98-2.68 0-2.29 2.18-3.17 3.4-3.66V50.5h-3.15v-1.38h3.15v-1.59h1.45v1.59h3.11zm-4.55 4.56c-.74.34-2 .91-2 2.18 0 .75.61 1.33 1.47 1.33.54 0 .54-.23.54-.42v-3.09zm5.6-6.12c1.28 1.01 2.08 2.26 2.67 3.51l-1.32.79c-.51-1.05-1.22-2.42-2.51-3.54l1.16-.77zm12.31 4.82h3.88v6.92h-8.98v-6.92h3.79v-1.24h-4.54v2.41c0 1.88-.48 4.4-1.41 6l-1.12-1.12c.75-1.34 1.12-3.39 1.12-4.88v-6.18h10.96v3.78h-3.7v1.24zm2.34-3.79h-8.19v1.37h8.19v-1.37zm-3.65 4.96h-2.47v1.67h2.47v-1.67zm0 2.76h-2.47v1.81h2.47V56.3zm3.89-2.76h-2.58v1.67h2.58v-1.67zm0 2.76h-2.58v1.81h2.58V56.3zm5.75-8.56c-.15.96-.46 2.94-.46 5.73 0 1.76.12 3.46.5 5.04l-1.57.2c-.34-1.71-.42-3.31-.42-5.05 0-2.89.27-4.97.42-6.01l1.53.09zm1.05 3.91v-1.41h4.53c-.01-.43-.05-2.3-.07-2.69h1.55c.01.77.04 1.91.05 2.69h2.11v1.41h-2.08c.01 3.66.03 6.72-4.66 7.39l-.61-1.38c3.47-.58 3.76-1.77 3.74-6.01h-4.56zm13.45-1.29c-.15.39-.47 1.16-1.1 2.21v7h-1.36v-5.24c-.35.36-.56.55-.83.77l-.62-1.53c.7-.5 1.96-1.86 2.69-3.66l1.22.46zm-3.89-.62a7.734 7.734 0 002.61-2.86l1.22.44c-.95 1.82-2.02 2.89-3.25 3.74l-.58-1.32zm3.14 8.54c.55-.08 1.73-.24 3.28-.81a8.56 8.56 0 01-1.44-1.38c-.66.5-.94.62-1.26.78l-.73-1.18c1.77-.7 2.63-1.86 2.88-2.22-.48.01-1.76.07-2.42.04l-.09-1.21c.32 0 1.94-.04 2.31-.04.38-.39.42-.44.74-.81-.51-.47-1.67-1.3-2.54-1.77l.77-1.04c.26.15.43.26.66.4.38-.43 1.06-1.34 1.46-2.18l1.38.51c-.54.85-1.17 1.61-1.81 2.38.58.43.78.63.91.75.82-.94 1.63-1.88 2.38-2.88l1.4.56c-1.33 1.61-2.82 3.27-3.56 4.02.62-.01 1.38-.03 3.25-.17-.16-.25-.28-.4-.86-1.21l1.09-.63c.58.69 1.55 2.06 1.96 3.09l-1.18.67c-.11-.24-.22-.48-.39-.86-.47.04-3.75.27-3.98.28-.11.21-.26.46-.44.73h4.49v1.06c-.27.43-.87 1.37-2.29 2.33 1.18.48 2.5.69 3.74.79l-.51 1.28c-.7-.09-2.59-.32-4.6-1.29-.7.34-2 .93-4.19 1.29l-.4-1.29zm2.77-3.01l-.03.03c.9.87 1.61 1.33 1.94 1.55 1.05-.6 1.65-1.25 1.95-1.57h-3.86zm10.79-7.54c-.23 1.14-.56 2.97-.56 6.01 0 1.64.07 3.28.42 4.88l-1.49.19c-.28-1.53-.39-3.16-.39-5.07 0-3.29.36-5.39.48-6.13l1.55.12zm8.9 2.11v1.44h-2.39l.03 3.32c1.04.5 2.04 1.26 2.65 1.91l-.95 1.33c-.61-.77-1.24-1.24-1.76-1.6v.39c-.07 1.4-.82 2.16-2.65 2.16-2.1 0-2.94-1.22-2.94-2.39 0-1.42 1.21-2.41 2.97-2.41.56 0 .94.09 1.21.16l-.04-2.88h-3.9v-1.44h3.86v-2.18h1.51v2.18h2.42zm-3.83 5.66a2.72 2.72 0 00-1.21-.26c-.81 0-1.68.31-1.68 1.17s.77 1.14 1.56 1.14c1.28 0 1.36-.75 1.34-1.3v-.75zm156.08 4.16v1.17h-3.47V48.44h3.47v1.17h-2.19v10.05h2.19zm6.55-7.64c1.13.47 1.73.86 2.3 1.28l-.81 1.29c-.31-.24-1.1-.82-2.15-1.29l.66-1.28zm2.91 4.1c-.56 1.33-1.52 3.2-2.74 4.72l-.82-1.44c.75-.93 1.72-2.38 2.39-4.09l1.17.81zm-2.27-7.81c.54.24 1.34.66 2.31 1.32l-.87 1.24c-.59-.48-1.04-.77-2.2-1.41l.77-1.14zm4.04.07c.36.51.93 1.45 1.4 2.7l-1.34.43c-.23-.62-.77-1.85-1.29-2.61l1.24-.52zm2.23 3.37v-3.44h1.38v3.44h3.21v8.12c0 .77-.44 1.08-1.16 1.08h-2.25l-.2-1.37h1.95c.31 0 .35-.12.35-.34v-1.38h-5.14v3.09h-1.37v-9.2h3.21zm-1.84 1.28v1.13h5.14v-1.13h-5.14zm0 2.38v1.21h5.14v-1.21h-5.14zm6.91-6.55c-.39.99-.89 1.91-1.59 2.74l-1.2-.54c.86-1.05 1.29-2.12 1.49-2.63l1.29.43zm12.39 9.93h-2.45c1.41.59 2.31.78 3.88.91l-.81 1.29c-1.61-.26-2.73-.58-4.07-1.21l.77-1h-4.4l.81.91c-1.09.63-3.27 1.17-4.26 1.22l-.61-1.22c2-.15 3.52-.82 3.74-.91h-2.19v-3.82c-.32.15-.51.23-1.12.44l-.62-1.2c1.99-.58 2.57-1.02 3.06-1.41h-2.49c.16-.77.24-1.17.35-2.29h3.27c.01-.12.03-.17.03-.34v-.34h-3.78v-.94h3.78v-.58h1.28v.58h1.84v-.58h1.3v.58h3.37v2.39h-3.37v.69h4.17c-.05 2.08-.29 2.45-.94 2.45h-.55v4.36zm-7.59-6.8c.09-.16.19-.36.3-.69h-1.84c-.01.09-.03.15-.11.69h1.65zm6.22 2.44h-6.86v.64h6.86v-.64zm0 1.35h-6.86v.67h6.86v-.67zm0 1.4h-6.86v.73h6.86v-.73zm-2.6-3.61v-.75h-2.69c-.28.39-.51.6-.67.75h3.36zm0-2.26h-1.99c-.07.21-.12.4-.24.69h2.23v-.69zm-1.85-1.21c0 .21-.01.3-.01.43h1.86v-.67h-1.84v.24zm3.15.43h2.07v-.67h-2.07v.67zm1.69 3.04l-.05-.32h1.01c.09 0 .16 0 .15-.43h-2.8v.75h1.69zm6.54 4.49c-.52 1.17-1.37 2.21-2.14 2.89l-.93-1.04c.79-.7 1.48-1.71 1.84-2.39l1.22.54zm-1.94-9.75h1.28v1.21h2.55v-1.21h1.28v1.21h.79v1.28h-.79v5.28h.79v1.24h-6.91v-1.24h1.01V50.8h-.77v-1.28h.77v-1.21zm1.28 2.49v.95h2.55v-.95h-2.55zm0 2.08v.99h2.55v-.99h-2.55zm0 2.07v1.13h2.55v-1.13h-2.55zm2.44 2.58c.23.22.91.85 1.38 1.71l-.98.86c-.23-.42-.91-1.4-1.33-1.86l.93-.71zm6.2-.56h-2.42c-.2 1.36-.71 2.8-1.6 3.98l-1.17-.91c.95-1.34 1.71-2.62 1.71-6.94v-4.37h4.81v11.14c0 1.08-.73 1.08-1.14 1.08h-1.72l-.21-1.36h1.32c.31 0 .43-.11.43-.4v-2.22zm-2.18-3.51l-.09 2.22h2.27v-2.22h-2.18zm0-3.47v2.22h2.18v-2.22h-2.18zm5.34-1.34h4.45v1.2c-.26.79-.54 1.59-1.26 3.2 1.04 1.02 1.4 2.47 1.4 3.27 0 1.52-1.06 1.95-1.98 1.95h-.85l-.2-1.36h.82c.48 0 .82-.12.82-.69 0-1.61-.75-2.37-1.44-2.97.47-1.01.97-2.51 1.2-3.35h-1.57v11.08h-1.38V48.65zm3.77 10.9c.39-.03.55-.05 1.38-.2v-10.7h6.72v6.24h-3c.15.44.3.93.69 1.68.73-.47 1.4-.99 1.99-1.61l.87 1.06c-.7.67-1.17 1.01-2.19 1.61.36.48.83 1.09 2.16 2.19l-.87 1.16c-2.06-1.5-3.44-3.71-3.9-6.09h-1.13v4.19c.19-.04 2.16-.48 2.22-.5l.07 1.25c-1.06.31-3.88.91-4.79 1.06l-.23-1.34zm2.73-9.68v1.33h4.02v-1.33h-4.02zm0 2.43v1.37h4.02V52.3h-4.02zm11.87-2.7v-1.17h3.47v12.39h-3.47v-1.17h2.19V49.6h-2.19zM65.99 60.98c.48 0 .9-.38.9-.86V58.3c0-.99 0-2.08-.1-2.82-.03-.1-.03-.22-.03-.29 0-.45.32-.51.67-.51.45 0 2.91.22 4.51.42.48.06.67.16.67.45 0 .16-.1.29-.35.51-.26.22-.32.67-.32 1.89v2.11c0 .48.42.93.9.93h4.48c1.38 0 2.79-.1 4.16-.1.83 0 .86.42.86 1.7V64c0 1.22-.1 1.57-.86 1.57-1.38 0-2.79-.1-4.16-.1h-4.48c-.48 0-.9.42-.9.9v2.02c0 .48.42.9.9.9h3.07c1.34 0 2.69-.1 4.03-.1.9 0 .96.38.96 1.41v1.73c0 1.06-.1 1.41-.99 1.41-1.34 0-2.66-.06-4-.06h-3.07c-.48 0-.9.38-.9.9v2.79c0 .48.42.9.9.9h5.6c1.44 0 2.88-.1 4.32-.1.86 0 .93.35.93 1.44v1.79c0 1.09-.06 1.44-.93 1.44-1.44 0-2.88-.06-4.32-.06H60.45c-1.44 0-2.88.06-4.32.06-.86 0-.93-.35-.93-1.44v-1.79c0-1.09.06-1.44.93-1.44 1.44 0 2.88.1 4.32.1h5.54c.48 0 .9-.42.9-.9v-2.79c0-.51-.42-.9-.9-.9h-3.01c-1.31 0-2.66.06-3.97.06-.9 0-.99-.32-.99-1.41v-1.09c0-.64-.45-.9-1.18-1.18-.58-.22-2.15-.93-2.15-1.6 0-.32.29-.67.48-.93 2.4-3.2 3.84-7.08 4.42-11.01.06-.45.1-.8.54-.8.48 0 3.3.77 4.13.99.61.16.86.26.86.58s-.35.54-.64.67c-.58.26-.61.45-.77 1.09-.1.35-.26 1.02-.26 1.28 0 .54.45.64.9.67h1.63zm0 8.3c.48 0 .9-.42.9-.9v-2.02c0-.48-.42-.9-.9-.9h-3.23c-1.12 0-1.41.67-1.76 1.38-.22.48-.58 1.15-.74 1.41s-.26.42-.26.58c0 .45.61.45 2.98.45h3.01zm45.2 8.58c-.16.1-.48.22-.48.45 0 .48 3.75 1.02 4.32 1.12.48.06.77.19.77.74 0 1.12-.93 3.65-2.24 3.65-.32 0-.86-.13-1.22-.22-3.17-.8-6.63-2.37-9.09-4.51-.13-.1-.32-.32-.48-.32-.26 0-.26.26-.26.51v.48c0 1.25-.29 1.44-1.02 1.63-2.5.67-7.36 1.41-10.05 1.76-.48.06-.45.06-.64.45-.1.19-.16.38-.54.38-.48 0-.58-.38-.7-.8-.16-.54-.96-3.2-.96-3.55 0-.67.8-.64 1.28-.67 2.5-.13 2.66-.19 2.66-1.38v-9.99c0-.38-.03-.64-.32-.64-.26 0-.9.42-1.15.58-.35.22-.9.51-1.31.51-1.09 0-2.78-2.62-2.78-3.39 0-.38.45-.54.96-.8 4.26-2.11 8.45-4.8 11.17-8.74.29-.42.42-.58.77-.58.64 0 4 .7 4.9.9.13.03.45.19.45.48 0 .22-.16.35-.29.48a.38.38 0 00-.1.26c0 .29.83 1.09 1.06 1.31 2.82 2.79 6.08 4.51 9.7 5.99.26.1.42.22.42.54 0 .93-1.25 3.75-2.3 3.75-.45 0-2.14-.96-2.66-1.28-.26-.16-.51-.32-.7-.32-.29 0-.32.22-.32.7v2.82c0 .8.03 1.63.03 2.46 0 .38 0 .58.22.58h.22c.26 0 .51.16.74.32.93.67 1.79 1.38 2.72 2.05.19.16.58.42.58.67 0 .19-.13.42-.35.42-.19 0-.48-.13-.64-.13-.1 0-.22.06-.32.1-.7.38-1.34.83-2.02 1.25zm-6.11-10.09c.22 0 .42-.19.42-.42v-.19a.43.43 0 00-.42-.42h-7.84c-.22 0-.38.19-.38.42v.19c0 .26.16.42.38.42h7.84zm-7.85 2.63c-.22 0-.38.19-.38.42v.19c0 .22.16.42.38.42h7.84c.22 0 .42-.19.42-.42v-.19c0-.26-.19-.42-.42-.42h-7.84zm.52 4.06c-.51 0-.9.38-.9.9v1.79c0 .61.06.93.61.93.45 0 2.56-.38 3.01-.48.29-.06.61-.19.61-.51 0-.19-.16-.42-.45-.83-.26-.42-.64-1.02-.8-1.28-.29-.45-.77-.51-1.34-.51h-.74zm.47-10.63c.61 0 1.09-.19 1.09-.93 0-.29-.1-.9-.1-1.18 0-.38.22-.48.58-.48.42 0 2.24.19 2.75.22.13.03.32.06.48.06.1 0 .22-.06.22-.19 0-.1-.35-.48-.74-.86-.16-.16-.32-.29-.45-.45-.19-.19-.42-.48-.7-.48s-.58.35-.9.67c-.99.96-2.02 1.89-3.07 2.75-.16.16-.51.38-.51.61s.26.26.64.26h.7zm7.02 0c.42 0 .54-.03.54-.26 0-.06-.1-.22-.16-.29-.29-.29-.86-.67-1.06-.86a.497.497 0 00-.32-.13c-.35 0-.74.42-.74.74 0 .42.29.8 1.15.8h.58zm-.36 10.63c-.42 0-.64 0-.64.26 0 .29 1.54 1.63 2.15 1.63.51 0 2.05-1.31 2.05-1.6 0-.22-.35-.26-.54-.26-.83 0-1.66-.03-2.5-.03h-.51zm21.48-.13c-1.09 0-1.38.54-1.54 1.5-.42 2.3-1.22 4.83-2.47 6.79-.29.45-.7 1.09-1.31 1.09-.7 0-3.23-1.67-3.23-2.53 0-.19.1-.38.32-.7.74-1.15 1.47-3.04 1.83-4.39.8-2.95.83-6.85.83-9.96v-5.35c0-1.15-.1-2.27-.1-3.43 0-1.25.48-1.76 1.76-1.76 1.06 0 2.11.06 3.17.06h14.89c1.02 0 2.08-.06 3.11-.06 1.28 0 1.79.45 1.79 1.76 0 1.12-.06 2.27-.06 3.43v16.23c0 .86.03 1.76.03 2.62 0 1.44-.26 2.66-1.63 3.43-1.09.61-2.5.7-3.75.7-1.12 0-1.57-.29-1.95-1.34a6.47 6.47 0 01-.38-2.24c0-.58.1-1.02.77-1.02.19 0 .35 0 .54.03.29.03.48.03.77.03.93 0 .99-.29.99-1.15v-2.85c0-.48-.38-.9-.9-.9h-3.97c-.51 0-.9.42-.9.9v1.92c0 1.7.1 3.36.1 5.03 0 .8-.38.86-1.47.86h-1.99c-1.12 0-1.47-.06-1.47-.9 0-1.67.1-3.33.1-4.99v-1.92c0-.51-.35-.9-.9-.9h-2.98zm.07-7.1c-.99 0-1.12.51-1.12 1.38v.71c0 .45.35.9 1.06.9h2.98c.51 0 .9-.42.9-.9v-1.18c0-.48-.35-.9-.9-.9h-2.91zm2.91-4.23c.54 0 .9-.38.9-.9v-1.15c0-.51-.38-.9-.9-.9h-3.07c-.48 0-.9.38-.9.9v1.15c0 .51.42.9.9.9h3.07zm10.5 0c.51 0 .9-.38.9-.9v-1.15c0-.51-.38-.9-.9-.9h-3.97c-.51 0-.9.38-.9.9v1.15c0 .51.35.9.9.9h3.97zm-3.97 4.23c-.54 0-.9.42-.9.9v1.18c0 .48.38.9.9.9h3.97c.51 0 .9-.42.9-.9v-1.18c0-.48-.38-.9-.9-.9h-3.97zm-83.81 34.91c-.63 1.2-1.22 1.79-1.61 2.16l-1.05-1.04c.54-.54 1.79-1.81 2.53-4.99l1.45.27c-.12.51-.31 1.32-.69 2.23h2.55v-2.74h1.45v2.74h5.03v1.36h-5.03v2.5h4.54V106h-4.54v2.78h5.53v1.38H49.64v-1.38h5.61V106h-4.6v-1.37h4.6v-2.5h-3.19zm23.08-1.36c-.51-.03-.93-.05-1.29-.05-.59 0-.97.01-1.42.16-1.91.59-4.41 2.66-4.41 4.85 0 1.68 1.33 2.12 2.63 2.37.91.17 2.27.24 3.33.2l-.27 1.61c-2.72-.08-7.26-.23-7.26-4.09 0-2.58 2.42-4.29 3.6-5.01-1.42.09-4.87.34-6.12.48l-.11-1.63c.98-.01 4.67-.23 5.43-.27 2.06-.09 3.52-.12 5.85-.16l.03 1.53zm-2.75 1.52c.62.79 1.05 1.59 1.49 2.54l-1.02.62c-.44-1.08-.79-1.71-1.43-2.58l.96-.58zm1.93-.86c.63.79 1.02 1.51 1.51 2.53l-1.02.6c-.48-1.12-.77-1.64-1.44-2.57l.95-.56zm11.32-1.09v1.37h-4.11l-.05 2.22h1.57c1.06 0 1.84-.07 2.42-.21l.08 1.36c-.54.16-1.61.24-2.5.24h-1.6c-.04 2.76 0 3.21 2.55 3.21 1.47 0 3.11-.08 3.11-2.34 0-1.02-.28-1.88-.74-2.92l1.36-.36c.58 1.06.91 2.15.91 3.4 0 3.66-2.98 3.66-4.68 3.66-1.83 0-2.98-.23-3.67-1.51-.38-.7-.38-1.69-.35-3.15h-2.42v-1.38h2.43l.04-2.22h-2.33v-1.37h2.35l.03-1.73h1.56l-.04 1.73h4.07zm6.96-2.3h1.37v2.33h2.81c0 1.91-.03 7.38-.38 9.09-.21 1.06-.91 1.18-1.64 1.18h-1.41l-.23-1.42h1.47c.38 0 .46-.08.56-.9.17-1.38.21-4.07.21-6.55h-1.4c0 5.89-1.65 7.88-2.73 8.87l-1.01-1.18c.83-.86 2.37-2.42 2.37-7.47v-.21h-2.07v-1.4h2.07v-2.33zm9.98.74v11.59h-4.84V98.79h4.84zm-1.38 1.32h-2.11v8.91h2.11v-8.91zm9.1 6.53v.16c-1.26.19-4.14.48-5.92.54l-.11-1.24c.63 0 1.98-.05 2.66-.08v-1.12h-1.99v-.86c-.05.03-.15.07-.21.09l-.58-.96c1.1-.44 1.44-.93 1.61-1.61h-1.49v-1.02h2.66v-.73h-1.99V98.8h1.99v-.79h1.26v.79h2.1v1.01h-2.1v.73h2.47v1.02h-1.64v.59c0 .19.04.28.23.28h.42c.16 0 .17-.07.29-.69l.9.19c-.27 1.33-.36 1.49-.9 1.49h-1.17c-.3 0-.52-.12-.61-.19v.59h2.1v1.06h-2.1v1.04c.94-.05 1.57-.12 2.1-.17v.5c.16-.16 1.08-1.1 1.55-2.47-.42-.36-.7-.55-1.02-.78l.64-1.05c.31.19.47.28.67.42.03-.3.08-.73.11-1.44h-1.2v-1.28h1.25c0-.58.01-1.04.01-1.64h1.24c-.01.39-.04 1.32-.05 1.64h2.06c-.01.52-.11 3.12-.11 3.71s.03 1.76.12 1.99c.03.07.08.17.17.17.15 0 .19-.24.21-.4.03-.13.11-1.09.12-1.29l.94.48c-.15 1.65-.47 2.96-1.44 2.96-1.14 0-1.25-1.9-1.29-2.62-.04-.52-.04-3.13-.05-3.72h-.81c-.04.48-.11 1.53-.23 2.27.52.44.73.7.94.95l-.81 1.2c-.21-.27-.35-.43-.54-.63-.52 1.38-1.16 2.16-1.68 2.82l-.82-.91zm-3.36 1.04c-.25.97-.75 2.08-1.65 3.04l-1.12-.95c.74-.73 1.18-1.36 1.56-2.41l1.21.32zm0-3.83v-.95h1.04c-.03-.07-.03-.13-.03-.22v-1.1h-.9c-.27.94-.86 1.76-1.69 2.27h1.59zm1.27 6.63c.09-1.17.09-1.26.07-2.85h1.24c.09.7.16 1.73.12 2.85h-1.42zm3.37 0c-.12-.97-.31-1.84-.59-2.85l1.26-.07c.28.75.59 1.92.73 2.92h-1.4zm4.07.18c-.81-1.32-1.36-2.03-2.11-2.85l1.02-.73c.96.81 1.71 1.78 2.33 2.64l-1.24.94zM121 98.74c-.12 2.85-.19 5.83-.19 6.57 0 1.64.12 3.23 2.43 3.23 3.33 0 3.76-2.46 4.11-4.36l1.41.59c-.48 2.5-1.48 5.2-5.5 5.2-3.66 0-4.02-2.34-4.02-4.72 0-1.04.07-5.61.08-6.53h1.67zm20.74 2.04c-.51-.03-.93-.05-1.29-.05-.67 0-1.05.04-1.42.16-1.91.59-4.41 2.66-4.41 4.85 0 1.68 1.33 2.12 2.63 2.37.94.17 2.31.24 3.33.2l-.27 1.61c-2.72-.08-7.26-.23-7.26-4.09 0-2.58 2.42-4.29 3.6-5.01-1.42.09-4.87.34-6.12.48l-.11-1.63c.86 0 4.67-.23 5.43-.27 2.06-.09 3.6-.12 5.85-.16l.03 1.53zm10.5-.43v1.37h-4.11l-.05 2.22h1.57c1.06 0 1.84-.07 2.42-.21l.08 1.36c-.54.16-1.61.24-2.5.24h-1.6c-.04 2.76 0 3.21 2.55 3.21 1.47 0 3.11-.08 3.11-2.34 0-1.02-.28-1.88-.74-2.92l1.36-.36c.58 1.06.91 2.15.91 3.4 0 3.66-2.98 3.66-4.68 3.66-1.83 0-2.98-.23-3.67-1.51-.38-.7-.38-1.69-.35-3.15h-2.42v-1.38h2.43l.04-2.22h-2.33v-1.37h2.35l.03-1.73h1.56l-.04 1.73h4.07zm-65.86 21.71v1.38h-3.11v1.47c.3-.05.83-.13 1.65-.13 3.84 0 4.58 2.14 4.58 3.55 0 .93-.35 2.41-2.3 3.11-.83.3-1.64.36-2.54.38l-.23-1.34c1.08-.01 3.47-.07 3.47-2.14 0-.98-.63-2.25-2.88-2.25-.47 0-1.02.04-1.76.15v3.79c0 1.05-.63 1.55-1.87 1.55-1.98 0-2.98-1.24-2.98-2.68 0-2.29 2.18-3.17 3.4-3.66v-1.79h-3.15v-1.38h3.15v-1.59h1.45v1.59h3.11zm-4.54 4.56c-.74.34-2 .91-2 2.18 0 .75.61 1.33 1.47 1.33.54 0 .54-.23.54-.42v-3.09zm5.59-6.12c1.28 1.01 2.08 2.26 2.67 3.51l-1.32.79c-.51-1.05-1.22-2.42-2.51-3.54l1.16-.77zm6.67.69c-.12.86-.32 2.18-.32 3.99s.12 4.62 1.48 4.62c.43 0 .73-.32.97-.66.32-.44.75-1.26 1.06-2.18l1.22.73c-.34.98-.91 2.27-1.8 3.16-.51.5-1.05.66-1.55.66-2.38 0-2.88-3.48-2.88-6.49 0-1.32.12-2.77.23-3.98l1.59.15zm7.74 9.04c.03-2.38.08-5.94-2.38-7.96l1.18-.85c2.12 1.88 2.84 3.8 2.84 8.74l-1.64.07zm6.36-9.65c-.12 2.85-.19 5.83-.19 6.57 0 1.64.12 3.23 2.43 3.23 3.33 0 3.76-2.46 4.11-4.36l1.41.59c-.48 2.5-1.48 5.2-5.5 5.2-3.66 0-4.02-2.34-4.02-4.72 0-1.04.07-5.61.08-6.53h1.67zm17.43 11.48c-1.91-1.63-3.52-2.61-6.09-4.18-1.1-.69-1.67-1.04-1.67-1.71 0-.62.48-1.04 1.49-1.82 3.09-2.38 3.89-3.08 4.92-4.18l1.63.89c-1.2 1.14-2.27 2.06-5.44 4.26-.32.23-.77.54-.77.75 0 .2.46.44.83.65 2.19 1.17 5.12 2.9 6.55 4.18l-1.45 1.16zm-63.64 10.97c-.12.86-.32 2.18-.32 3.99s.12 4.62 1.48 4.62c.43 0 .73-.32.97-.66.32-.44.75-1.26 1.06-2.18l1.22.73c-.34.98-.91 2.27-1.8 3.16-.51.5-1.05.66-1.55.66-2.38 0-2.88-3.48-2.88-6.49 0-1.32.12-2.77.23-3.98l1.59.15zm7.75 9.05c.03-2.38.08-5.94-2.38-7.96l1.18-.85c2.12 1.88 2.84 3.8 2.84 8.74l-1.64.07zm3.76 1.27c1.26-2.66 2.02-6.52 2.22-7.98h-1.87v-1.41h2.06c.09-.93.11-1.12.15-1.69l1.6.05c-.09.83-.13 1.09-.21 1.64h3.47v1.41h-3.67c-.67 3.64-1.44 6.65-2.21 8.48l-1.53-.5zm6.52-3.39c-.2.29-.43.7-.43 1.12 0 .98 1.29 1.09 2.92 1.09.43 0 1.64-.03 2.51-.11v1.51c-.83.01-1.68.03-2.53.03-1.75 0-2.55-.15-3.24-.51-.6-.31-1.08-.97-1.08-1.77s.42-1.48.66-1.86l1.18.51zm4.73-2.64c-.38-.01-.78-.04-1.44-.04-1.67 0-2.69.24-3.58.57l-.51-1.28c1.34-.52 2.47-.79 5.53-.74v1.49zm2.27 6.03c1.16-2.45 1.96-6.13 2.22-7.98h-1.87v-1.41h2.06c.09-.93.11-1.12.15-1.69l1.6.05c-.09.83-.13 1.09-.21 1.64h3.47v1.41h-3.67c-.74 4.05-1.53 6.88-2.21 8.48l-1.53-.5zm6.52-3.39c-.2.29-.43.7-.43 1.12 0 .98 1.29 1.09 2.92 1.09.43 0 1.64-.03 2.51-.11v1.51c-.83.01-1.68.03-2.53.03-1.87 0-2.63-.19-3.24-.51-.73-.38-1.08-1.1-1.08-1.77 0-.82.42-1.48.66-1.86l1.18.51zm4.74-2.64c-.38-.01-.78-.04-1.44-.04-1.67 0-2.69.24-3.58.57l-.51-1.28c1.34-.52 2.47-.79 5.53-.74v1.49zm-2.18-5.41c.56.89.9 1.68 1.24 2.61l-1.04.51c-.35-1.1-.6-1.68-1.17-2.66l.97-.46zm1.99-.48c.62.93.98 1.91 1.24 2.61l-1.04.51c-.34-1.09-.63-1.73-1.18-2.66l.98-.46zm4.93 1.1c-.15.96-.46 2.94-.46 5.73 0 1.76.12 3.46.5 5.04l-1.57.2c-.34-1.71-.42-3.31-.42-5.05 0-2.89.27-4.97.42-6.01l1.53.09zm1.05 3.91v-1.41h4.53c-.01-.43-.05-2.3-.07-2.69h1.55c.01.77.04 1.91.05 2.69h2.11v1.41h-2.08c.01 3.66.03 6.72-4.66 7.39l-.61-1.38c3.47-.58 3.76-1.77 3.74-6.01h-4.56zm20.82-2.78v1.28h-4.18v1.44h3.9v1.26h-3.9v1.71c1.41.51 2.53 1.24 3.91 2.38l-.97 1.41c-1.13-1.22-2.08-1.81-2.94-2.26v.63c-.05 1.75-1.59 2.18-2.78 2.18-2.73 0-3.32-1.48-3.32-2.34 0-1.42 1.4-2.47 3.42-2.47.54 0 .93.07 1.2.11v-1.34h-4.73v-1.26h4.73v-1.44h-4.96v-1.28h4.96v-1.32h1.49v1.32h4.18zm-5.67 6.6c-.24-.07-.62-.17-1.24-.17-1.12 0-1.98.46-1.98 1.21 0 .19.09 1.1 1.72 1.1.89 0 1.49-.27 1.49-1.28v-.86zm19.31-6.64V145h-3.48v2.72c.11.4.24.98.24 1.81 0 3.78-3.6 4.21-5.58 4.29l-.47-1.37c3.91.04 4.42-1.32 4.57-2.31-.32.65-.9 1.02-1.84 1.02-1.63 0-2.53-1.3-2.53-2.65 0-1.67 1.22-2.73 2.8-2.73.67 0 1.06.2 1.34.43V145h-6.45v-1.38h6.41l-.03-1.42h1.53v1.42h3.48zm-4.91 4.48c-.15-.69-.51-1.13-1.33-1.13-.71 0-1.48.44-1.48 1.49 0 .93.58 1.55 1.37 1.55.89 0 1.44-.63 1.44-1.38v-.52zm11.28 3.68a2.074 2.074 0 01-4.15 0c0-1.14.94-2.08 2.08-2.08s2.07.93 2.07 2.08zm-3.39 0c0 .73.59 1.32 1.32 1.32s1.32-.59 1.32-1.32-.61-1.33-1.32-1.33-1.32.59-1.32 1.33z"/></g></svg>