<svg data-name="レイヤー 2" xmlns="http://www.w3.org/2000/svg" viewBox="0 0 68.56 27.55"><g data-name="テキスト"><path d="M9 18.76c-2.24 0-3.94-.48-5.4-1.95l1.87-1.87c.93.93 2.2 1.25 3.57 1.25 1.7 0 2.61-.64 2.61-1.83 0-.52-.15-.96-.46-1.25-.29-.27-.62-.41-1.31-.52l-1.78-.25c-1.27-.19-2.2-.58-2.86-1.22-.71-.71-1.06-1.66-1.06-2.9 0-2.64 1.95-4.48 5.15-4.48 2.03 0 3.51.5 4.77 1.72l-1.83 1.81c-.93-.89-2.05-1.02-3.03-1.02-1.54 0-2.28.85-2.28 1.87 0 .37.12.77.44 1.06.29.27.77.5 1.37.58l1.74.25c1.35.19 2.2.56 2.82 1.14.79.75 1.14 1.83 1.14 3.13 0 2.86-2.39 4.48-5.48 4.48zM23.43 6.43v12.2h-2.88V6.43h-3.86V3.86h10.6v2.57h-3.86zm6.79 12.21V3.86h9.73v2.57H33.1V9.9h5.83v2.57H33.1v3.59h6.85v2.57h-9.73zm18.87-5.57h-2.84v5.56h-2.88V3.86h5.73c3.05 0 4.88 2.1 4.88 4.61s-1.83 4.61-4.88 4.61zm-.15-6.64h-2.7v4.05h2.7c1.31 0 2.14-.81 2.14-2.01s-.83-2.03-2.14-2.03zm7.85 12.21V15.6l6.9-8.02c.67-.8.96-1.38.96-2.23 0-1.38-.8-2.31-2.23-2.31-1.12 0-2.26.57-2.26 2.36h-3.37c0-3.37 2.47-5.4 5.63-5.4s5.61 2.05 5.61 5.37c0 1.79-.7 2.75-1.97 4.23l-5.17 6h7.14v3.04H56.79z" fill="#231815" stroke-width="0"/><path fill="none" stroke="#231815" stroke-miterlimit="10" stroke-width="2" d="M0 26.55h68.56"/></g></svg>