<svg data-name="レイヤー 2" xmlns="http://www.w3.org/2000/svg" viewBox="0 0 99 28.36"><g data-name="テキスト"><path d="M5.91 10.14v6c0 .25.06.45.18.58s.32.24.6.31v.39H1.5v-.39c.29-.08.5-.19.61-.32.11-.13.17-.32.17-.57V2.06c0-.25-.06-.44-.17-.57-.11-.13-.32-.24-.61-.32V.78h14.73c.24 0 .43-.06.56-.17.13-.11.24-.32.32-.61h.39v4.3h-.39c-.08-.3-.19-.5-.32-.61s-.32-.17-.56-.17H5.91v3.97h6.74c.25 0 .44-.06.57-.17.13-.12.24-.32.32-.61h.39v4.21h-.39c-.08-.29-.19-.49-.32-.61s-.32-.17-.57-.17H5.91zm15.44 6V2.05c0-.24-.06-.43-.17-.56-.11-.13-.32-.24-.61-.32V.78h5.19v.39c-.29.07-.5.18-.61.31-.11.13-.17.32-.17.57v14.09c0 .25.06.45.18.58s.32.24.6.31v.39h-5.19v-.39c.29-.08.5-.19.61-.32.11-.13.17-.32.17-.57zM33.76 6.02v10.12c0 .25.06.44.17.57.11.13.32.24.61.32v.39h-4.89v-.39c.29-.08.5-.19.61-.32.11-.13.17-.32.17-.57V2.05c0-.24-.06-.43-.17-.56-.11-.13-.32-.24-.61-.32V.78h5.66v.39c-.35.09-.52.28-.52.56 0 .2.11.41.34.65l9.18 9.55V2.05c0-.24-.06-.43-.17-.56-.11-.13-.32-.24-.61-.32V.78h4.89v.39c-.29.08-.5.19-.61.32-.11.13-.17.32-.17.56v14.09c0 .25.06.44.17.57.11.13.32.24.61.32v.39h-5.24v-.39c.34-.07.51-.25.51-.52 0-.16-.2-.45-.6-.85l-9.33-9.63zm19.31 10.12V2.05c0-.24-.06-.43-.17-.56-.11-.13-.32-.24-.61-.32V.78h5.19v.39c-.29.07-.5.18-.61.31-.11.13-.17.32-.17.57v14.09c0 .25.06.45.18.58s.32.24.6.31v.39h-5.19v-.39c.29-.08.5-.19.61-.32.11-.13.17-.32.17-.57zM76.85 2.19l-1.99 3.92-.34-.19c0-.08.01-.15.01-.2 0-.28-.24-.57-.71-.89-1.45-1.01-3.15-1.51-5.1-1.51-.86 0-1.62.11-2.28.32-.48.16-.87.41-1.17.73-.3.32-.44.68-.44 1.06 0 .62.38 1.05 1.13 1.28.39.11 1.23.24 2.51.37l1.91.2c1.14.12 2.06.29 2.76.5.7.21 1.33.51 1.87.89.55.4.99.92 1.31 1.57.32.65.48 1.34.48 2.08 0 1.17-.38 2.21-1.13 3.12-.68.83-1.74 1.44-3.18 1.84-1.07.3-2.22.45-3.45.45-2.2 0-4.38-.53-6.52-1.58-.46-.21-.73-.32-.82-.32-.11 0-.27.09-.5.27l-.35-.18 1.8-4.08.35.17v.16c0 .37.17.7.52 1.01.53.47 1.35.88 2.45 1.22 1.11.34 2.15.51 3.15.51 1.08 0 2-.18 2.77-.55.42-.2.76-.47 1.01-.81s.38-.69.38-1.05c0-.55-.3-.95-.89-1.18-.42-.16-1.25-.31-2.51-.45L68 10.68c-1.26-.13-2.15-.25-2.67-.37s-1.04-.31-1.56-.57c-.74-.37-1.32-.92-1.74-1.65-.38-.66-.57-1.42-.57-2.27 0-1.41.48-2.57 1.45-3.49C64.18 1.12 66.08.51 68.62.51c1.07 0 2.06.11 2.98.32.92.22 2.06.61 3.44 1.19.47.19.76.28.87.28.17 0 .37-.09.6-.28l.34.18zm17.53 7.97h-9.59v6c0 .24.06.43.18.57s.32.24.6.31v.39h-5.19v-.39c.29-.08.5-.19.61-.32.11-.13.17-.32.17-.56V2.05c0-.24-.06-.43-.17-.56-.11-.13-.32-.24-.61-.32V.78h5.19v.39c-.29.07-.5.18-.61.31-.11.13-.17.32-.17.57v5.36h9.59V2.05c0-.24-.06-.43-.17-.57-.11-.13-.32-.24-.61-.31V.78h5.19v.39c-.29.08-.5.19-.61.32-.11.13-.17.32-.17.56v14.11c0 .24.06.43.17.56.11.13.32.24.61.32v.39H93.6v-.39c.29-.07.49-.18.6-.31.12-.13.18-.32.18-.57v-6z" fill="#231815" stroke-width="0"/><path fill="none" stroke="#231815" stroke-miterlimit="10" stroke-width="4" d="M0 26.36h99"/></g></svg>