<svg data-name="レイヤー 2" xmlns="http://www.w3.org/2000/svg" viewBox="0 0 414.75 65.18"><g data-name="テキスト"><g stroke="#231815" stroke-miterlimit="10"><path d="M1 5.77h1.3c1.91 0 3.47-1.56 3.47-3.47V1h403.21v1.3c0 1.91 1.56 3.47 3.47 3.47h1.3v53.64h-1.3c-1.91 0-3.47 1.56-3.47 3.47v1.3H5.77v-1.3c0-1.91-1.56-3.47-3.47-3.47H1V5.77z" fill="#fff" stroke-width="2"/><path d="M5.3 9.47A7.81 7.81 0 009.47 5.3h395.81a7.81 7.81 0 004.17 4.17v46.24a7.81 7.81 0 00-4.17 4.17H9.47a7.81 7.81 0 00-4.17-4.17V9.47z" fill="none"/></g><path d="M127.69 40.52c0 5.37-2.6 7.08-4.59 7.08-1.35 0-2.17-1-2.17-2.06 0-1 .68-2.06 2.28-2.49 1.85-.5 2.85-1.1 3.63-2.85.36-.78.57-1.17.68-1.17.14 0 .18.43.18 1.32v.18zm21.57-13.95c0 .32-.43.46-.75.5q-.57.11-1.1 1.1a19.54 19.54 0 01-3.13 4.27c.78.92 2.21 2.31 3.1 2.31 1.6 0 2.99-3.56 3.2-4.31.11-.39.21-.6.25-.6s.04.11.04.32c0 .57-.11 1.92-.11 3.1 0 .92.07 1.74.32 2.06.64.78.93 1.49.93 2.1 0 1.14-.96 1.85-2.56 1.85s-5.02-.85-7.86-4.55c-1.57 1.1-6.01 3.84-13.63 3.84-.64 0-.93-.04-.93-.11 0-.11.5-.25 1.42-.43 4.48-.82 8.5-2.88 11.53-5.73-1.49-2.67-2.6-5.91-3.34-9.39h-2.85c-1.96 0-7.79.11-10.96.43h-.04c-.64 0-1.64-1.39-1.64-1.85 3.63.43 10.78.57 12.81.57h2.49c-.18-1-.32-1.99-.46-2.99-.14-1.21-.36-1.89-.57-2.78-.04-.21-.07-.28-.07-.36l.07-.04c1.64 0 4.98.85 5.3 1.1h.14c.39-.07.93-.14 1.53-.14 2.53 0 3.95 1.1 3.95 2.74 0 1.1-.85 1.96-1.81 1.96-.57 0-1.21-.32-1.74-1.14-.5-.78-1.17-2.17-2.03-2.78-.14.18-.32.32-.6.53-.21.18-.36.32-.36 1.03.04 1 .11 1.96.21 2.85h4.88c.21 0 .43-.14.53-.32.39-.78 1.92-2.7 2.46-2.7.11 0 .18.04.25.04 1.28.5 3.52 2.56 3.52 3.42 0 .21-.18.43-.75.43h-10.75c.43 2.7 1.25 4.91 2.21 6.69 1.89-2.46 2.6-5.05 2.63-5.23.11-.36.07-.53.21-.53.5 0 4.06 2.06 4.06 2.74zM124.78 37.5c-.36.11-.46.6-.78.6-.82 0-2.78-3.7-2.78-3.95 0-.11.07-.14.43-.14 5.41 0 11.81-1.17 15.91-2.03.57-.11.96-.18 1.17-.18.11 0 .14 0 .14.07 0 .32-6.76 3.34-14.09 5.62zm3.73-11.67h2.67c.14 0 .21 0 .32-.18.21-.28 1.17-1.42 1.32-1.42.53 0 3.38 1.57 3.38 2.06 0 .18-.14.43-.6.75-.6.43-.64.5-.64 1.32 0 .71.11 1.46.21 2.17v.11c0 .75-1.1 1.21-2.06 1.21-.78 0-1.46-.28-1.46-.96v-.28h-3.59v.93c0 1.17-1.57 1.39-2.1 1.39-.85 0-1.64-.36-1.64-1.17v-.21c.11-.93.21-3.06.21-4.48 0-.36-.18-1.71-.39-2.7 0-.04-.04-.11-.04-.11 0-.11.04-.11.11-.11.43 0 3.45 1.07 4.2 1.6l.11.11zm-.35 1.1c-.11.07-.11.32-.11.36-.04.43-.04 1.46-.04 2.42h3.67c.04-.5.04-1 .04-1.49 0-1.46-.14-1.53-.5-1.53h-2.81c-.07.11-.18.18-.25.25zm8.93 21.63c-5.34 0-7.37-.39-7.44-4.06v-2.67c0-.78-.11-1.39-.29-2.28-.04-.18-.07-.25-.07-.32 0-.04.04-.07.11-.07.71 0 5.44.78 5.44 1.67 0 .21-.18.43-.75.71-.43.21-.5.53-.6.96 0 .07 0 1.14.04 1.28.14 1.14.5 1.25 2.95 1.25 4.73 0 5.41-.57 6.05-3.91.04-.25.07-.36.11-.36.18 0 .32 2.35 1.46 2.99.82.46 1.17 1.1 1.17 1.78 0 1.64-1.67 3.02-8.18 3.02zm3.56-7.26c0 1.14-.93 2.1-1.92 2.1-.68 0-1.39-.39-1.89-1.39-.39-.78-1.28-2.49-2.17-3.2-.28-.25-.75-.43-.75-.53s.53-.11 1.07-.11c5.37 0 5.66 2.35 5.66 3.13zm11.13 3.21c0 1.28-.96 2.35-2.06 2.35-.75 0-1.57-.5-2.21-1.67-1-1.81-1.74-3.52-2.67-4.31-.64-.5-.85-.75-.85-.85 0-.04.04-.07.11-.07.14 0 .39.07.6.11 2.24.32 7.08 1.1 7.08 4.45zm41.56-11.64c0 .32-3.67 1.03-5.23 2.31-.46.36-.93.6-1.35.6-1.71 0-7.65-4.66-9.07-9.89.04 2.38.18 5.2.25 6.44v.07c0 1.32-1.67 1.81-2.49 1.81-1 0-1.92-.5-1.92-1.6v-.21c.07-.68.14-1.92.21-3.24-1.42 1.46-3.52 3.1-5.98 4.52 1.21.43 2.95 1.28 3.7 1.78l.11.11h8.47c.14 0 .29 0 .46-.25.39-.57 1.25-1.49 1.53-1.49.39 0 4.09 1.99 4.09 2.74 0 .25-.18.5-.68.85-.89.6-.78.53-.82 1.25v.78c0 1.81.14 5.05.36 7.37v.11c0 1.07-1.21 1.71-2.31 1.71-1 0-1.89-.46-1.89-1.53v-1.14h-9.89v1.1c0 1.14-1.35 1.71-2.46 1.71-.96 0-1.81-.46-1.81-1.46v-.21c.21-1.89.39-7.86.39-10.32 0-.6 0-1.57-.18-2.6-3.91 2.06-7.15 2.88-8.08 2.88-.11 0-.18 0-.18-.04 0-.11.32-.32.93-.6 4.09-1.99 9.64-7.15 12.1-10.53-2.13 0-6.26.11-9.22.39h-.04c-.64 0-1.6-1.35-1.6-1.81 3.63.43 9.39.57 11.42.57h1.71v-.39c-.07-1.78 0-1.49-.14-2.95-1.74.07-3.49.11-5.05.11-5.02 0-6.97-.18-6.97-.36 0-.11.43-.18 1.28-.25 11-.93 17.19-3.45 18.29-4.45.18-.14.21-.25.32-.25.39 0 3.95 2.92 3.95 3.95 0 .28-.25.43-.68.43-.29 0-.71-.07-1.14-.18h-.07c-.14 0-.28.04-.36.07-1.42.29-3.1.53-4.91.68.28.11.5.25.5.43s-.25.36-.82.6c-.43.21-.43 1.42-.43 2.56h5.69c.25 0 .43-.14.53-.32.39-.68 1.53-2.17 2.53-3.17.07-.07.25-.11.39-.11 1.03 0 4.38 3.2 4.38 4.02 0 .21-.18.43-.78.43h-12.17c2.78 2.92 8.4 5.76 14.87 6.87.18.04.25.07.25.11zm-22.46 12.17h9.89v-4.02h-9.86c0 1.39-.04 2.85-.04 4.02zm.04-4.95h9.86c0-1.28-.04-2.38-.04-2.95 0-.5-.28-.64-.68-.64h-8.86q-.21.11-.29 3.59zm46.62-11.38c0 9.04-7.29 16.3-11.07 16.3-1.39 0-2.46-.85-2.56-3.2-.04-1.14-.5-1.74-1.25-2.49-1.14-1.17-1.89-2.63-1.89-4.41 0-4.59 6.58-12.45 14.59-12.45 8.68 0 12.6 7.69 12.6 13.42 0 8.25-9.07 10.75-16.44 10.75-.92 0-1.49-.07-1.49-.21 0-.11.57-.25 1.89-.39 7.9-.71 12.06-3.95 12.06-10.92 0-9.64-5.23-11.35-8.11-11.49.93.6 1.67 1.78 1.67 5.12zm-13.34 6.08c0 1.67 1.07 5.59 3.02 5.59 2.6 0 8.9-7.72 8.9-13.56 0-1.39-.39-2.63-1.14-2.81-.46-.11-.68-.21-.75-.36-5.76.85-10.03 6.76-10.03 11.14zm48.39 6.73c.78-.25 1.46-.36 2.03-.36 1.49 0 2.31.75 2.31 1.67 0 1.96-3.42 4.13-8.54 4.13-7.12 0-9.79-5.09-9.79-5.23 0-.07.04-.11.11-.11.21 0 .71.28 1.32.71 1.42.93 3.27 1.28 5.12 1.28 2.17 0 4.34-.5 5.62-1.03.61-.21 1.21-.89 1.82-1.07zm-.11-13.2c-.28 0-.6-.04-.96-.14-.36-.11-.78-.18-1.21-.18-1.64 0-3.52.75-4.27 1.1-.28.11-.46.14-.57.14-.07 0-.11-.04-.11-.07 0-.11.18-.32.43-.5.07-.04 2.21-1.78 2.21-2.03 0-.11-.04-.18-.18-.25-.85-.46-1.92-.25-3.42-.36-2.95-.25-3.88-2.31-3.88-2.99 0-.11.04-.14.11-.14.14 0 .46.25.78.39.39.18 1 .28 1.74.28.6 0 1.32-.07 2.06-.18.85-.11 1.67-.18 2.42-.18 4.31 0 6.69 2.03 6.69 3.56 0 .96-.82 1.53-1.85 1.53zm22.07 11.1c0 2.85 3.42 3.99 6.26 3.99 1.85 0 3.52-.43 4.34-1.03.6-.43 1.21-.6 1.78-.6 1.25 0 2.28.93 2.28 2.03 0 2.13-3.1 3.56-7.19 3.56-4.63 0-9.25-1.96-9.25-6.55 0-1.46.53-3.2 2.03-5.27-3.67-2.53-4.98-8.26-6.48-9.32-.61-.39-.85-.68-.85-.85 0-.11.14-.18.36-.18.25 0 .61.07 1 .21 4.38 1.42 4.66 5.76 7.72 7.05-.43-1.14-.61-2.21-.61-3.17 0-3.38 2.42-5.66 6.37-6.05 1.03-.11 2.1-.14 3.31-.32 1.53-.18 3.1-.82 5.34-.82 2.81 0 3.38 1.21 3.38 1.89 0 .82-.82 1.64-2.56 1.81-1.78.18-2.78.5-4.02 1.07-1.71.78-5.55 2.99-8.61 5.84.11.11.25.21.39.28 1.46.46 2.35.89 2.35 1.92 0 1.53-1.92 1.85-3.27 1.85-1 0-1.89-.18-2.74-.57-.85 1.07-1.32 2.21-1.32 3.24zm10.96-14.88c.75-.64 1.17-.82 1.17-.85s0-.04-.04-.04c-.07 0-.39.07-.96.11-1.03.07-2.21.18-3.31.21-3.84.11-5.41 2.21-5.41 4.41 0 1.17.43 2.38 1.17 3.34 2.24-2.6 4.77-5.02 7.37-7.19z" fill="#231815" stroke-width="0"/></g></svg>