<svg data-name="レイヤー 2" xmlns="http://www.w3.org/2000/svg" viewBox="0 0 401.57 67.88"><g data-name="テキスト"><g stroke="#231815" stroke-miterlimit="10"><path d="M1 5.97h1.36c2 0 3.62-1.63 3.62-3.62V1H395.6v1.35c0 1.99 1.62 3.62 3.62 3.62h1.36v55.94h-1.36c-2 0-3.62 1.63-3.62 3.62v1.35H5.98v-1.35c0-1.99-1.62-3.62-3.62-3.62H1V5.97z" fill="#fff" stroke-width="2"/><path d="M5.49 9.83a8.127 8.127 0 004.35-4.35h381.9a8.16 8.16 0 004.35 4.35v48.22a8.16 8.16 0 00-4.35 4.35H9.83a8.127 8.127 0 00-4.35-4.35V9.83z" fill="none" stroke-width=".5"/></g><path d="M75.95 24.54h5.41c.06-1.2.06-2.4.06-3.66 0-.84-.06-1.91-.26-2.95v-.13c0-.06 0-.1.1-.1.13 0 5.25.68 5.25 1.42 0 .26-.32.52-.78.81-.55.36-.68.42-.68 1.26-.03 1.2-.06 2.3-.16 3.34h6.35c.32 0 .52-.29.55-.36.29-.42.87-1.04 1.07-1.23.13-.13.19-.23.42-.23.84 0 3.69 2.14 3.69 2.66 0 .29-.29.55-1 .87-.29.13-.32.49-.32.74-.03 1.36-.06 3.24-.06 5.28 0 5.15.16 9.36.26 11.04v.19c0 2.62-3.37 3.92-4.99 3.92-.45 0-.87-.19-1.17-.74-.55-1.07-4.27-3.14-4.27-3.43 0 0 .03-.03.06-.03s.1.03.16.03c1.75.39 3.01.55 3.95.55 1.75 0 2.33-.55 2.36-1.36.03-.58.03-1.46.03-2.56 0-3.92-.13-10.36-.16-13.76 0-.68-.23-.74-.65-.74h-6.38c-.23 1.78-.65 3.37-1.23 4.79 1.68.23 7.77 1.17 7.77 4.82 0 1.23-.87 2.17-1.94 2.17-.68 0-1.42-.39-2.1-1.36-1.04-1.52-1.88-3.5-3.92-5.15-1.49 3.21-4.05 5.5-8.29 7.12.03 2.23.06 4.5.06 6.57v1.46c-.03 1.13-1.2 1.78-2.3 1.78-.97 0-1.88-.52-1.88-1.68v-.16c.42-6.35.58-12.73.58-16.64s-.19-5.31-.45-6.44c-.03-.1-.03-.16-.03-.23s.03-.1.13-.1c.84 0 3.85 1.59 4.47 1.98.13.06.19.16.29.23zm-.55 1.33c-.26.16-.42.29-.42 5.28 0 1.75.03 3.76.06 5.8 4.5-3.33 5.89-7.22 6.25-11.56h-5.15c-.16.16-.45.32-.75.49zm31.56 4.3c-.45-.62-1.49-2.17-2.33-2.66-.32-.16-.49-.29-.49-.39 0-.26 1.33-.55 2.82-.55 3.66 0 3.66 2.46 3.66 2.62 0 1.1-.84 2.04-1.88 2.04-.58 0-1.23-.32-1.78-1.07zm.68 14.25c0-.13.03-.29.03-.45.13-1.42.45-2.53.45-3.37 0-.97-.45-1.62-2.17-2.07-.68-.16-1.1-.32-1.1-.49 0-.13.39-.23 1.26-.29 1.17-.06 1.81-.42 2.2-1.33.55-1.29 7.29-16.22 7.93-16.22.03 0 .03.03.03.06 0 .13-.1.45-.29 1.07-1.62 4.95-4.89 14.89-4.89 19.07 0 .81.16 1.59.55 2.62.23.62.32 1.13.32 1.62 0 1.65-1.2 2.49-2.2 2.49-1.07 0-2.14-.84-2.14-2.72zm1.62-21.37c-.39-.71-1.2-2.3-2.01-2.95-.16-.13-.42-.23-.42-.36 0-.23.97-.32 1.85-.32.62 0 4.4.03 4.4 2.85 0 1.17-.91 2.14-1.94 2.14-.65 0-1.36-.39-1.88-1.36zm20.6 18.46c-.13.87-.26 1.59-.42 2.01-1.33 3.72-4.37 4.01-5.12 4.01-.49 0-1.04-.26-1.2-.78-.45-1.49-2.88-3.08-2.88-3.33 0 0 .03-.03.06-.03.06 0 .13.03.26.06 1.52.45 2.59.65 3.37.65 1.36 0 2.04-.62 2.49-2.59h-7.84c-.1.71-.23 1.39-.32 1.98-.16.87-1.13 1.36-2.04 1.36-.84 0-1.59-.39-1.59-1.23 0-.16 0-.32.06-.49.84-3.01 1.39-5.96 1.78-8.52-.78.03-1.65.1-2.56.23h-.03c-.39 0-1.36-1.23-1.36-1.59 1.36.19 2.82.32 4.08.39.36-2.62.49-4.73.55-5.93v-.58c-1.85 1.91-3.11 2.95-3.27 2.95-.03 0-.06-.03-.06-.06 0-.1.13-.36.36-.74 2.59-4.34 3.92-9.97 3.98-11.49 0-.29.1-.32.19-.32 1.13 0 4.95 1.55 4.95 2.33 0 .36-.42.62-1.23.84-.26.06-.49.29-.68.74-.23.45-.45.91-.71 1.36h6.22c.26 0 .45-.16.55-.32.36-.62 1.78-2.66 2.36-2.66.1 0 .16 0 .23.03 1.72.65 3.5 2.78 3.5 3.33 0 .19-.16.36-.71.36H120.2c-.49.71-1 1.42-1.55 2.07.87.39 1.91.97 2.49 1.49l.16.13h5.41c.36 0 .49-.1.58-.26.42-.68 1.3-1.36 1.42-1.36.55 0 3.46 2.1 3.46 2.78 0 .23-.16.45-.49.58-.74.32-.97.42-1 1.23l-.19 3.56c.1-.03.26-.13.32-.26.55-1.17 1.26-2.53 1.65-2.53.65 0 2.72 2.66 2.72 3.27 0 .19-.13.36-.62.36h-4.11c-.13 2.01-.29 4.31-.52 6.15.19-.03.36-.16.42-.29.74-1.26 1.42-2.36 1.98-2.36.1 0 .16 0 .23.03 1.23.84 2.56 2.66 2.56 3.08 0 .19-.16.36-.71.36h-4.57zm-8.91-.78c.36-2.2.62-4.31.81-6.18h-2.17l-.91 6.18h2.27zm.88-6.99c.26-2.46.39-4.4.49-5.31 0-.13.03-.26.03-.39h-1.04c-.1.1-.23.19-.39.26-.26.13-.36.45-.39.49-.19.52-.49 2.53-.84 4.95h2.14zm4.75 6.99c.29-1.68.45-4.02.58-6.18h-2.46l-.65 6.18h2.53zm.65-6.99c.1-2.36.1-4.47.1-5.21 0-.42-.1-.49-.39-.49h-.91c.16.13.26.23.26.32 0 .23-.32.45-.68.65-.26.13-.29.32-.32.36-.06.03-.26 1.91-.49 4.37h2.43zm29.7 5.66c0 1.1-1.33 1.49-1.94 1.49-.78 0-1.49-.39-1.49-1.26v-.03c0-.45.03-.94.03-1.52h-6.64c0 1.2.03 2.2.03 2.95v.03c0 1-1.3 1.52-2.14 1.52s-1.55-.39-1.55-1.26v-.16c.36-3.63.42-8.32.42-11.98 0-2.36-.03-4.31-.03-5.28 0-.39-.13-3.46-.39-4.57 0-.06-.03-.1-.03-.13 0-.1.06-.13.13-.13.52 0 3.14 1.04 4.05 1.65.06.06.13.1.16.16h5.34c.32 0 .42-.16.45-.19.26-.32.45-.65.78-1 .19-.19.29-.36.55-.36.78 0 3.27 1.88 3.27 2.2 0 .16-.16.39-.65.71-.65.45-.58.65-.62 1.07v.19c2.46.26 6.54.32 8.32.32.55 0 .78-.06.87-.26 1.52-2.56 1.81-2.85 2.14-2.85.06 0 .13 0 .19.03 1 .39 3.46 2.69 3.46 3.56 0 .19-.16.39-.68.39h-5.57c.94.32 1.23.45 1.23.68 0 .19-.23.42-.68.62-.29.13-.39.26-.42.45-.03.32-.03 1.91-.03 4.05 0 5.44.1 12.11.16 12.6 0 .1.03.19.03.29 0 2.07-2.78 3.98-5.02 3.98-.42 0-.65-.16-.94-.74-.84-1.65-4.4-3.24-4.4-3.5 0-.03.03-.06.1-.06.03 0 .1.03.19.03 1.75.29 3.08.42 4.05.42 1.52 0 2.2-.32 2.23-.87.03-.45.03-4.24.03-8.03 0-8.16 0-8.29-.19-9.91-1.49.03-3.08.16-4.31.32h-.06c-.19 0-.49-.19-.75-.42 0 .81-.03 1.85-.03 3.01 0 3.89.1 9.07.32 11.66v.13zm-8.22-10.75c0-2.43-.03-4.53-.03-4.92-.03-.84 0-1.26-.1-2.01h-1.2l-.23.19c-.16.06-.16.1-.16.42-.06.94-.13 3.4-.13 6.31h1.85zm-.03 8.58c0-1.33.03-4.69.03-7.74h-1.85c0 2.59 0 5.41.03 7.74h1.78zm4.92-8.58c0-2.72 0-5.18-.03-6.38 0-.52-.19-.55-.58-.55h-1.07c.78.19.81.42.81.45 0 .16-.16.36-.68.58-.39.19-.39.94-.39 5.89h1.94zm-.07 8.58c.03-2.23.06-5.08.06-7.74h-1.94c0 3.08.03 6.35.03 7.74h1.85zm66.74 8.23c0 1.13-1.36 1.68-2.3 1.68s-1.85-.45-1.85-1.46v-.06c0-.52.03-1.07.03-1.65h-16.38c0 .78.03 1.33.03 1.55v.03c0 1.1-1.26 1.59-2.23 1.59s-1.85-.45-1.85-1.49v-.13c.26-3.69.36-8.65.36-20.53-.03-1.42-.19-3.5-.45-4.47-.03-.1-.03-.16-.03-.19 0-.1.03-.13.16-.13.81 0 4.47 1.72 4.86 2.1h14.86c.32 0 .55-.36.58-.42 1-1.33 1.13-1.42 1.39-1.42.55 0 3.76 1.78 3.76 2.69 0 .29-.32.55-1.04.91-.29.16-.32.52-.32.74 0 .42-.03 1.42-.03 2.78 0 4.44.1 12.69.45 17.81v.06zm-14.34-13.18c0-2.85-.03-7.71-.23-9.2h-4.99c-.16.13-.39.26-.65.39-.45.26-.45.42-.45 5.99v2.82h6.31zm-.1 10.91c.06-3.82.1-7.29.1-10.1h-6.28l.13 10.1h6.05zm10.36-10.91c-.03-3.66-.03-6.93-.1-8.65 0-.52-.32-.55-.65-.55h-5.41l.19.06c.29.1.45.23.45.36 0 .19-.23.39-.71.62-.23.1-.39.23-.42.58-.06 1.2-.13 4.02-.16 7.58h6.8zm-.03 10.91c.03-2.98.03-6.67.03-10.1h-6.8c0 3.11.03 6.67.13 10.1h6.64zm29.45 3.72c-.87-1.49-3.89-3.17-3.89-3.4h.03s.13 0 .23.03c2.23.62 3.85.94 5.12.94 1.72 0 2.66-.65 3.4-2.07.91-1.75 1.49-5.12 1.49-5.41 0-.19-.1-.32-.52-.32h-11.69c1.36.23 1.72.32 1.72.68 0 .16-.19.36-.52.52-.55.29-.58.32-.58 3.17v.78h3.63c.03-.45.07-1 .07-1.49 0-.42-.1-1.78-.29-2.59-.03-.06-.03-.13-.03-.19 0-.13.06-.16.19-.16.49 0 4.79.58 4.79 1.26 0 .26-.52.55-.91.81-.29.19-.39.45-.39.84 0 .52.13 1.13.16 1.81v.06c0 .97-1.04 1.55-2.01 1.55-.75 0-1.46-.36-1.59-1.2H233.3l.13 1.62v.1c0 1.17-1.52 1.59-2.14 1.59-.81 0-1.52-.39-1.52-1.36v-.1c.03-.78.13-1.98.13-3.01v-.39c0-.52-.1-1.91-.32-2.91-.03-.06-.03-.13-.03-.19 0-.13.1-.19.23-.19.23 0 4.76.62 4.76 1.33 0 .29-.52.58-.91.84-.26.16-.39.39-.39 1.49v.49h3.85c0-.62-.03-1.42-.03-2.17 0-.62-.07-1.94-.23-2.88-.19.81-1.23 1.29-2.17 1.29s-1.72-.42-1.72-1.36v-.13c.26-3.4.39-7.58.39-10.69 0-2.17-.07-4.34-.39-5.89-.03-.1-.03-.16-.03-.19 0-.06 0-.1.06-.1s3.85 1.39 4.73 2.01l.16.13h1.17c.03-1.04.07-2.49.07-3.08 0-.65-.07-1-.16-1.52 0-.03-.03-.1-.03-.13 0-.06.06-.1.1-.1s.1.03.13.03c1.1.13 5.21 1.23 5.21 2.33 0 .29-.32.49-.91.49h-.32c-.32 0-.45.16-.65.36-.58.55-1.23 1.13-1.81 1.62h5.15c.26 0 .36-.13.39-.19 1.2-1.49 1.46-1.49 1.52-1.49.32 0 3.59 1.59 3.59 2.33 0 .19-.16.45-.65.78-.71.49-.71.52-.71 1.46 0 1.39.16 4.05.26 5.05v.06c0 1.07-1.26 1.59-2.17 1.59s-1.68-.42-1.68-1.36v-.19h-9.52v2.69l13.5.03c.26 0 .45-.16.55-.32.45-.71 1.88-2.69 2.36-2.69.06 0 .13 0 .19.03 1.75.65 3.4 2.65 3.4 3.4 0 .19-.13.39-.68.39l-19.33-.03c0 1 .03 1.88.03 2.46h14.34c.36 0 .49-.13.58-.29.42-.68 1.2-1.55 1.52-1.55.42 0 3.92 1.94 3.92 2.91 0 .29-.26.55-.84.78-.81.29-.81.49-.94 1.36-.03.29-.71 3.01-1.42 4.63-1.07 2.49-3.63 4.11-6.83 4.11-1.04 0-1.46-.68-1.59-.87zm-8.77-17.87h9.52c0-.78.03-1.81.03-2.85h-9.55v2.85zm.65-6.28c-.42.32-.58.26-.62 1.52v1.07h9.55v-2.07c0-.49-.29-.58-.65-.58h-8.22l-.06.06zm43.78 6.38c0 8.22-6.64 14.83-10.07 14.83-1.26 0-2.23-.78-2.33-2.91-.03-1.04-.45-1.59-1.13-2.27-1.04-1.07-1.72-2.4-1.72-4.02 0-4.18 5.99-11.33 13.28-11.33 7.9 0 11.46 6.99 11.46 12.21 0 7.51-8.26 9.78-14.96 9.78-.84 0-1.36-.06-1.36-.19 0-.1.52-.23 1.72-.36 7.19-.65 10.98-3.59 10.98-9.94 0-8.77-4.76-10.33-7.38-10.46.84.55 1.52 1.62 1.52 4.66zm-12.14 5.53c0 1.52.97 5.08 2.75 5.08 2.36 0 8.09-7.03 8.09-12.34 0-1.26-.36-2.4-1.04-2.56-.42-.1-.62-.19-.68-.32-5.25.78-9.13 6.15-9.13 10.13zm45.38 6.12c.71-.23 1.33-.32 1.84-.32 1.36 0 2.11.68 2.11 1.52 0 1.78-3.11 3.76-7.77 3.76-6.48 0-8.9-4.63-8.9-4.76 0-.06.03-.1.1-.1.19 0 .65.26 1.2.65 1.3.84 2.98 1.17 4.66 1.17 1.97 0 3.95-.45 5.12-.94.55-.19 1.1-.81 1.65-.97zm-.09-12.01c-.26 0-.55-.03-.87-.13-.32-.1-.71-.16-1.1-.16-1.49 0-3.21.68-3.89 1-.26.1-.42.13-.52.13-.06 0-.1-.03-.1-.06 0-.1.16-.29.39-.45.06-.03 2.01-1.62 2.01-1.85 0-.1-.03-.16-.16-.23-.78-.42-1.75-.23-3.11-.32-2.69-.23-3.53-2.1-3.53-2.72 0-.1.03-.13.1-.13.13 0 .42.23.71.36.36.16.91.26 1.59.26.55 0 1.2-.06 1.88-.16.78-.1 1.52-.16 2.2-.16 3.92 0 6.09 1.85 6.09 3.24 0 .87-.74 1.39-1.68 1.39zm21.44 10.1c0 2.59 3.11 3.63 5.7 3.63 1.68 0 3.21-.39 3.95-.94.55-.39 1.1-.55 1.62-.55 1.13 0 2.07.84 2.07 1.85 0 1.94-2.82 3.24-6.54 3.24-4.21 0-8.42-1.78-8.42-5.96 0-1.33.49-2.91 1.85-4.79-3.33-2.3-4.53-7.51-5.89-8.48-.55-.36-.78-.62-.78-.78 0-.1.13-.16.32-.16.23 0 .55.06.91.19 3.98 1.29 4.24 5.25 7.03 6.41-.39-1.04-.55-2.01-.55-2.88 0-3.08 2.2-5.15 5.8-5.5.94-.1 1.91-.13 3.01-.29 1.39-.16 2.82-.74 4.86-.74 2.56 0 3.08 1.1 3.08 1.72 0 .75-.75 1.49-2.33 1.65-1.62.16-2.53.45-3.66.97-1.55.71-5.05 2.72-7.84 5.31.1.1.23.19.36.26 1.33.42 2.14.81 2.14 1.75 0 1.39-1.75 1.68-2.98 1.68-.91 0-1.72-.16-2.49-.52-.78.97-1.2 2.01-1.2 2.95zm9.98-13.53c.68-.58 1.07-.74 1.07-.78s0-.03-.03-.03c-.07 0-.36.06-.87.1-.94.06-2.01.16-3.01.19-3.5.1-4.92 2.01-4.92 4.02 0 1.07.39 2.17 1.07 3.04 2.04-2.36 4.34-4.57 6.7-6.54z" fill="#231815" stroke-width="0"/></g></svg>