<svg data-name="レイヤー 2" xmlns="http://www.w3.org/2000/svg" viewBox="0 0 60.01 122.83"><g data-name="テキスト"><path fill="none" stroke="#251e1c" stroke-miterlimit="10" d="M31.76 122.83v-82l-5.15 9.91"/><path d="M4.12 16.8c-.17 0-.23-.11-.23-.23s.08-.32.21-.4c2.12-.32 2.25-.4 2.29-3.28.02-1.2.02-2.81.02-4.47 0-3.32-.04-5.56-.06-5.94-.04-.74-.4-.76-.8-.76-.69 0-1.09.04-1.51.1-1.07.17-2.81 1.74-3.4 3.02-.02.04-.17.08-.29.08-.17 0-.34-.04-.34-.19v-.04C.21 3.67.97 1.57.97.4V.36c0-.17.19-.23.38-.23.13 0 .25.02.27.08.27.8 1.32.84 1.85.84 1.36.02 2.98.04 4.51.04 5.31 0 5.98-.13 6.91-1.03.04-.04.1-.06.19-.06.17 0 .34.08.34.25v.06c-.06.36-.06 1.49-.06 2.08 0 .48.02.99.02 1.45 0 .65-.02.92-.42.92-.1 0-.19-.04-.21-.15-.5-2.1-1.87-2.9-4.41-2.9-.71 0-.82.1-.84.82l-.06 2.46c-.02.42-.02 1.26-.02 2.25 0 1.97.02 4.54.02 5.69 0 2.25.02 3 2.27 3.23.1.08.17.25.17.4 0 .12-.04.23-.17.23-.02 0-2.27-.17-4.49-.17-1.11 0-2.23.04-3.02.17h-.06zm27.56.27c-5.52 0-8.73-3.86-8.73-8.15 0-4.58 3.8-8.31 8.84-8.31 5.31 0 8.65 3.76 8.65 8.31s-3.15 8.15-8.75 8.15zm5.35-7.6c0-3.59-1.41-8.15-5.46-8.15-3.55 0-5.21 3.51-5.21 7.03 0 2.65.97 8 5.48 8 3.61 0 5.19-3.11 5.19-6.89zm11.01 7.33c-.17 0-.23-.08-.23-.21 0-.15.08-.34.21-.42 1.64-.17 1.68-1.18 1.68-2.88v-.21c.02-.8.02-3.28.02-5.44 0-1.6 0-3.02-.02-3.55-.06-1.99-.36-2.31-1.74-2.46-.15-.1-.19-.21-.19-.32 0-.17.13-.31.21-.31.71.04 1.34.06 1.95.06 1.24 0 2.35-.06 3.65-.12.19 0 .38-.02.57-.02 2.92 0 5.86.99 5.86 4.28 0 4.24-4.26 4.51-6.43 4.51-.17 0-.25-.12-.25-.25 0-.17.11-.34.25-.34h.06c1.74 0 3.19-1.53 3.19-3.53 0-.46-.1-3.99-3.17-3.99h-.08c-.5 0-.88.02-.88 2.48-.02 1.28-.02 3.3-.02 5.17 0 1.53 0 2.98.04 3.82.08 1.91-.27 2.9 2.02 3.07.13.1.17.25.17.38 0 .15-.06.27-.19.27-.02 0-1.93-.17-3.91-.17-.96 0-1.95.04-2.71.17h-.06z" stroke-width="0"/></g></svg>