<?xml version="1.0" encoding="UTF-8"?>
<svg id="_レイヤー_2" data-name="レイヤー 2" xmlns="http://www.w3.org/2000/svg" viewBox="0 0 609.89 76.75">
  <defs>
    <style>
      .cls-1 {
        fill: #231815;
        stroke-width: 0px;
      }

      .cls-2 {
        fill: none;
        stroke: #88c0cf;
        stroke-miterlimit: 10;
        stroke-width: 8px;
      }
    </style>
  </defs>
  <g id="_テキスト" data-name="テキスト">
    <g>
      <g>
        <path class="cls-1" d="M49.4,24.67c0,.36-.26.72-1.19.72h-23.64c-2.94,0-13.78.15-18.53.62h-.05c-.98,0-2.58-2.27-2.58-2.94,5.42.67,18.33.93,21.37.93h12.54c.36,0,.83-.21.98-.46.21-.31,3.36-5.37,4.49-5.37.16,0,.26,0,.36.05,1.76.62,6.25,5.01,6.25,6.45Z"/>
        <path class="cls-1" d="M74.6,19.98h4.18l-.15-5.68c0-.46-.21-2.37-.52-3.92h-5.88c-7.43,9.45-15.33,12.29-16.05,12.29q-.05,0-.05-.05c0-.1.31-.41,1.03-1.03,5.06-4.23,12.34-14.56,12.6-21.06,0-.52.16-.52.26-.52,1.34,0,7.9,2.94,7.9,4.39,0,.57-.72,1.03-2.01,1.29-.41.1-.77.41-1.08.98l-1.6,2.43h16c.36,0,.67-.21.83-.46.57-1.03,1.96-2.74,3.46-4.13.1-.1.36-.15.57-.15,1.6,0,5.88,4.13,5.88,5.47,0,.31-.26.57-1.14.57h-13.47c.62.21.88.46.88.72,0,.41-.57.83-1.08,1.08-.62.36-.57.36-.62.98-.1,1.6-.15,3.97-.15,6.81h2.12c.36,0,.67-.21.83-.46.57-1.03,1.81-2.63,3.3-4.03.1-.1.36-.15.57-.15,1.45,0,5.99,4.03,5.99,5.32,0,.31-.26.62-1.19.62h-11.61c0,3.3.05,7.23.1,11.2l7.28-.05c.31,0,.67-.21.83-.46.57-.98,2.17-3.05,3.56-4.34.1-.1.36-.15.57-.15,1.34,0,5.99,4.18,5.99,5.68,0,.31-.26.57-1.14.57h-17.09c.05,3.72.21,7.54.31,11.1v.05c0,1.55-1.6,2.99-3.51,2.99-1.45,0-2.79-.83-2.79-2.68v-.15c.15-3.67.21-7.54.26-11.3h-3.77c-2.84,0-11.92.1-16.47.57h-.05c-.93,0-2.32-2.01-2.32-2.68,2.63.31,6.71.57,10.48.67.05-2.01.1-4.28.1-6.09,0-1.08,0-6.14-.52-8.47-.05-.21-.1-.36-.1-.52,0-.21.1-.31.31-.31.67,0,7.18,2.06,8.21,3.1ZM73.36,21.89c-.83.36-.88.52-.88,6.81,0,1.24,0,2.53.05,3.72h2.68l3.56.05c.05-2.01.05-3.97.05-5.88s0-3.67-.05-5.32h-4.34c-.26.21-.57.41-1.08.62Z"/>
        <path class="cls-1" d="M118.59,13.01h8.52c0-.93-.05-1.81-.05-2.63-.05-3.05,0-6.3-.62-9.24-.05-.21-.05-.36-.05-.46,0-.21.1-.31.31-.31.15,0,3.72.31,7.74,1.55.83.26,1.24.62,1.24,1.03,0,.52-.62,1.08-1.7,1.5-.67.26-.83,1.45-.93,8.57h9.5c.52,0,.83-.52.88-.62,1.45-2.06,1.86-2.27,2.27-2.27,1.08,0,5.94,2.79,5.94,3.82,0,.46-.46.88-1.6,1.39-.46.21-.52.83-.52,1.19-.05.62-.05,1.29-.05,2.06,0,3.36.26,7.9.52,10.69v.21c0,1.81-2.22,2.63-3.61,2.63s-2.84-.72-2.84-2.37v-.05l.05-1.81h-10.48c.1,6.04.31,12.18.52,16.98v.1c0,1.76-2.27,2.74-4.03,2.74-1.6,0-3.05-.72-3.05-2.43v-.26c.31-4.7.46-11,.57-17.14h-9.76c.05.77.1,1.5.1,2.17v.05c0,1.6-1.81,2.53-3.51,2.53-1.5,0-2.84-.72-2.84-2.32v-.31c.41-4.18.52-8.21.52-11,0-4.96-.62-8.05-.77-8.67,0-.1-.05-.21-.05-.31,0-.15.05-.21.26-.21.41,0,5.06,1.55,7.54,3.2ZM117.56,14.97c-.31.15-.41.98-.41,3.51,0,2.37.1,5.42.21,8.16h9.76c.05-2.22.05-4.44.05-6.5s0-4.13-.05-5.88h-8.31c-.31.26-.77.46-1.24.72ZM143.58,26.64c.05-2.37.1-5.27.1-7.95,0-1.24,0-2.43-.05-3.51,0-.93-.36-.93-1.14-.93h-9.45v3.36c0,2.79,0,5.88.05,9.03h10.48Z"/>
        <path class="cls-1" d="M184.72,31.28c3.61,4.96,11.98,8.31,21.78,9.14.15,0,.21.05.21.1,0,.36-5.27,2.17-7.74,4.49-.41.41-.83.57-1.29.57-2.89,0-11.2-6.04-13.37-13.16,0,.83-.05,1.7-.05,2.58,0,3.97.21,8.16.41,10.32v.1c0,1.39-1.7,2.53-3.67,2.53-1.39,0-2.68-.62-2.68-2.12,0-.1.05-.21.05-.36.26-2.06.41-6.09.41-9.39-6.97,6.61-12.7,8.57-20.23,10.22-.41.1-.67.1-.93.1-.21,0-.36-.05-.36-.1,0-.21.36-.46,1.08-.72,6.81-2.79,14.04-9.14,18.02-14.3h-7.79c-2.53,0-3.51.05-7.54.52h-.05c-.83,0-2.32-1.96-2.32-2.58,4.65.62,7.54.77,10.12.77h9.96c0-1.6-.05-3.25-.46-5.06-.57.72-1.7,1.14-2.74,1.14-1.29,0-2.43-.57-2.43-1.86v-.26c.21-2.32.26-5.01.31-7.33-1.7,2.01-5.32,5.37-8.67,8.62-.21.21-.26.72-.67.72-1.19,0-5.01-4.7-5.01-5.37,0-.15.15-.15.41-.21,3.41-.31,12.08-3.82,13.83-4.75.05-.05.1-.1.15-.1v-4.13c0-.62-.1-3.1-.46-4.75,0-.1-.05-.15-.05-.26s.05-.15.15-.15c.93,0,4.39,1.76,5.58,2.48.1-1.76.26-4.8.26-5.73,0-1.03-.15-1.6-.31-2.43,0-.05-.05-.15-.05-.21,0-.1.1-.15.21-.15.88,0,8.21,1.81,8.21,3.41,0,.41-.52.72-1.7.83-.62.05-.83.36-1.14.72-.98,1.19-2.27,2.63-3.3,3.61h2.94c.15,0,.52,0,.77-.31,1.5-1.91,1.6-1.91,1.81-1.91.77,0,5.27,2.53,5.27,3.41,0,.26-.21.57-.83.98-1.03.72-1.08.46-1.08,1.08v.77c0,2.32.21,7.69.41,10.63v.1c0,1.65-2.12,2.22-3.1,2.22-1.19,0-2.27-.57-2.27-1.81v-1.03h-6.14v.98c0,.15,0,.31-.05.41h.21c3.56.41,7.59.88,7.59,2.06,0,.41-.46.88-1.29,1.24-.52.26-.52.36-.57,1.03l-.1,1.34h9.65c.31,0,.67-.15.83-.41,1.03-1.6,2.74-4.18,3.46-4.18,1.03,0,5.78,4.08,5.78,5.21,0,.31-.26.67-1.08.67h-18.33ZM165.26,11.72c-.52-.88-2.22-3.36-4.13-5.01-.26-.21-.57-.41-.57-.57,0-.21.77-.26,1.6-.26,3.41,0,9.24.93,9.24,4.75,0,1.76-1.45,3.15-3.1,3.15-1.03,0-2.17-.57-3.05-2.06ZM179.14,10.07c-.1.1-.21.21-.31.26q-.26.15-.26.57c-.05,1.14-.05,2.53-.05,4.03h6.35q0-4.85-.98-4.85h-4.75ZM178.53,16.21c0,1.81.05,3.72.05,5.37h6.25c0-1.7.05-3.61.05-5.37h-6.35ZM202.12,11c-.21,0-.46,0-.72-.05-.26-.05-.46-.1-.62-.1s-.31,0-.46.1c-1.29.57-9.5,2.84-9.55,2.84-.1,0-.15,0-.15-.1s.05-.21.26-.41c2.38-2.43,5.73-7.23,5.99-8.52.05-.26.1-.41.21-.41.57,0,6.19,4.23,6.19,5.99,0,.46-.46.67-1.14.67ZM196.64,23.64c-1.91-2.37-3.05-3.87-4.9-5.47-.26-.26-.72-.41-.72-.46s.26-.1,1.03-.1c3.41,0,10.69.05,10.69,4.7,0,1.7-1.29,3.15-2.94,3.15-.98,0-2.12-.52-3.15-1.81Z"/>
        <path class="cls-1" d="M219.26,33.91c0-6.19,2.48-13.32,3.3-18.17.26-1.65.41-3.25.41-4.59,0-2.22-.41-3.72-1.65-4.59-.52-.41-.72-.77-.72-1.03,0-.36.52-.57,1.29-.57,3.25,0,7.02,2.84,7.02,7.07,0,1.34-.31,2.79-.67,4.28-1.03,4.28-5.37,12.34-5.37,18.02,0,2.63.93,6.5,8,6.5,9.19,0,17.29-7.59,19.1-16.36.26-1.14.52-1.76.67-1.76.1,0,.21.21.21.72,0,.31-.05.67-.1,1.19-1.34,11.92-9.7,21.47-19.31,21.47-2.84,0-12.18-.88-12.18-12.18Z"/>
        <path class="cls-1" d="M283.48,14.09c11.41,1.24,14.35,11,14.35,15.23,0,8.72-9.24,16-25.66,16-.83,0-1.24-.05-1.24-.1,0-.15,1.19-.41,3.3-.77,12.44-2.01,17.96-8.1,17.96-15.54,0-4.49-1.75-11.56-8.62-13.01v.98c0,4.8-1.34,9.5-3.82,13.47,1.6,1.03,2.22,2.37,2.22,3.46,0,1.76-1.5,2.12-2.17,2.12-1.03,0-2.27-.57-3.36-1.45-3.25,3.15-6.87,5.06-9.4,5.06-1.91,0-3.05-1.08-3.05-2.94,0-.31.05-.62.1-.98s.1-.62.1-.88c0-1.86-1.6-1.86-1.6-4.44,0-.88.31-7.28,6.45-12.08l-.1-.52c-1.24-5.11-2.27-7.12-5.16-9.81-.62-.57-1.08-1.03-1.08-1.24,0-.1.1-.15.21-.15.26,0,6.04,1.03,8.72,9.91v.1c2.68-1.45,5.73-2.32,8.78-2.48,0-.62-.05-1.24-.15-1.86-.36-2.48-1.34-4.75-3.25-5.94-.36-.26-.52-.41-.52-.46,0-.1.21-.15.72-.15,1.6,0,5.06,2.01,5.99,6.81l.26,1.65ZM266.5,29.84c0,3.87,1.55,4.08,2.12,4.08,1.96,0,4.18-1.91,4.96-2.63-1.86-2.89-2.84-6.4-3.82-10.32-1.96,2.37-3.25,5.37-3.25,8.88ZM272.33,18.58c1.08,3.3,2.32,6.56,4.28,8.98,2.17-3.25,3.72-7.48,3.82-11.92-2.79.15-5.68,1.19-8.1,2.94Z"/>
        <path class="cls-1" d="M336.1,31.18c0-5.63-4.39-7.54-7.79-7.54-2.74,0-5.83,1.19-8.78,4.28-1.08,1.14-2.43,4.03-3.1,5.99-.62,1.76-3.51,4.59-5.94,4.59-1.08,0-1.86-.57-1.86-1.65,0-3.97,14.92-19.2,20.29-23.95.67-.57,1.19-1.29,1.19-1.86,0-.88-1.03-1.14-1.39-1.14-1.65,0-3.46,2.58-4.65,3.72-1.24,1.14-2.43,1.6-3.51,1.6-2.37,0-4.23-2.27-4.23-5.21,0-.52.05-1.55.41-1.55.26,0,.52.21.88.46,1.5,1.03,2.48,1.6,3.36,1.6.52,0,.98-.15,1.5-.52,1.65-1.08,4.34-3.77,7.64-3.77s5.68,2.22,5.68,4.44c0,1.14-.72,2.22-2.38,2.68-.88.26-1.81.41-2.99,1.24-3.92,2.63-10.53,10.69-10.53,11,0,.05.05.05.05.05.1,0,.26-.1.41-.26,2.37-2.22,6.09-3.56,9.76-3.56,8.62,0,11.36,6.66,11.36,10.79,0,5.47-4.39,12.7-15.33,12.7-5.11,0-8.72-2.74-8.72-6.3,0-.52.05-4.54,4.75-4.54,2.84,0,5.83,1.81,5.83,4.49,0,1.65-.83,2.37-1.19,2.58,6.92-.83,9.29-6.25,9.29-10.38ZM323.14,40.16c0-.21.05-.46.1-.72.1-.31.1-.62.1-.93,0-1.24-.77-1.86-1.6-1.86-.88,0-1.7.72-1.7,1.86s.83,2.79,3.77,3.1c-.41-.31-.67-.77-.67-1.45Z"/>
        <path class="cls-1" d="M352.8,25.97s-.05-.05-.05-.1c0-.15.1-.46.21-1.03.77-3.3,1.45-10.74,1.45-14.92,0-1.96-.16-3.51-.21-3.67-.1-.36-.15-.57-.15-.72,0-.1.05-.15.21-.15.67,0,5.32.88,6.5,1.5-.1-1.6-.31-3.82-.67-5.27-.05-.1-.05-.21-.05-.31,0-.26.15-.36.41-.36.83,0,8,1.7,8,2.89,0,.46-.77.93-1.39,1.29-.46.26-.67.67-.67.72-.21.72-.26,4.28-.31,8.93.26-.05.36-.26.46-.46,1.5-2.68,1.91-3.25,2.43-3.25.05,0,.16.05.21.05,2.12.88,3.82,3.51,3.82,4.28,0,.36-.26.67-.98.67h-5.99c0,2.48.05,5.27.05,8.05,1.7-.52,3.41-1.08,4.9-1.65.98-.36,1.5-.57,1.7-.57.05,0,.1.05.1.05,0,.21-3.25,2.99-4.18,3.77,4.7.52,12.54.67,15.43.67h.88v-.57c-.05-1.6-.21-4.54-.41-6.45h-2.99c-2.99,0-7.33.05-11.51.52h-.05c-.88,0-2.38-1.96-2.38-2.63,3.56.46,8.31.72,11.67.77v-7.02c-1.81.05-3.2.15-6.61.52h-.05c-.88,0-2.37-1.96-2.37-2.63,3.97.46,6.61.67,9.03.72,0-.41-.05-.77-.05-1.19-.05-1.96-.15-4.9-.62-7.18-.05-.1-.05-.21-.05-.31,0-.21.16-.26.41-.26.16,0,7.9.77,7.9,2.06,0,.46-.72.93-1.29,1.29-.72.41-.88.67-.88,5.63h.93c.41,0,.72-.21.88-.46.72-1.14,2.79-3.87,3.51-3.87.1,0,.21,0,.31.05,2.22.83,5.16,3.72,5.16,4.96,0,.31-.21.62-1.08.62h-9.7c0,2.63,0,5.57.05,7.12h4.18c.36,0,.67-.26.83-.52.72-1.24,2.99-3.92,3.61-3.92.1,0,.21,0,.31.05,2.38.93,5.21,4.03,5.21,5.01,0,.36-.21.67-1.03.67h-10.01c3.36.62,4.8,1.03,4.8,1.65,0,.36-.62.83-1.34,1.29-.52.31-.57.67-.57.72-.1.46-.15,1.7-.15,3.36.31-.05.57-.26.72-.46,1.65-2.79,2.27-3.61,2.84-3.61.15,0,.26.05.36.05,1.75.62,4.18,3.87,4.18,4.75,0,.31-.21.62-1.03.62h-7.07l.21,8.16c.05,2.99.1,4.8.1,5.63v.1c0,5.94-6.81,6.25-7.33,6.25-.72,0-1.45-.26-1.86-1.14-1.24-2.32-6.19-4.39-6.19-4.75,0,0,.05-.05.15-.05.05,0,.16.05.31.05,2.48.36,4.29.52,5.58.52,2.84,0,3.3-.77,3.3-2.06,0-1.6.1-5.94.1-10.43v-2.27h-1.08c-2.99,0-9.4,0-13.58.46h-.05c-.72,0-1.81-1.14-2.22-2.01-.62.52-1.24.98-1.91,1.45.05,8.78.21,16.88.21,17.19v.05c0,1.5-1.6,2.68-3.25,2.68-1.29,0-2.48-.72-2.48-2.43v-.1c.1-3.05.16-8.47.26-14.51-1.29.88-2.43,1.65-3.46,2.27-.36.21-.52,1.24-1.14,1.24-1.45,0-4.9-5.83-4.9-6.09s.31-.26,1.03-.36c2.12-.26,5.52-1.14,8.52-1.91.05-3.25.05-6.56.05-9.6h-2.58c-2.22,6.5-5.47,9.91-5.52,9.91ZM360.49,8.72c-.15.1-.41.31-.46.72-.21,1.29-.62,3.2-1.29,5.32h2.17c0-2.27-.05-4.39-.1-6.25l-.31.21ZM382.43,35.31c0,1.81-1.34,3.2-2.94,3.2-1.03,0-2.12-.57-3.05-2.01-.72-1.14-2.22-3.72-3.67-4.75-.72-.52-1.03-.77-1.03-.93,0-.26,2.12-.26,2.63-.26,7.69,0,8.05,3.82,8.05,4.75Z"/>
        <path class="cls-1" d="M429.47,26.33c0,.36-.26.72-.83.93-1.08.41-1.5.62-1.55,1.5-.15,1.96-.57,7.23-1.5,10.58-1.5,5.37-5.47,7.33-8.41,7.33-.98,0-1.6-.31-1.91-1.14-.62-1.91-3.77-4.34-4.08-4.96-3.72,4.54-8.31,6.56-8.72,6.56q-.05,0-.05-.05c0-.15.31-.57,1.03-1.29,7.69-8,9.34-21.37,9.34-26.27,0-1.08-.05-1.81-.1-2.37h-.21l.05.67v.05c0,1.5-1.7,2.43-3.3,2.43-1.39,0-2.63-.67-2.63-2.17v-.26c.26-3.2.31-4.75.31-6.19,0-5.32-.31-7.85-.57-9.34,0-.1-.05-.15-.05-.21,0-.15.05-.21.21-.21.46,0,5.11,1.76,6.71,2.84l.26.21h6.97c.15,0,.36,0,.62-.36.36-.52,1.08-1.5,1.55-2.06.21-.21.26-.41.57-.41.83,0,5.58,2.94,5.58,4.03,0,.31-.21.72-.98,1.29-1.14.83-1.14.93-1.14,1.86v.52c0,1.91.21,4.54.41,7.64v.05c0,.98-1.24,2.27-3.46,2.27-1.24,0-2.32-.52-2.32-1.65v-.98h-2.43l.77.31c.41.21.67.41.67.62s-.31.41-.93.67c-.93.36-.77.83-.83,1.29-.16,1.6-.31,3.25-.62,4.85h2.63c.62,0,.77-.15.98-.36,1.81-1.91,2.06-2.01,2.32-2.01.67,0,5.63,2.53,5.63,3.82ZM420.79,26.17h-3.15c-1.08,5.21-3.05,10.17-6.35,14.25.1,0,.21,0,.36.05,2.01.62,3.51.88,4.65.88,2.17,0,2.94-1.14,3.61-3.15,1.29-3.72,1.6-8.88,1.65-11.36,0-.41,0-.67-.77-.67ZM420.53,6.25h-7.38l-.26.26c-.21.15-.36.31-.36.72-.05,1.76-.1,3.41-.1,5.06,0,1.19.05,2.32.05,3.51h8.78c.05-2.48.05-4.8.05-6.66v-2.06c0-.67-.36-.83-.77-.83ZM439.58,7.18c0,.52-.77,1.03-1.39,1.39-.41.26-.62.67-.62.77-.21,1.14-.31,4.59-.31,8.62,0,7.38.26,16.67.26,16.72v.05c0,1.29-1.5,2.58-3.36,2.58-1.34,0-2.58-.67-2.58-2.32v-.1c.16-5.27.36-10.79.36-16.36,0-7.69-.31-11.15-.77-13.37-.05-.15-.05-.26-.05-.36,0-.21.1-.31.36-.31.52,0,8.1,1.24,8.1,2.68ZM449.7,4.13c0,.46-.62,1.03-1.45,1.5-.88.52-.93,1.14-.93,9.45,0,9.65.31,23.8.46,25.4,0,.21.05.46.05.67,0,5.88-6.66,6.19-7.02,6.19-.72,0-1.45-.26-1.91-1.14-1.24-2.32-6.97-4.49-6.97-4.85,0-.05.05-.05.21-.05h.31c2.48.31,4.28.46,5.58.46,3.1,0,3.61-.83,3.72-2.06.1-.98.16-7.79.16-15.18,0-15.12-.1-18.89-.77-22.2-.05-.1-.05-.21-.05-.31,0-.21.1-.26.31-.26.72,0,4.23.57,7.43,1.55.62.21.88.46.88.83Z"/>
        <path class="cls-1" d="M463.11,21.58c-2.74,0-5.42-1.19-5.42-4.54,0-.1,0-2.06.62-2.06.15,0,.41.1.72.31,2.17,1.45,3.72,1.96,5.01,1.96,1.03,0,2.27-.31,4.7-1.55.26-1.39.41-2.74.41-3.97,0-3.25-.88-4.28-2.68-4.28-.26,0-.46,0-.72.05-.21,0-.36.05-.52.05-.36,0-.57-.1-.57-.52,0-.21.36-3.41,2.38-3.41.52,0,1.14.21,1.81.67,2.12,1.45,3.77,1.91,3.77,4.8v.26c0,.21-.05.41-.05.62.36.1.62.15.93.15.26,0,.57-.05.93-.1h.26c1.03,0,1.91.98,1.91,2.32,0,.93-.36,3.3-5.37,6.19-.41,2.74-.83,5.63-.83,8.47,0,.88,0,1.76.1,2.58v.41c0,1.7-.98,2.53-2.12,2.53-1.96,0-3.25-2.63-3.25-4.23,0-.31.05-.62.16-.98.57-1.7,1.45-4.18,2.22-6.81-1.45.72-2.94,1.08-4.39,1.08ZM478.59,45.43c-.72,0-1.5-.1-2.27-.36-2.89-.88-3.46-2.89-4.85-3.51-1.39-.62-1.96-1.45-1.96-2.27,0-2.99,5.99-4.96,10.94-4.96h.67c-.57-2.53-1.24-5.11-1.24-7.64,0-3.87,1.6-7.48,7.69-10.01,1.14-.46,1.6-1.03,1.6-1.65,0-1.34-2.38-1.5-3.46-1.5-1.55,0-3.25.31-4.54,1.14-.93.57-1.7.98-2.06.98-.1,0-.15-.05-.15-.1,0-.1,2.53-5.01,8.93-5.01,5.99,0,8.83,3.41,8.83,5.47,0,1.39-1.39,2.27-3.41,2.27h-.36c-.41,0-.98-.05-1.55-.05-1.45,0-9.19.52-9.19,6.35,0,3.36,2.48,7.28,3.67,10.32,2.94.62,10.22,2.68,10.22,7.12,0,1.5-.83,2.79-2.17,2.79-.88,0-1.91-.52-3.1-1.86-1.24-1.39-2.84-2.68-4.54-3.72-.83,3.15-3.82,6.19-7.69,6.19ZM472.09,13.68c.26-.21.46-.41.62-.62.15-.21.36-.46.36-.77s-.16-.67-.62-1.14c-.1.77-.21,1.65-.36,2.53ZM477.56,36.39c-2.89,0-4.9,1.19-4.9,2.37,0,1.03,1.34,2.63,4.13,2.63,3.36,0,4.85-1.96,4.85-4.08v-.26c-1.39-.41-2.79-.67-4.08-.67Z"/>
        <path class="cls-1" d="M526.53,15.49c0,.36-.26.67-1.14.67h-6.71v9.4c2.48-.52,4.75-1.08,6.61-1.55,1.08-.26,1.7-.41,1.91-.41q.1,0,.1.05c0,.26-4.23,3.15-8.62,5.63.05,5.94.21,11.61.41,15.38v.15c0,1.6-1.81,2.53-3.3,2.53-1.29,0-2.48-.67-2.48-2.27v-.21c.21-4.49.31-9.14.41-13.68l-4.8,2.32c-.41.15-.57,1.08-1.14,1.08-1.29,0-4.59-6.09-4.59-6.56,0-.26.31-.21,1.08-.26,1.29-.05,2.74-.1,9.5-1.29.05-1.81.05-3.61.05-5.32s0-3.41-.05-5.01h-3.56c-2.79,7.23-6.3,10.12-6.3,10.12q-.05,0-.05-.1c0-.1.05-.36.16-.83,1.6-5.63,2.48-14.25,2.48-17.19,0-.52-.05-.93-.1-1.24-.05-.31-.1-.52-.1-.67,0-.1.05-.15.21-.15.1,0,5.78,1.14,7.07,2.43-.26-5.58-.36-5.99-.57-6.92-.05-.1-.05-.21-.05-.31,0-.26.15-.36.41-.36,1.13,0,7.85,1.81,7.85,2.89,0,.46-.77.93-1.45,1.29-.46.26-.67.67-.67.72-.26.88-.36,4.39-.41,9.03.36,0,.57-.21.72-.46,1.45-2.94,1.91-3.82,2.63-3.82.1,0,.21,0,.31.05,1.96.67,4.18,4.34,4.18,4.85ZM513.63,9.29c-.21.21-.57.46-1.03.67-.16.1-.46.21-.57.62-.31,1.19-.72,2.68-1.29,4.28h3.04l-.15-5.57ZM552.03,43.31c0,.36-.21.67-1.08.67h-17.19c-2.89,0-7.38.05-11.72.52h-.05c-.88,0-2.22-1.96-2.22-2.58,4.23.52,9.29.67,12.54.72v-2.99c0-4.75.05-12.23.05-18.53-2.68,0-3.82.1-8.1.52h-.05c-.93,0-2.38-1.96-2.38-2.58,4.85.57,7.69.77,10.53.77,0-8.21,0-15.23-.67-18.17-.05-.21-.05-.31-.05-.41,0-.15.05-.21.21-.21,1.14,0,7.18,1.55,7.59,1.65.88.26,1.24.67,1.24,1.08,0,.52-.57,1.08-1.55,1.5-.88.36-1.03,1.81-1.14,14.56h1.65c.36,0,.72-.21.88-.46,2.22-3.51,2.74-4.18,3.46-4.18.1,0,.21,0,.31.05,2.07.72,5.06,4.39,5.06,5.21,0,.36-.26.67-1.13.67h-10.22v4.85c0,7.18.05,14.14.16,16.72h3.51c.36,0,.67-.21.83-.46,1.14-1.76,3.1-4.85,4.03-4.85.1,0,.21,0,.31.05,1.45.52,5.21,4.54,5.21,5.88Z"/>
        <path class="cls-1" d="M581.84,4.7h13.47c.31,0,.57-.21.67-.46,1.08-2.27,2.48-3.67,2.74-3.67.41,0,4.23,2.74,4.23,4.8,0,.31-.16.62-.77.62h-20.65l-.21.15c-.52.41-.62.31-.62,1.24v1.08c0,.62.1,5.88.1,6.45v1.96c0,11.2-1.14,23.28-13.21,29.84-.72.36-1.29.57-1.6.57-.15,0-.26-.05-.26-.15,0-.15.31-.52,1.03-1.08,3.3-2.58,5.47-6.04,6.87-9.86-.31.15-.62.26-.98.26-.83,0-1.6-.52-2.01-1.7-2.99,1.91-8.21,4.9-9.6,5.78-.46.31-.52.93-.98.93-1.19,0-4.28-5.21-4.28-5.42,0-.1.05-.1.21-.1,2.22,0,5.16-.41,8.05-1.03v-9.55h-1.7c0,1.03,0,1.91.05,2.58v.05c0,1.55-1.7,2.06-2.58,2.06-1.08,0-2.06-.62-2.06-1.91v-.21c.31-4.34.31-11.41.31-13.73,0-.57-.1-3.25-.41-4.9,0-.05-.05-.15-.05-.21,0-.1.1-.15.21-.15.57,0,3.92,1.55,4.9,2.68h1.29c0-2.17-.05-3.87-.05-4.75,0-2.43-.16-4.39-.41-5.63v-.15c0-.15.05-.21.16-.21.26,0,4.75.98,5.47,1.29.41.21.57.46.57.72s-.15.52-.41.77c-.83.77-.98-.05-1.03,2.22,0,1.03-.05,3.1-.05,5.73h.93c.41,0,.57-.15.62-.26.31-.46.52-.98.93-1.5.21-.26.31-.41.52-.41.77,0,4.08,2.17,4.08,3.2,0,.31-.16.67-.72,1.14-.77.57-.83.52-.83.98v1.34c0,2.53.1,8.05.26,10.63v.15c0,1.29-1.19,2.06-2.32,2.06-.93,0-1.75-.57-1.75-1.81v-1.81h-1.7v8.52l2.12-.52c-.21-1.14-.41-2.63-1.03-3.56-.26-.31-.36-.52-.36-.62,0-.05.05-.1.16-.1.46,0,4.75.77,5.63,3.67,1.14-4.7,1.39-9.76,1.39-14.3,0-1.14-.05-2.22-.05-3.3,0-3.15-.26-9.91-.98-12.91-.05-.15-.05-.26-.05-.31,0-.15.05-.21.21-.21,1.29,0,5.42,2.01,6.61,2.99ZM562.28,13.68c0,.77-.05,1.86-.05,3.05,0,2.27,0,5.01.05,7.33h1.91c0-3.92-.05-7.95-.05-11.15h-1.45c-.1.15-.26.26-.36.36,0,0-.05.05-.05.41ZM568.06,12.91v11.15h1.91v-7.12c0-3.87,0-4.03-.83-4.03h-1.08ZM586.75,16.57h8.41c.46,0,.57-.1.67-.21.31-.36.77-1.03,1.19-1.45.21-.21.31-.36.52-.36.41,0,4.39,1.81,4.39,2.74,0,.26-.21.52-.83.88-.93.57-.93.41-.93,1.14v.72c0,1.65.16,4.08.31,6.66v.1c0,.72-.57,1.29-1.34,1.55.88.21,4.39,2.12,4.39,3.05,0,.41-.36.77-1.29,1.19-.15.1-.26.15-.26,1.91,0,1.65.1,7.79.21,8.62v.21c0,2.58-3.67,4.08-5.32,4.08-.52,0-.93-.21-1.24-.93-1.08-2.32-3.67-3.46-3.67-3.61q0-.05.05-.05c.1,0,.26,0,.46.05,1.24.21,2.22.26,2.99.26,1.55,0,2.06-.36,2.06-.72v-3.3c-.31.31-.77.46-1.19.46-.77,0-1.55-.62-1.7-2.01l-.15-1.03c-1.55.93-4.96,2.79-6.2,3.51-.36.21-.52.67-.83.67-.46,0-1.75-1.91-2.38-3.15v.05c0,2.99.05,6.25.05,7.54,0,1.39-1.5,2.17-2.79,2.17-1.14,0-2.12-.52-2.12-1.76v-.26c.26-2.84.46-7.79.46-10.84v-.98c0-1.39,0-3.61-.31-5.06,0-.1-.05-.15-.05-.21,0-.15.05-.21.16-.21s4.18,1.39,5.16,2.48h3.46v-3.72h-2.58c0,.26.05.46.05.67v.05c0,1.19-1.55,1.65-2.37,1.65-.98,0-1.86-.46-1.86-1.5v-.15c.26-3.25.31-5.63.31-7.33,0-1.08,0-3.67-.41-5.32,0-.05-.05-.1-.05-.15s.05-.1.16-.1c.67,0,3.25,1.24,4.39,2.01ZM591.24,8.41c0,.21-.15.46-.62.67-.46.21-.67.31-.67,1.5v.05h2.53v-.77c0-.36-.1-1.34-.36-2.48,0-.05-.05-.1-.05-.15,0-.1.05-.1.16-.1.05,0,5.63.36,5.63,1.29,0,.21-.15.41-.67.67-.62.26-.62.46-.62,1.45v.1h.72c.1,0,.31-.15.41-.41.36-.72.93-2.01,1.6-2.63.15-.1.31-.15.41-.15s.16,0,.21.05c.46.21,3.56,2.53,3.56,3.77,0,.31-.21.62-.93.62h-5.99c0,.93.05,1.86.16,2.43v.1c0,.93-1.39,1.34-2.48,1.34s-1.91-.36-1.91-1.24v-.1c.05-.57.1-1.6.1-2.53h-2.48c.05,1.03.16,2.12.16,2.58,0,.93-1.24,1.45-2.43,1.45-.98,0-1.91-.36-1.91-1.24v-.1c.05-.52.1-1.55.1-2.58-1.14.05-2.22.1-3.05.21h-.1c-.77,0-1.81-1.5-1.81-2.32,1.34.31,3.15.52,4.96.62v-.67c0-.36-.1-1.39-.36-2.43,0-.05-.05-.1-.05-.15,0-.1.05-.1.16-.1.31,0,5.63.36,5.63,1.29ZM589.12,36.44v-4.75h-3.56c-.05.1-.16.21-.26.26-.1.05-.1.52-.1.52-.1.93-.1,2.48-.1,4.08h1.14c.88,0,1.75,0,2.22-.05.21,0,.41,0,.67-.05ZM588.86,17.6h-1.96c-.1.1-.21.21-.31.26-.05,0-.05.05-.05.31-.05.98-.05,1.96-.05,2.89v.05h2.58c0-1.19-.1-2.43-.21-3.51ZM589.12,22.15h-2.63c0,1.24,0,2.43.05,3.56h2.58v-3.56ZM593.35,17.6c.62.15,1.08.36,1.08.62,0,.21-.21.41-.57.57-.67.31-.52.26-.57,2.12v.21h2.84v-.52c0-2.89,0-2.99-.88-2.99h-1.91ZM596.14,22.15h-2.84v3.56h2.74l.1-3.56ZM596.04,27v-.26h-2.74v3.72h3.46c.36,0,.57-.52.62-.57.36-.62.93-1.08,1.19-1.29l.16-.15c-.21.05-.46.05-.72.05-1.03,0-1.96-.46-1.96-1.5ZM597.59,35.77v-.57c0-2.74-.05-3.51-.67-3.51h-3.61v4.18l1.03-.21c-.16-.88-.41-1.55-.67-2.06-.1-.21-.21-.31-.21-.36,0,0,.05-.05.1-.05.52,0,2.89,1.03,4.03,2.58Z"/>
      </g>
      <line class="cls-2" y1="72.75" x2="609.89" y2="72.75"/>
    </g>
  </g>
</svg>