<?xml version="1.0" encoding="UTF-8"?>
<svg id="_レイヤー_2" data-name="レイヤー 2" xmlns="http://www.w3.org/2000/svg" viewBox="0 0 1457.08 135.96">
  <defs>
    <style>
      .cls-1 {
        fill: #eceded;
        stroke-width: 0px;
      }
    </style>
  </defs>
  <g id="_テキスト" data-name="テキスト">
    <path class="cls-1" d="M3.27,129.6c24.92,2.22,24.75,5.99,49.77,5.99s25.02-6,50.04-6,25.02,6,50.04,6,25.02-6,50.03-6,25.02,6,50.03,6,25.02-6,50.04-6,25.02,6,50.04,6,25.02-6,50.04-6,25.02,6,50.04,6,25.02-6,50.04-6,25.02,6,50.04,6,25.02-6,50.03-6,25.02,6,50.03,6,25.02-6,50.04-6,25.02,6,50.03,6,25.02-6,50.04-6,25.02,6,50.03,6,25.02-6,50.04-6,25.02,6,50.04,6,25.02-6,50.04-6,25.02,6,50.04,6,25.02-6,50.04-6,25.02,6,50.04,6,25.02-6,50.04-6,25.02,6,50.04,6,25.02-6,50.04-6,25.02,6,50.04,6,25.02-6,50.05-6,25.39,8.21,50.31,5.99c2.22-.2-3.27-5.21-3.27-7.44s6-2.23,6-4.45-6-2.23-6-4.45,6-2.23,6-4.45-6-2.23-6-4.45,6-2.23,6-4.45-6-2.23-6-4.46,6-2.23,6-4.45-6-2.23-6-4.46,6-2.23,6-4.45-6-2.23-6-4.46,6-2.23,6-4.45-6-2.23-6-4.46,6-2.23,6-4.46-6-2.23-6-4.46,6-2.23,6-4.46-6-2.23-6-4.45,6-2.23,6-4.45-6-2.23-6-4.46,6-2.23,6-4.45-6-2.23-6-4.46,6-2.23,6-4.46-6-2.23-6-4.46,6-2.23,6-4.46-6-2.23-6-4.46,6-2.23,6-4.46-6-2.23-6-4.46,6-2.23,6-4.46-1.04-1.28-3.27-1.48c-24.92-2.22-24.75-5.99-49.77-5.99s-25.02,6-50.04,6c-25.02,0-25.02-6-50.04-6s-25.02,6-50.03,6-25.02-6-50.03-6c-25.02,0-25.02,6-50.04,6-25.02,0-25.02-6-50.04-6-25.02,0-25.02,6-50.04,6-25.02,0-25.02-6-50.04-6-25.02,0-25.02,6-50.04,6-25.02,0-25.02-6-50.04-6-25.02,0-25.02,6-50.03,6-25.02,0-25.02-6-50.03-6s-25.02,6-50.04,6c-25.02,0-25.02-6-50.03-6-25.02,0-25.02,6-50.04,6-25.02,0-25.02-6-50.03-6-25.02,0-25.02,6-50.04,6s-25.02-6-50.04-6-25.02,6-50.04,6c-25.02,0-25.02-6-50.04-6-25.02,0-25.02,6-50.04,6S328.27.37,303.25.37s-25.02,6-50.04,6S228.19.37,203.17.37c-25.02,0-25.02,6-50.04,6S128.11.37,103.09.37c-25.02,0-25.02,6-50.05,6S27.66-1.84,2.73.38c-2.22.2,3.27,5.21,3.27,7.44S0,10.05,0,12.27s6,2.23,6,4.45S0,18.95,0,21.18s6,2.23,6,4.45S0,27.86,0,30.09s6,2.23,6,4.46S0,36.77,0,39s6,2.23,6,4.46S0,45.68,0,47.91s6,2.23,6,4.46S0,54.59,0,56.82s6,2.23,6,4.46S0,63.5,0,65.73s6,2.23,6,4.46S0,72.41,0,74.64s6,2.23,6,4.45S0,81.32,0,83.55s6,2.23,6,4.46S0,90.23,0,92.46s6,2.23,6,4.46S0,99.14,0,101.37s6,2.23,6,4.46S0,108.06,0,110.29s6,2.23,6,4.46S0,116.97,0,119.2s6,2.23,6,4.46-5.12,1.38-5.84,3.5c-.41,1.21.88,2.25,3.11,2.44Z"/>
  </g>
</svg>