<?xml version="1.0" encoding="UTF-8"?>
<svg id="_レイヤー_2" data-name="レイヤー 2" xmlns="http://www.w3.org/2000/svg" viewBox="0 0 85.1 67.71">
  <defs>
    <style>
      .cls-1 {
        fill: #fff;
        stroke: #fff;
        stroke-linecap: round;
        stroke-linejoin: round;
        stroke-width: .25px;
      }

      .cls-2 {
        fill: #251e1c;
        stroke-width: 0px;
      }
    </style>
  </defs>
  <g id="_テキスト" data-name="テキスト">
    <g>
      <path class="cls-2" d="M39.53,22.5c2.5-2.83,5.2-4.25,8.09-4.25,3.88,0,7.22,1.94,10.01,5.83s4.19,9.52,4.19,16.9c0,7.74-1.74,14.13-5.22,19.17-3.48,5.04-8.11,7.56-13.89,7.56-3.83,0-7.11-1.04-9.85-3.12-2.74-2.08-4.95-5.41-6.63-10-1.68-4.58-2.52-10.54-2.52-17.87,0-8.87,1.25-16.01,3.76-21.44,2.5-5.42,6.1-9.33,10.79-11.71s9.7-3.57,15.01-3.57c1.43,0,2.42.1,2.95.29.54.19.8.56.8,1.11,0,2.06-.1,3.3-.29,3.69-.19.4-.87.6-2.02.6-2.56,0-5.2.6-7.91,1.8s-4.6,2.89-5.68,5.08c-1.07,2.19-1.61,5.5-1.61,9.93ZM45.85,28.45c0-.91-.25-1.67-.74-2.29-.5-.62-1.17-.93-2.02-.93-2.12,0-3.18,1.58-3.18,4.75v29.51c0,.83.29,1.52.87,2.07.58.55,1.27.83,2.06.83.96,0,1.71-.41,2.23-1.24.52-.83.78-2.55.78-5.17v-27.53Z"/>
      <g>
        <path class="cls-1" d="M28.58,26.94c.1-2.17-.94-4.08-3.11-5.74-1.33-.82-2.71-1.33-4.22-1.48-.14-.02-.29-.04-.43-.08-.12-.02-.2-.04-.25-.06l-.12-.06s-.02-.02-.04-.02-.04,0-.06.02c-.02,0-.06.02-.12.06-.02,0-.04.02-.06.04-.12.04-.29.06-.57.06s-.53,0-.78-.02h-.41c-1.78.12-3.44.41-4.96.92-.25.06-.51.14-.78.21l-.21.06c-.68.16-1.35.37-2.01.64-.66.25-1.23.66-1.7,1.21-.35.27-.72.47-1.09.64-.51.18-1.09.57-1.7,1.15-.1.08-.18.18-.21.23-.08.08-.14.16-.2.21-.06.04-.16.1-.27.14-.04,0-.1.06-.21.16-.1.08-.21.18-.33.25-.12.1-.21.18-.31.23-.14.08-.21.14-.25.2-.04.06-.08.14-.08.21-.02.06-.04.14-.08.23-.02.1-.1.21-.18.35-.1.14-.2.27-.29.39-.35.49-.62.96-.82,1.45-.18.47-.16,1.04.08,1.7.08.27-.02.35-.31.23-.29-.1-.64-.33-1.05-.72-.41-.37-.74-.84-1.02-1.39s-.35-1.13-.23-1.76c1.23-2.3,3.18-4.16,5.88-5.59,2.7-1.45,5.25-2.34,7.7-2.73,1.86-.29,3.54-.41,5.04-.33s3.16.45,4.96,1.09c.76.27,1.58.68,2.44,1.19.86.53,1.58,1.07,2.15,1.68.18.2.35.35.49.47s.27.23.39.37c.12.16.23.37.37.64.04.1.14.21.27.39.23.29.45.61.62.96.12.27.2.49.27.62.06.16.12.25.16.29.04.06.1.1.16.12.1.06.1.14.02.27-.1.14-.08.23.06.31.12.06.08.2-.1.39-.06.04-.1.08-.16.14-.04.04-.1.08-.14.12-.06.04-.1.06-.12.06t-.02,0c.02-.08.02-.18.02-.33-.02-.14-.04-.29-.08-.45-.02-.16-.06-.29-.1-.39s-.08-.12-.12-.08c-.02.04-.04.18-.02.43,0,.23,0,.53.04.86.06.66.04,1.37-.04,2.07-.08.72-.21,1.35-.41,1.86-.06.18-.14.39-.23.64-.1.23-.18.47-.25.66-1.5,3.16-3.71,5.72-6.58,7.66-.74.51-1.46.92-2.17,1.27-.57.27-1.11.59-1.66.92-.16.1-.23.18-.21.2,0,.04.06.04.18.02s.25-.06.41-.08c.16-.04.31-.08.45-.1.16-.04.25-.04.31-.02.06.04.02.1-.08.2-.43.35-1.02.55-1.78.59s-1.41-.1-1.91-.43c-.25-.2-.55-.43-.86-.7-.57-.49-1.07-.86-1.56-1.11-.2.12-.39.47-.57,1-.2.55-.37,1.13-.53,1.78-.21.78-.41,1.37-.59,1.78l-.06.12c-.27.55-.57,1.19-.88,1.95-.29.74-.45,1.39-.43,1.95.18,0,.35-.18.51-.51.18-.31.33-.68.49-1.09.18-.43.35-.82.53-1.15s.37-.51.57-.53c-.12.57-.33,1.25-.64,2.09-.23.64-.43,1.23-.59,1.76-.14.64-.33,1.05-.59,1.21-.27.18-.74.04-1.41-.35-.74-.41-1.25-1-1.54-1.8-.06-.41,0-.88.14-1.39.14-.49.31-1,.49-1.48.14-.37.27-.72.37-1.05.57-1.89,1.17-3.77,1.78-5.62.78-2.38,1.54-4.8,2.25-7.27.18-.62.35-1.25.53-1.86.1-.33.18-.66.25-1,.04-.12.08-.25.1-.37.02-.06.04-.12.04-.2.06-.29.16-.68.27-1.13s.27-.84.47-1.19c.18-.33.43-.51.7-.49.33.04.7.23,1.11.57s.78.7,1.11,1.13c.31.41.53.8.61,1.11.08.37.12.62.1.8-.02.16-.06.25-.12.29-.08.02-.16.02-.23-.02-.1-.06-.18-.1-.27-.16-.06-.04-.12-.08-.16-.08-.04-.02-.04,0-.02.08.02.06.08.18.18.37.06.1.1.18.14.23.04.04.06.08.08.1l.02.02-.04-.04s-.04-.02-.08-.02c-.04-.02-.08-.02-.14,0-.04.02-.1.04-.16.08-.08.04-.14.12-.21.2-.18.25-.35.61-.51,1.05-.1.25-.2.47-.29.66v.02c-.08.14-.14.23-.16.23,0,.02-.02-.02,0-.1s.02-.18.02-.31c.02-.23.04-.47.08-.7.02-.25.04-.45.06-.62s0-.29-.02-.31c-.02-.04-.06.02-.14.2-.06.18-.18.49-.33.94-.02.1-.06.2-.08.29-.04.1-.06.21-.1.31-.21.76-.45,1.5-.68,2.27-.21.7-.43,1.43-.64,2.15-.9,3.55.2,4.63,3.3,3.22,2.83-1.27,5.25-3.11,7.27-5.53.27-.37.57-.72.84-1.09,1.5-2.05,2.3-4.16,2.42-6.33ZM11.15,48.8c-.12.04-.04-.2.23-.72.02-.02.04-.06.08-.1.04-.06.08-.1.1-.12.04-.04.08-.04.1-.02.02,0,.02.06,0,.16-.21.49-.37.76-.51.8ZM12.97,45.09c.04-.14.1-.27.2-.41.08-.12.16-.21.23-.27.08-.04.14-.04.18.04.02.08,0,.25-.06.53-.04.14-.08.27-.18.39-.08.12-.2.16-.35.12-.04-.12-.06-.23-.02-.39ZM15.2,37.2c0,.14-.04.29-.08.47-.06.18-.12.33-.2.45-.06.1-.12.16-.18.12-.04-.02-.08-.18-.08-.43-.02-.37.12-.68.41-.9.08.04.12.14.12.29ZM15.49,36.16s-.1.06-.16.06-.12,0-.14-.04c-.02-.02,0-.08.06-.16.04-.02.08-.04.12-.04.06,0,.1.02.14.04.04.06.02.1-.02.14ZM16.25,34.68s-.1.02-.18.02c-.06-.02-.12-.06-.14-.1-.04-.04-.02-.08.06-.14.06-.06.12-.06.18-.02s.1.08.14.12c.02.06,0,.1-.06.12ZM16.43,32.86c.08-.04.14,0,.18.1.04.12.06.23.02.41-.02.16-.1.31-.23.45-.08.08-.14.1-.18.08-.02-.04-.04-.08-.06-.18,0-.08,0-.16.02-.25.02-.08.02-.14.04-.18.06-.25.14-.41.21-.43ZM17.64,42.7c.02.06.04.1.12.14.06.04.14.04.21.02.08-.04.14-.1.18-.2.02-.08.02-.14-.02-.16-.06-.02-.1-.02-.18-.02-.06.02-.12.02-.16.04-.1.06-.16.12-.16.18ZM18.01,30.59s.06.02.06.06c0,.02,0,.06-.02.1,0,.04-.02.08-.06.1-.02.02-.06.02-.12,0-.02-.02-.02-.04-.02-.06s0-.06.02-.08.02-.04.04-.04c.04-.06.08-.08.1-.08ZM20.94,42.02c-.23.1-.39.16-.47.18s-.06-.02.08-.1c.14-.1.43-.25.88-.49.2-.12.39-.21.55-.27.18-.08.29-.14.35-.16.08-.02.06.02-.04.1-.08.06-.27.2-.59.39-.29.14-.55.25-.76.35ZM22.93,40.65c-.14.1-.18.12-.14.06s.14-.16.29-.29c.16-.16.31-.31.51-.49s.39-.33.57-.49.31-.27.41-.35c.29-.21.53-.39.72-.51.18-.12.23-.14.2-.06-.06.08-.29.29-.7.64-.37.31-.74.61-1.13.92-.35.29-.61.49-.72.57ZM30.8,29.54c.04-.12.08-.18.12-.2.1.02.14.14.14.39,0,.23-.06.51-.16.8-.04.12-.06.23-.06.35s0,.2.04.23.06.1.04.14c0,.06-.04.1-.1.12-.04.02-.12.14-.21.31s-.2.39-.27.62c-.1.25-.23.55-.41.88-.18.35-.33.64-.51.94-.16.21-.45.62-.9,1.21-.45.57-.9,1.13-1.37,1.66-.45.55-.78.86-.98.98,0,0,.08-.14.25-.37.18-.21.39-.51.64-.84.27-.33.53-.68.8-1.02.23-.29.43-.57.61-.78s.27-.37.33-.43c.39-.59.78-1.33,1.15-2.19.39-.88.62-1.66.74-2.36.02-.18.06-.33.1-.45ZM30.43,32.78s.08-.06.1-.04c.04.02.04.06.02.12s-.06.14-.12.21c-.21.25-.25.21-.12-.08.02-.1.06-.16.12-.21ZM31.04,27.25s.08.1.08.18c.02.08.02.14-.02.21-.02.08-.02.16,0,.27,0,.1.04.2.1.27.04.1.08.2.08.29s-.02.18-.06.23c-.1.16-.2.23-.27.23s-.12-.08-.12-.21c0-1.17.08-1.68.21-1.48Z"/>
        <path class="cls-1" d="M34.17,43.72c-.47,0-.96-.18-1.5-.55-.96-.74-1.45-1.74-1.45-2.99.06-1.13.45-2.58,1.19-4.32.61-1.43,1.19-2.44,1.8-3.09.76-.68,1.52-1.04,2.27-1.04.25,0,.55.04.88.16.21.08.37.12.51.12.1,0,.21-.04.33-.12.14-.08.25-.12.33-.12.21,0,.51.14.9.39.25.2.45.33.59.39.31.18.49.51.53.96,0,.16.02.27.08.33.1.25.16.55.18.94,0,.2,0,.39-.02.57s-.02.39-.04.64c0,.2.12.27.33.27.29,0,.47-.04.53-.1.64-.21,1.19-.45,1.68-.72s1.19-.68,2.13-1.19c.12-.21.45-.39,1.02-.47-.16.31-.33.55-.55.74-.08.08-.2.21-.33.37-.16.18-.41.35-.76.53-.33.18-.72.43-1.15.74.14,0,.53-.18,1.13-.51.37-.2.61-.29.66-.29,0,.04-.25.23-.74.57-.1.06-.16.1-.18.12-.02.04-.53.33-1.48.92-.49.29-.98.51-1.48.64-.02,0-.16.06-.43.12-.29.08-.43.14-.43.2,0,.04.16.08.49.12.72-.08,1.41-.29,2.01-.68l1.02-.45-.12.08c-.47.47-.98.86-1.54,1.19-.18.08-.47.18-.88.27-.7.18-1.25.25-1.62.25-.21,0-.35-.02-.45-.08-.04-.12-.1-.18-.14-.18-.06,0-.1.1-.14.27-.08.23-.16.35-.23.35-.08.02-.12.08-.12.2s-.04.18-.1.18c-.06.02-.2.2-.37.55-.2.33-.47.68-.82,1.02-.31.29-.47.47-.47.57,0,.04.02.06.08.06l.16-.02s.02,0,.02.02c0,.06-.08.2-.25.41-.23.27-.39.39-.45.39t-.02-.02s.06-.12.2-.27c.08-.12.12-.18.12-.21t-.02-.02c-.06,0-.16.06-.31.2-.18.14-.25.25-.25.37,0,.18-.16.35-.45.55-.29.18-.62.33-.98.47-.37.14-.64.2-.82.21h-.04ZM34.52,40.75c.37-.31.78-.72,1.25-1.29s.88-1.09,1.23-1.62c.35-.51.53-.88.55-1.05,0-.12-.06-.25-.18-.41-.14-.18-.25-.43-.35-.76s-.18-.62-.2-.9l.02-.08c0-.2-.04-.29-.12-.29-.1,0-.23.1-.41.27s-.33.29-.49.31c-.16.04-.29.2-.43.49s-.29.53-.43.7c-.16.18-.23.33-.23.47s-.04.23-.12.29c-.1.04-.23.35-.43.94-.33.98-.59,1.8-.76,2.44-.06.18-.1.29-.12.37s-.04.18-.04.27c0,.29.08.43.21.43h.02c.21,0,.55-.21,1.02-.59ZM35.05,42.96c.57-.25,1.23-.82,1.99-1.66.55-.59,1-1.17,1.35-1.74.33-.57.53-.88.55-.9.1-.04.14-.12.14-.23,0-.1-.04-.16-.1-.16s-.23.21-.53.66c-.51.74-1.07,1.46-1.7,2.13-.64.66-1.19,1.13-1.66,1.41-.39.21-.59.37-.59.51,0,.06.08.1.23.1.06,0,.18-.04.31-.12ZM37.86,41.12c0-.1.04-.14.12-.14.06,0,.1.04.1.12s-.04.12-.1.12c-.08,0-.12-.02-.12-.1ZM39.72,35.89c.2-.37.27-.64.27-.8,0-.08,0-.12-.04-.14-.04.04-.1.12-.14.25s-.08.27-.1.43c-.02.14-.02.25-.02.31l.02-.06ZM40.61,35.71c0-.14-.02-.2-.06-.21-.04,0-.08.04-.12.14l-.02.14c0,.08.02.14.08.16.08-.02.12-.1.12-.21ZM40.63,34.97s0-.04-.02-.08c0-.02-.04-.04-.08-.04-.06,0-.08.06-.08.14,0,.06.04.08.12.1.04,0,.06-.04.06-.12ZM44.29,36.67s-.04-.02-.04-.04.06-.04.2-.08c.06,0,.1,0,.1.02,0,.04-.06.08-.2.08l-.06.02ZM45.22,36.26c0-.1.08-.14.25-.16,0,.02,0,.04-.02.04v.02s-.02,0-.02.02l-.18.1s-.04,0-.04-.02ZM45.67,35.32s.06-.14.14-.27c.16-.23.29-.39.43-.51s.27-.25.39-.43c.14-.18.27-.27.43-.29-.21.47-.61.92-1.15,1.39l-.2.14s-.04,0-.04-.02ZM46.57,33.76s-.04-.04-.04-.1c0-.04.04-.08.12-.14.06.02.1.04.12.08,0,.1-.06.16-.16.16h-.04Z"/>
        <path class="cls-1" d="M43.55,41.28c-.02-.45.02-.98.14-1.56.39-1.88,1.02-3.67,1.89-5.37.06-.1.12-.21.21-.35.1-.12.18-.23.23-.35.39-.82.9-1.23,1.52-1.23.33,0,.7.12,1.11.37.43.37.64.66.64.92.02.25-.12.57-.43.92-.2.21-.35.49-.49.8-.16.39-.39.88-.68,1.46-.66,1.25-.98,2.05-.98,2.4.02.16.1.23.25.23h.1c1.11-.45,2.17-1.09,3.18-1.93,1-.86,2.36-2.42,4.1-4.71.12-.1.2-.16.21-.16s.02,0,.02.02c0,.06-.12.31-.35.74l-.16.31s.08.08.14.12c.06.02.1.08.1.14,0,.12-.08.29-.25.59-.7,1.37-1.72,2.79-3.05,4.24-1.19,1.05-2.7,2.09-4.47,3.14-.64.37-.98.61-.98.66t.02.02c.21,0,.86-.25,1.95-.76.76-.35,1.52-.84,2.27-1.46.31-.25.51-.39.59-.39.02,0,.04.02.04.04,0,.12-.1.31-.31.61-.16.23-.45.49-.88.76-.72.47-1.25.88-1.56,1.23-.1.1-.16.16-.2.21-.02.04-.06.08-.1.1s-.18.06-.41.14l-.23.04c-.47.12-.86.16-1.21.16-1.25,0-1.91-.68-1.99-2.09ZM44.25,40.34c0-.16-.06-.23-.18-.23s-.18.1-.2.27c0,.18.08.29.2.31.14,0,.2-.12.18-.35ZM44.35,39.5l.08-.62c-.02-.14.02-.23.1-.29.18-.18.27-.29.29-.37.02-.06.12-.23.29-.53.08-.16.16-.29.21-.43l.16-.49c.04-.12.06-.21.04-.29,0-.08.04-.16.1-.23.04-.12.08-.23.1-.37s.04-.23.06-.33c.04-.08.04-.16.04-.21,0-.14.06-.29.2-.43l.21-.18.2-.35c.14-.21.21-.37.21-.43,0-.08.06-.16.16-.21s.21-.14.39-.25c.16-.12.23-.21.21-.29,0-.1-.06-.16-.18-.16l-.08.02c-.29.08-.49.21-.59.43-.08.14-.14.23-.21.29-.06.04-.12.1-.18.18-.08.1-.14.27-.18.55-.02.12-.12.31-.29.57-.21.29-.31.49-.31.55-.02.06-.02.18,0,.35l.02.16c0,.2-.02.33-.1.41-.06.08-.14.18-.21.29-.08.1-.16.27-.25.49-.12.23-.21.45-.29.68-.1.21-.16.37-.18.49-.04.12-.1.25-.16.39-.08.16-.12.29-.14.47v.08c0,.06.02.12.04.18.04.06.06.1.12.1.04,0,.08-.06.12-.18ZM48.59,31.88c-.29-.23-.45-.57-.47-.98-.02-.06,0-.23,0-.53.02-.31.16-.68.43-1.15s.61-.76,1-.88c.33,0,.7.06,1.13.2.49.14.8.35.92.66,0,.02.02.04,0,.04,0,0-.02.02-.04.02s-.04.02-.04.02c-.02,0-.04.04-.02.12,0,.06.02.16.08.29s.08.23.1.33c0,.18-.1.37-.31.57-.14.16-.29.35-.45.57-.47.7-.94,1.05-1.39,1.05-.27,0-.59-.12-.94-.33ZM49.31,29.6c.14-.29.21-.51.21-.61,0-.06-.02-.08-.06-.08-.06,0-.2.16-.39.47-.21.41-.31.66-.31.76,0,.06.02.08.06.1.06,0,.21-.21.49-.64Z"/>
        <path class="cls-1" d="M61.25,42.8c-.68-.14-1.11-.43-1.31-.86-.04-.16-.12-.33-.23-.49-.16-.16-.25-.41-.25-.74l.02-.31c.12-1.35.41-2.66.88-3.95l.1-.25c.06-.2.1-.33.1-.41s-.02-.12-.08-.12c-.08.02-.23.14-.45.37l-1.37,1.46c-.64.64-1.05,1.07-1.23,1.29-1.43,1.72-2.13,2.64-2.13,2.75,0,.02,0,.04.02.04.06,0,.47-.45,1.27-1.33l-.35.51c-.51.86-1.17,1.5-2.01,1.97-.45,0-.68-.1-.68-.33-.02-.06-.06-.1-.08-.1-.06,0-.14.04-.27.14s-.23.14-.29.14c-.1.02-.18-.12-.21-.37-.02-.18-.1-.33-.23-.47-.16-.14-.21-.27-.21-.45,0-.33.2-1.07.61-2.23.7-1.84,1.21-3.16,1.56-4,.35-.9.62-1.58.84-2.01.25-.62.49-.94.7-.94.18-.02.53.21,1.05.68.08.08.2.14.33.2.29.14.45.31.45.49,0,.1-.08.35-.25.74l-.04.14c-.2.49-.29.74-.29.8v.02s.06-.04.12-.1c.04-.08.14-.14.25-.18.06-.02.12-.04.2-.08.12-.06.35-.29.74-.72,1.52-1.66,2.62-2.52,3.26-2.56.49.06.84.23,1,.49.06.1.12.16.2.18l.06.04c.14.12.27.35.37.72l.14.37c.1.2.16.35.16.47,0,.16-.16.59-.43,1.27-.12.31-.23.62-.35.96l-.25.82c-.37,1.11-.55,1.82-.55,2.15,0,.25.06.39.18.39.04,0,.1-.02.18-.06,1.54-.9,3.36-2.38,5.45-4.47.53-.51,1.04-1,1.56-1.46.33-.29.74-.57,1.25-.78-.35.68-.76,1.31-1.21,1.84-.1.12-.16.2-.16.21s.04.04.08.06.08.12.08.31c-.1.27-.33.59-.76.94-.18.18-.35.33-.49.51-.53.64-1.21,1.35-2.05,2.13l-.2.16c-.37.35-.76.68-1.15.98-.27.23-.94.72-2.01,1.45-.14.08-.25.16-.37.23-.33.23-.53.39-.59.47.04.06.1.08.18.08.29-.02.68-.2,1.13-.55.02-.02.04-.02.06-.02l.61-.43c.68-.41,1.74-1.23,3.14-2.46.62-.53.98-.78,1.09-.78,0,.1-.31.47-.96,1.15-.45.51-.94.96-1.46,1.37-.16.1-.29.23-.41.39-.1.16-.2.23-.29.23-.08,0-.18.04-.27.14-.66.59-1.41,1.07-2.23,1.43l-.2.06c-.47.2-.76.29-.9.29h-.12ZM54.71,41.43l.1-.12c1.29-1.41,2.03-2.25,2.21-2.48,1.68-1.88,2.71-2.97,3.07-3.32.51-.47.78-.84.82-1.11,0-.06,0-.1-.02-.1-.27.1-1.19,1-2.73,2.71-.88.98-1.84,2.07-2.83,3.24l-.35.45c-.29.33-.43.59-.43.74,0,.04.02.06.04.08.04,0,.08-.04.14-.1ZM67.64,36.61c0-.08-.04-.12-.1-.12-.04,0-.06,0-.06.02v.04c0,.1.02.14.06.14h.06s.04-.02.04-.08ZM67.78,36.43c0-.06-.02-.1-.08-.1-.04,0-.06.04-.06.1,0,.1.02.16.06.16l.04-.02s.02-.04.04-.14ZM67.99,36.3s.04-.06.04-.08c0-.08-.04-.12-.1-.14-.06,0-.08.06-.08.16.02.06.04.08.04.08h.04s.04,0,.06-.02ZM68.56,35.69c.12-.08.21-.21.33-.39v-.04s-.02-.02-.04-.02c-.08.04-.16.1-.27.21l-.2.2c-.04.06-.06.12-.06.14s0,.02.04.02c.02,0,.1-.04.2-.12Z"/>
        <path class="cls-1" d="M70.17,48.04c-1.27-.68-2.09-1.93-2.44-3.73-.23-.76-.35-1.68-.35-2.75,0-.57.04-1.19.1-1.88.35-2.19.94-4.43,1.78-6.72l1.15-2.97c.02-.14.06-.27.12-.41l-2.3.29c-.62,0-1.04-.08-1.23-.25-.04-.02-.06-.06-.06-.08,0-.04.06-.08.16-.12s.14-.06.16-.06l-.04-.02h-1.02c-.14-.02-.25-.08-.31-.18,0-.06.14-.12.39-.2,0-.04-.27-.12-.82-.25-.06,0-.12-.02-.2-.04-.25-.06-.68-.1-1.25-.1-.92,0-1.43-.2-1.52-.61v-.02c0-.12.18-.18.51-.18.04,0,.08,0,.1-.02l.25-.02.23.02c.18,0,.57-.02,1.17-.08.25-.04,1.21-.12,2.87-.21,2.3-.14,3.55-.29,3.79-.43.18-.29.41-.86.7-1.68l1.27-2.77c.16-.27.29-.57.43-.88.21-.59.53-.88.96-.88.29,0,.62.14,1,.39.31.18.49.37.51.62,0,.1,0,.18-.02.23l-.02.35c.04.23.18.43.45.59.18.1.27.21.27.33,0,.25-.14.55-.41.92-.25.37-.53.86-.84,1.45-.25.47-.43.8-.53,1.02,1.17-.18,2.75-.27,4.77-.29s3.26.18,3.77.61c-.04.02-.08.02-.14.02s-.14,0-.21.02c-.1.02-.16.02-.2.04s-.06.04-.06.06c.02.08.16.14.43.18.41.06.8.39,1.17.98,0,.06-.02.1-.08.12s-.08.06-.08.1l.21.14c.12.04.2.12.21.27,0,.14-.04.2-.12.2-.1,0-.27-.06-.57-.16-.37-.14-.72-.25-1.02-.35-.31-.08-.88-.16-1.7-.23-.41,0-.82,0-1.19-.02-1.39,0-2.46.1-3.24.27-.16.06-.31.08-.49.08-.14-.02-.21-.1-.27-.21l-.06-.08c-.06,0-.14.06-.21.2-.1.14-.35.21-.78.25-.14,0-.62.06-1.46.2v.1l.1.18c0,.08-.08.2-.21.35-.06.06-.08.1-.08.12l.04.04c0,.08-.12.18-.33.27-.08.06-.12.1-.12.16v.02c-.33.68-.47,1.04-.43,1.09.02.06.04.12.04.18,0,.1-.02.16-.04.21-.1.18-.2.43-.29.74-.06.25-.12.51-.21.72-.14.33-.39.49-.76.49h-.02v.02c.18.12.25.27.25.49,0,.31-.12.53-.35.62-.06,0-.12-.1-.14-.27-.02-.12-.04-.18-.08-.18-.02,0-.06.02-.08.08-.04.06-.06.14-.08.23s-.04.2-.04.29c.02.08.12.14.29.2s.31.14.37.2l-.04.04-.39-.04s-.06.08-.06.21c.02.02.04.06.04.1,0,.12-.04.2-.1.23t-.04-.02s-.06-.02-.12-.06-.12-.06-.18-.06c-.08,0-.12.08-.12.23,0,.18.04.27.1.29.06.04.1.06.12.08,0,.1,0,.2-.02.25s-.06.16-.1.29-.1.29-.2.49c-.08.31-.12.47-.12.49-.02.02-.08.06-.21.12-.06.02-.12.08-.18.16-.12.14-.18.25-.18.35,0,.06,0,.1.02.1s.12-.06.33-.2c.02,0,.04.02.06.08,0,.14,0,.23-.02.31-.06.61-.18.96-.35,1.05-.08.04-.16.06-.23.06,0,.02-.02.04-.02.06,0,.04.04.08.1.12.1.1.16.2.18.27,0,.08-.02.14-.06.18s-.08.06-.12.06v.12c-.1,1.11-.16,1.99-.16,2.64,0,.14,0,.39.02.76s.12.84.33,1.39c.14.72.61,1.54,1.45,2.46-.16.14-.31.2-.49.2s-.45-.08-.78-.21ZM69.05,40.96c0-.1-.02-.18-.06-.2-.02,0-.04.04-.04.1.02.14.04.21.06.21.04,0,.04-.04.04-.12ZM69.25,39.99l.06-.43s0-.06-.02-.06c-.12.04-.16.23-.16.57v.16s.06-.08.12-.23ZM69.5,38.46s.04-.08.06-.18c.02-.08.04-.16.08-.25.02-.1.04-.16.04-.21s.02-.08.04-.1c.06-.27.1-.45.1-.53l-.02-.02c-.06,0-.12.12-.2.35s-.12.53-.14.9c0,.04.02.06.02.06l.02-.02ZM71.04,33.35c.06-.08.08-.14.08-.2,0-.02,0-.04-.02-.06-.02,0-.06.02-.1.06-.1.1-.14.2-.14.27,0,.02,0,.04.02.04.06,0,.1-.04.16-.12ZM71.92,33.09c0-.08-.04-.1-.12-.1-.06,0-.1.04-.12.14,0,.06.06.08.14.08.08-.04.1-.08.1-.12ZM78.35,28.04c0-.06-.12-.1-.35-.1-.57,0-.86.06-.86.16.16.06.27.08.37.08.57-.02.84-.06.84-.14ZM79.38,28.05c-.08-.04-.14-.06-.21-.06s-.12.02-.12.06c.04.02.1.04.16.04h.1l.08-.04ZM82.74,28.07c-.02-.12-.49-.18-1.43-.18-.41,0-.82.02-1.27.1,1.05.1,1.82.16,2.27.16.29-.02.43-.04.43-.08ZM83.39,28.23c0-.06-.06-.08-.14-.08,0,0-.04,0-.08.02-.04.04-.06.06-.06.1s.02.04.06.04c.14,0,.21-.02.21-.08Z"/>
      </g>
    </g>
  </g>
</svg>