<?xml version="1.0" encoding="UTF-8"?>
<svg id="_レイヤー_2" data-name="レイヤー 2" xmlns="http://www.w3.org/2000/svg" viewBox="0 0 200.31 35.57">
  <defs>
    <style>
      .cls-1 {
        fill: #231815;
        stroke-width: 0px;
      }

      .cls-2 {
        fill: none;
        stroke: #231815;
        stroke-miterlimit: 10;
      }
    </style>
  </defs>
  <g id="_テキスト" data-name="テキスト">
    <g>
      <g>
        <path class="cls-1" d="M14.22,8.58c0,.21-.15.39-.65.39h-3.86v5.4c1.42-.3,2.73-.62,3.8-.89.62-.15.98-.24,1.1-.24q.06,0,.06.03c0,.15-2.43,1.81-4.96,3.24.03,3.41.12,6.68.24,8.84v.09c0,.92-1.04,1.46-1.9,1.46-.74,0-1.42-.39-1.42-1.31v-.12c.12-2.58.18-5.25.24-7.87l-2.76,1.34c-.24.09-.33.62-.65.62-.74,0-2.64-3.5-2.64-3.77,0-.15.18-.12.62-.15.74-.03,1.57-.06,5.46-.74.03-1.04.03-2.08.03-3.06s0-1.96-.03-2.88h-2.05c-1.6,4.15-3.62,5.82-3.62,5.82t-.03-.06c0-.06.03-.21.09-.47.92-3.23,1.42-8.19,1.42-9.88,0-.3-.03-.53-.06-.71-.03-.18-.06-.3-.06-.39,0-.06.03-.09.12-.09.06,0,3.32.65,4.07,1.4-.15-3.21-.21-3.44-.33-3.98-.03-.06-.03-.12-.03-.18,0-.15.09-.21.24-.21.65,0,4.51,1.04,4.51,1.66,0,.27-.45.53-.83.74-.27.15-.39.39-.39.42-.15.5-.21,2.52-.24,5.19.21,0,.33-.12.42-.27.83-1.69,1.1-2.2,1.51-2.2.06,0,.12,0,.18.03,1.13.39,2.4,2.49,2.4,2.79ZM6.8,5.02c-.12.12-.33.27-.59.39-.09.06-.27.12-.33.36-.18.68-.42,1.54-.74,2.46h1.75l-.09-3.21ZM28.88,24.57c0,.21-.12.39-.62.39h-9.88c-1.66,0-4.24.03-6.74.3h-.03c-.5,0-1.28-1.13-1.28-1.48,2.43.3,5.34.39,7.21.42v-1.72c0-2.73.03-7.03.03-10.65-1.54,0-2.2.06-4.66.3h-.03c-.53,0-1.37-1.13-1.37-1.48,2.79.33,4.42.45,6.05.45,0-4.72,0-8.75-.39-10.45-.03-.12-.03-.18-.03-.24,0-.09.03-.12.12-.12.65,0,4.12.89,4.36.95.5.15.71.39.71.62,0,.3-.33.62-.89.86-.5.21-.59,1.04-.65,8.37h.95c.21,0,.42-.12.5-.27,1.28-2.02,1.57-2.4,1.99-2.4.06,0,.12,0,.18.03,1.19.42,2.91,2.52,2.91,3,0,.21-.15.39-.65.39h-5.88v2.79c0,4.12.03,8.13.09,9.62h2.02c.21,0,.39-.12.48-.27.65-1.01,1.78-2.79,2.31-2.79.06,0,.12,0,.18.03.83.3,3,2.61,3,3.38Z"/>
        <path class="cls-1" d="M49.88,2.37h7.75c.18,0,.33-.12.39-.27.62-1.31,1.42-2.11,1.57-2.11.24,0,2.43,1.57,2.43,2.76,0,.18-.09.36-.45.36h-11.87l-.12.09c-.3.24-.36.18-.36.71v.62c0,.36.06,3.38.06,3.71v1.13c0,6.44-.65,13.38-7.6,17.15-.42.21-.74.33-.92.33-.09,0-.15-.03-.15-.09,0-.09.18-.3.59-.62,1.9-1.48,3.15-3.47,3.95-5.67-.18.09-.36.15-.56.15-.47,0-.92-.3-1.16-.98-1.72,1.1-4.72,2.82-5.52,3.32-.27.18-.3.53-.56.53-.68,0-2.46-3-2.46-3.12,0-.06.03-.06.12-.06,1.28,0,2.97-.24,4.63-.59v-5.49h-.98c0,.59,0,1.1.03,1.48v.03c0,.89-.98,1.19-1.48,1.19-.62,0-1.19-.36-1.19-1.1v-.12c.18-2.49.18-6.56.18-7.89,0-.33-.06-1.87-.24-2.82,0-.03-.03-.09-.03-.12,0-.06.06-.09.12-.09.33,0,2.26.89,2.82,1.54h.74c0-1.25-.03-2.23-.03-2.73,0-1.39-.09-2.52-.24-3.23v-.09c0-.09.03-.12.09-.12.15,0,2.73.56,3.15.74.24.12.33.27.33.42s-.09.3-.24.45c-.48.45-.56-.03-.59,1.28,0,.59-.03,1.78-.03,3.29h.53c.24,0,.33-.09.36-.15.18-.27.3-.56.53-.86.12-.15.18-.24.3-.24.45,0,2.34,1.25,2.34,1.84,0,.18-.09.39-.42.65-.44.33-.47.3-.47.56v.77c0,1.45.06,4.63.15,6.11v.09c0,.74-.68,1.19-1.34,1.19-.53,0-1.01-.33-1.01-1.04v-1.04h-.98v4.9l1.22-.3c-.12-.65-.24-1.51-.59-2.05-.15-.18-.21-.3-.21-.36,0-.03.03-.06.09-.06.27,0,2.73.45,3.24,2.11.65-2.7.8-5.61.8-8.22,0-.65-.03-1.28-.03-1.9,0-1.81-.15-5.7-.56-7.42-.03-.09-.03-.15-.03-.18,0-.09.03-.12.12-.12.74,0,3.12,1.16,3.8,1.72ZM38.64,7.54c0,.45-.03,1.07-.03,1.75,0,1.31,0,2.88.03,4.21h1.1c0-2.25-.03-4.57-.03-6.41h-.83c-.06.09-.15.15-.21.21,0,0-.03.03-.03.24ZM41.96,7.09v6.41h1.1v-4.1c0-2.23,0-2.31-.48-2.31h-.62ZM52.7,9.2h4.84c.27,0,.33-.06.39-.12.18-.21.45-.59.68-.83.12-.12.18-.21.3-.21.24,0,2.52,1.04,2.52,1.57,0,.15-.12.3-.47.5-.53.33-.53.24-.53.65v.42c0,.95.09,2.34.18,3.83v.06c0,.42-.33.74-.77.89.5.12,2.52,1.22,2.52,1.75,0,.24-.21.45-.74.68-.09.06-.15.09-.15,1.1,0,.95.06,4.48.12,4.96v.12c0,1.48-2.11,2.34-3.06,2.34-.3,0-.53-.12-.71-.53-.62-1.34-2.11-1.99-2.11-2.08t.03-.03c.06,0,.15,0,.27.03.71.12,1.28.15,1.72.15.89,0,1.19-.21,1.19-.42v-1.9c-.18.18-.45.27-.68.27-.45,0-.89-.36-.98-1.16l-.09-.59c-.89.54-2.85,1.6-3.56,2.02-.21.12-.3.39-.47.39-.27,0-1.01-1.1-1.37-1.81v.03c0,1.72.03,3.59.03,4.33,0,.8-.86,1.25-1.6,1.25-.65,0-1.22-.3-1.22-1.01v-.15c.15-1.63.27-4.48.27-6.23v-.56c0-.8,0-2.08-.18-2.91,0-.06-.03-.09-.03-.12,0-.09.03-.12.09-.12s2.4.8,2.97,1.42h1.99v-2.14h-1.48c0,.15.03.27.03.39v.03c0,.68-.89.95-1.37.95-.56,0-1.07-.27-1.07-.86v-.09c.15-1.87.18-3.23.18-4.21,0-.62,0-2.11-.24-3.06,0-.03-.03-.06-.03-.09s.03-.06.09-.06c.39,0,1.87.71,2.52,1.16ZM55.29,4.51c0,.12-.09.27-.36.39s-.39.18-.39.86v.03h1.45v-.45c0-.21-.06-.77-.21-1.42,0-.03-.03-.06-.03-.09,0-.06.03-.06.09-.06.03,0,3.24.21,3.24.74,0,.12-.09.24-.39.39-.36.15-.36.27-.36.83v.06h.42c.06,0,.18-.09.24-.24.21-.42.53-1.16.92-1.51.09-.06.18-.09.24-.09s.09,0,.12.03c.27.12,2.05,1.45,2.05,2.17,0,.18-.12.36-.53.36h-3.44c0,.53.03,1.07.09,1.4v.06c0,.53-.8.77-1.42.77s-1.1-.21-1.1-.71v-.06c.03-.33.06-.92.06-1.45h-1.42c.03.59.09,1.22.09,1.48,0,.53-.71.83-1.39.83-.56,0-1.1-.21-1.1-.71v-.06c.03-.3.06-.89.06-1.48-.65.03-1.28.06-1.75.12h-.06c-.45,0-1.04-.86-1.04-1.34.77.18,1.81.3,2.85.36v-.39c0-.21-.06-.8-.21-1.4,0-.03-.03-.06-.03-.09,0-.06.03-.06.09-.06.18,0,3.24.21,3.24.74ZM54.07,20.63v-2.73h-2.05c-.03.06-.09.12-.15.15-.06.03-.06.3-.06.3-.06.53-.06,1.42-.06,2.34h.65c.5,0,1.01,0,1.28-.03.12,0,.24,0,.39-.03ZM53.92,9.79h-1.13c-.06.06-.12.12-.18.15-.03,0-.03.03-.03.18-.03.56-.03,1.13-.03,1.66v.03h1.48c0-.68-.06-1.39-.12-2.02ZM54.07,12.41h-1.51c0,.71,0,1.39.03,2.05h1.48v-2.05ZM56.5,9.79c.36.09.62.21.62.36,0,.12-.12.24-.33.33-.39.18-.3.15-.33,1.22v.12h1.63v-.3c0-1.66,0-1.72-.5-1.72h-1.1ZM58.11,12.41h-1.63v2.05h1.57l.06-2.05ZM58.05,15.2v-.15h-1.57v2.14h1.99c.21,0,.33-.3.36-.33.21-.36.53-.62.68-.74l.09-.09c-.12.03-.27.03-.42.03-.59,0-1.13-.27-1.13-.86ZM58.94,20.24v-.33c0-1.57-.03-2.02-.39-2.02h-2.08v2.4l.59-.12c-.09-.5-.24-.89-.39-1.19-.06-.12-.12-.18-.12-.21,0,0,.03-.03.06-.03.3,0,1.66.59,2.31,1.48Z"/>
        <path class="cls-1" d="M85.42,10.09c0,7.54-6.08,13.59-9.23,13.59-1.16,0-2.05-.71-2.14-2.67-.03-.95-.42-1.45-1.04-2.08-.95-.98-1.57-2.2-1.57-3.68,0-3.83,5.49-10.39,12.17-10.39,7.24,0,10.51,6.41,10.51,11.19,0,6.89-7.57,8.96-13.71,8.96-.77,0-1.25-.06-1.25-.18,0-.09.48-.21,1.57-.33,6.59-.59,10.06-3.29,10.06-9.11,0-8.04-4.36-9.47-6.77-9.59.77.5,1.39,1.48,1.39,4.27ZM74.29,15.17c0,1.4.89,4.66,2.52,4.66,2.17,0,7.42-6.44,7.42-11.31,0-1.16-.33-2.2-.95-2.34-.39-.09-.56-.18-.62-.3-4.81.71-8.37,5.64-8.37,9.29Z"/>
        <path class="cls-1" d="M129.76,22.76c0,3.53-3.23,4.21-4.27,4.21-.42,0-.8-.18-1.07-.71-.5-1.01-2.88-2.55-2.88-2.91,0-.03.06-.06.12-.06s.12.03.18.03c1.19.24,2.08.33,2.7.33,1.42,0,1.75-.47,1.75-1.22.06-3.68.12-8.58.12-12.7h-4.6v.15c0,.36-.15.62-.39.86.06,0,.12,0,.15.03.33.18,2.55,1.66,2.55,2.49,0,.18-.15.36-.56.36h-2.76c.62.12,1.51.27,1.51.65,0,.21-.36.42-.68.59-.53.33-.44.83-.47,1.63,0,.21-.03.45-.03.71h.03s.18-.09.27-.24c.45-.8,1.22-2.05,1.63-2.05.03,0,.09.03.12.03.71.33,2.49,2.02,2.49,2.61,0,.21-.12.39-.53.39h-4.01c0,2.17.12,5.25.15,6.17v.03c0,.8-.83,1.28-1.63,1.28-.65,0-1.28-.36-1.28-1.19v-.03c0-1.81.09-4.24.09-6.26h-2.05c-.36,3.26-1.4,6.59-7.27,7.75-.03.86-1.04,1.39-1.96,1.39-.77,0-1.48-.36-1.48-1.16v-.15c.39-4.33.45-10.68.45-15.4,0-2.73-.03-4.93-.03-5.82,0-.39-.15-3.21-.39-4.24v-.09c0-.09.03-.12.09-.12.39,0,2.97,1.01,3.83,1.6l.09.06h2.88c.27,0,.45-.33.47-.39.98-1.39,1.16-1.39,1.25-1.39.59,0,3.09,1.72,3.09,2.37,0,.27-.3.53-.98.83-.24.09-.33.42-.33,1.01,0,1.39.27,4.9.3,5.28v.15c0,1.01-.89,1.6-1.75,1.6-.77,0-1.54-.48-1.57-1.51h-3.92c-.03,4.87-.03,11.37-.03,15.46,3.15-1.28,4.1-3.83,4.48-6.94,0-.09.03-.15.03-.24-.77.03-1.57.09-2.29.18h-.03c-.42,0-1.16-.95-1.16-1.39,1.19.21,2.49.3,3.53.36,0-.3.03-.59.03-.98,0-.71-.06-1.63-.18-2.37-.36.03-.68.03-.98.09h-.03c-.44,0-1.22-.98-1.22-1.42,1.69.36,4.72.42,5.58.42h2.52s.18-.06.27-.21c.24-.44.77-1.16,1.25-1.63-.33.15-.68.21-1.04.21-.74,0-1.45-.36-1.45-1.16v-.18c.18-1.6.24-3.09.24-4.33,0-.92-.03-1.75-.03-2.4,0-.36,0-1.96-.24-2.97,0-.06-.03-.09-.03-.12,0-.06.06-.09.12-.09.39,0,2.49.89,3.65,1.63.06.03.12.12.15.15h3.5c.3,0,.48-.33.5-.39.3-.39.59-.92.77-1.07.15-.12.24-.21.42-.21.71,0,3.32,1.72,3.32,2.34,0,.3-.3.56-.98.86-.27.12-.3.42-.3,4.27,0,5.52.12,12.67.21,14.84v.33ZM109.19,6.11v2.85h3.89c0-.68.06-1.75.06-2.85h-3.95ZM113.14,2.97c0-.39-.21-.48-.48-.48h-2.97l-.3.18c-.15.06-.15.5-.15.8s-.03.98-.03,1.87h3.92v-2.37ZM118.45,17.21c0-.15,0-2.49-.21-3.59h-1.81l.47.15c.36.09.48.24.48.42,0,.21-.24.45-.53.65-.45.33-.33.68-.39,1.78,0,.21-.03.42-.03.59h2.02ZM122.04,2.49c-.3.3-.33.65-.33,2.85h4.69c0-.83-.03-1.57-.03-2.14,0-.59-.12-.71-.59-.71h-3.74ZM126.4,6.11h-4.69c0,.95.03,1.99.06,2.85h4.63v-2.85Z"/>
        <path class="cls-1" d="M145.39,24.13c-1.93,0-4.69-2.43-4.69-7.81,0-2.58.59-5.22,1.1-7.27.21-.83.3-1.57.3-2.23,0-1.07-.27-1.96-.86-2.61-.27-.3-.45-.56-.45-.68,0-.09.06-.15.15-.15.42,0,2.94,1.01,2.94,4.21,0,.5-.06,1.04-.15,1.63-.27,1.57-.53,3.5-.53,5.37,0,3.44.98,4.93,1.31,4.93.15,0,.33-.21.5-.8.83-2.76,1.57-5.25,1.87-5.25.06,0,.09.12.09.3,0,.21-.03.47-.09.74-.27,1.13-.68,3.92-.68,5.34v.15c.06,1.39.33,1.57.56,2.17.09.24.15.45.15.65,0,.8-.65,1.31-1.51,1.31ZM157.85,16.35c0,8.61-10.12,10.86-10.92,10.86-.12,0-.18,0-.18-.03,0-.09.33-.27,1.19-.59,6.29-2.32,7.3-7.69,7.3-14.51v-.89c-1.04.45-1.87.47-2.17.47-1.9,0-4.01-.98-4.01-3.38,0-.06,0-1.42.36-1.42.12,0,.27.12.5.39,1.34,1.48,2.14,1.99,3.09,1.99.71,0,1.66-.3,2.17-.5-.15-2.91-.44-3.86-1.84-4.18-.8-.18-1.25-.27-1.25-.59,0-.21.53-1.63,1.57-1.63.27,0,.56.09.92.3,1.78,1.07,3.03,1.34,3.03,3.03,0,.3-.03.65-.12,1.07-.06.3-.12.56-.15.83.15-.12.27-.21.36-.33.56-.68.42-1.16,1.01-1.4.36-.12.65-.18.92-.18.71,0,1.1.42,1.1,1.04,0,1.87-2.91,3.38-3.53,3.71.06,1.81.42,3.32.59,4.78.03.42.06.8.06,1.19Z"/>
        <path class="cls-1" d="M196.05,6.08c0,.21-.15.42-.65.42h-10.6c.24.06.68.24.68.47,0,.21-.3.42-.68.5-.21.06-.56.03-.68,1.01-.12,1.01-.27,1.96-.48,2.94h4.24c.36,0,.48-.12.59-.27.21-.24.74-1.07,1.04-1.28.09-.06.15-.09.24-.09.42,0,3.47,1.63,3.47,2.2,0,.33-.39.74-.68.89-.65.33-.68.33-.74,1.04-.18,2.55-.83,8.16-2.7,10.3-1.6,1.84-3.29,2.58-5.4,2.58h-.12c-.83,0-1.16-.45-1.37-.89-.71-1.48-3.53-2.97-3.53-3.18,0-.03.03-.03.06-.03.06,0,.18.03.36.06,1.84.47,3.12.65,4.07.65,1.51,0,2.17-.5,3-1.25,1.78-1.57,2.23-9.08,2.23-9.67,0-.18-.06-.3-.42-.3h-4.51c-1.69,7-5.88,12.88-13.8,14.66-.47.12-.77.15-.89.15-.09,0-.12,0-.12-.03,0-.09.36-.27.77-.48,9.73-4.48,11.19-16.53,11.19-18.9,0-.45-.06-.77-.09-1.07-2.52.03-6.65.09-8.64.3h-.03c-.53,0-1.37-1.19-1.37-1.57,2.49.3,7.98.45,10.71.47v-.95c-.06-1.48.09-2.61-.3-4.33-.03-.12-.03-.21-.03-.27,0-.12.03-.15.15-.15.3,0,2.79.39,4.33.89.5.15.71.39.71.65,0,.3-.33.65-.95.86-.3.09-.33.24-.33,3.29h5.13c.18,0,.39-.12.47-.27.33-.56,1.19-1.75,1.99-2.52.06-.06.21-.09.33-.09.83,0,3.32,2.49,3.32,3.24Z"/>
      </g>
      <line class="cls-2" y1="35.07" x2="30.23" y2="35.07"/>
      <line class="cls-2" x1="34.01" y1="35.07" x2="64.25" y2="35.07"/>
      <line class="cls-2" x1="68.03" y1="35.07" x2="98.26" y2="35.07"/>
      <line class="cls-2" x1="102.04" y1="35.07" x2="132.28" y2="35.07"/>
      <line class="cls-2" x1="136.06" y1="35.07" x2="166.29" y2="35.07"/>
      <line class="cls-2" x1="170.07" y1="35.07" x2="200.31" y2="35.07"/>
    </g>
  </g>
</svg>