<?xml version="1.0" encoding="UTF-8"?>
<svg id="_レイヤー_2" data-name="レイヤー 2" xmlns="http://www.w3.org/2000/svg" viewBox="0 0 237.11 21.3">
  <defs>
    <style>
      .cls-1 {
        fill: #40210f;
      }

      .cls-1, .cls-2 {
        stroke-width: 0px;
      }

      .cls-2 {
        fill: #fff;
      }
    </style>
  </defs>
  <g id="_テキスト" data-name="テキスト">
    <g>
      <rect class="cls-2" y="9.35" width="237.11" height="11.95"/>
      <g>
        <path class="cls-1" d="M19.16.48c2.14,0,3.93.54,5.36,1.64,1.71,1.32,2.56,3.15,2.56,5.5,0,2.21-.85,3.96-2.56,5.28-1.41,1.09-3.19,1.64-5.33,1.64s-3.92-.55-5.33-1.64c-1.72-1.32-2.58-3.11-2.58-5.39s.86-4.1,2.58-5.39c1.42-1.07,3.19-1.61,5.31-1.64ZM19.18,3.03c-1.39,0-2.52.45-3.4,1.33-.81.83-1.22,1.88-1.22,3.14s.41,2.29,1.22,3.13c.88.9,2.01,1.35,3.41,1.35s2.52-.45,3.4-1.35c.81-.83,1.22-1.85,1.22-3.07,0-1.32-.41-2.39-1.22-3.2-.88-.87-2.02-1.32-3.41-1.33Z"/>
        <path class="cls-1" d="M38.35,8.33v4.68c0,.25.06.44.17.57.11.13.31.24.6.33v.33h-4.76v-.33c.29-.08.49-.19.6-.32.11-.13.17-.33.17-.58v-4.68l-3.99-5.49c-.45-.62-.81-1.04-1.08-1.27s-.59-.38-.96-.46v-.34h6.07v.34c-.52.14-.78.38-.78.73,0,.18.19.53.57,1.06l1.96,2.71,1.91-2.71c.38-.54.57-.89.57-1.07,0-.34-.26-.58-.77-.72v-.34s5.76,0,5.76,0v.34c-.37.08-.69.23-.96.46-.27.23-.63.65-1.08,1.27l-3.99,5.49Z"/>
        <path class="cls-1" d="M60.22,1.99l-1.62,3.14-.29-.16c0-.26-.08-.47-.25-.62-.46-.41-1.13-.75-2.02-1.01-.89-.26-1.79-.4-2.71-.4-.78,0-1.47.11-2.07.32-.87.31-1.3.77-1.3,1.36,0,.39.21.67.63.84.42.16,1.22.29,2.42.39l1.9.14c1.66.13,2.92.45,3.79.96.48.29.88.67,1.19,1.16.39.6.59,1.28.59,2.03,0,1.37-.62,2.45-1.85,3.25-1.18.76-2.77,1.14-4.79,1.14s-3.99-.43-5.88-1.29c-.13-.06-.24-.08-.32-.08-.16,0-.31.1-.44.29l-.3-.12,1.38-3.3.3.12v.1c0,.21.08.38.24.53.4.35,1.09.66,2.08.92.99.26,1.96.39,2.92.39.85,0,1.61-.11,2.29-.34.83-.27,1.25-.71,1.25-1.32,0-.49-.29-.83-.87-1.02-.38-.13-1.08-.24-2.08-.33l-1.89-.16c-1.02-.08-1.8-.18-2.33-.31s-1.01-.32-1.41-.57c-.51-.32-.91-.76-1.2-1.31-.29-.55-.43-1.16-.43-1.82,0-1.48.63-2.6,1.9-3.38,1.15-.71,2.58-1.06,4.28-1.06.92,0,1.78.1,2.58.31s1.75.56,2.86,1.08c.33.15.56.23.69.23s.29-.09.49-.26l.29.16Z"/>
        <path class="cls-1" d="M72.5,3.21v9.79c0,.25.06.44.17.57s.31.24.6.33v.34h-4.76v-.34c.28-.07.48-.18.6-.31s.17-.33.17-.58V3.21h-3.97c-.26,0-.45.06-.58.17s-.24.31-.32.6h-.32V0h.32c.07.28.17.48.31.6s.33.17.58.17h11.17c.26,0,.45-.06.58-.17s.24-.31.32-.6h.33v3.98h-.33c-.08-.28-.19-.48-.32-.6s-.33-.17-.58-.17h-3.97Z"/>
        <path class="cls-1" d="M85.63,8.52v3.28h8.55c.25,0,.44-.06.57-.17s.24-.31.32-.6h.34v3.98h-.34c-.07-.28-.18-.48-.31-.59-.14-.12-.33-.17-.58-.17h-12.54v-.34c.28-.07.48-.18.6-.31s.17-.33.17-.58V2c0-.25-.06-.44-.17-.57-.11-.13-.31-.24-.6-.33v-.34h12.17c.26,0,.45-.06.58-.17s.24-.31.32-.6h.32v3.98h-.32c-.08-.29-.19-.49-.32-.6-.13-.11-.33-.17-.58-.17h-8.18v2.96h5.08c.25,0,.44-.06.57-.17s.24-.31.33-.6h.32v3.89h-.32c-.08-.28-.19-.48-.32-.6s-.33-.17-.58-.17h-5.08Z"/>
        <path class="cls-1" d="M103.72,8.71v4.3c0,.25.06.44.17.57s.31.24.6.33v.34h-4.76v-.34c.28-.07.48-.18.6-.31s.17-.33.17-.58V2c0-.25-.06-.44-.17-.57-.11-.13-.31-.24-.6-.33v-.34h8.83c1.15,0,2.02.06,2.62.17.6.12,1.14.33,1.61.63.97.63,1.46,1.67,1.46,3.1,0,1.09-.3,1.94-.9,2.56-.6.61-1.56,1.06-2.89,1.33l2.55,3.55c.46.66.84,1.1,1.11,1.34.28.24.59.39.94.45v.34h-5.67v-.34c.42-.11.63-.29.63-.54,0-.18-.13-.44-.39-.8l-2.69-3.85h-3.23ZM103.72,6.27h4.86c.74,0,1.28-.08,1.64-.24.5-.22.75-.65.75-1.29,0-.57-.17-.97-.52-1.19-.35-.22-.97-.34-1.86-.34h-4.86v3.05Z"/>
        <path class="cls-1" d="M131.72,8.71v4.3c0,.25.06.44.17.57.11.13.31.24.6.33v.34h-4.76v-.34c.28-.07.48-.18.6-.31s.17-.33.17-.58V2c0-.25-.06-.44-.17-.57-.11-.13-.31-.24-.6-.33v-.34h8.83c1.15,0,2.02.06,2.62.17s1.14.33,1.61.63c.97.63,1.46,1.67,1.46,3.1,0,1.09-.3,1.94-.9,2.56-.6.61-1.56,1.06-2.89,1.33l2.55,3.55c.46.66.84,1.1,1.11,1.34.28.24.59.39.94.45v.34h-5.67v-.34c.42-.11.63-.29.63-.54,0-.18-.13-.44-.39-.8l-2.69-3.85h-3.23ZM131.72,6.27h4.86c.74,0,1.28-.08,1.64-.24.5-.22.75-.65.75-1.29,0-.57-.17-.97-.52-1.19s-.97-.34-1.86-.34h-4.86v3.05Z"/>
        <path class="cls-1" d="M151.09,8.52v3.28h8.55c.25,0,.44-.06.57-.17.13-.11.24-.31.32-.6h.34v3.98h-.34c-.07-.28-.18-.48-.31-.59-.14-.12-.33-.17-.58-.17h-12.54v-.34c.28-.07.48-.18.6-.31s.17-.33.17-.58V2c0-.25-.06-.44-.17-.57s-.31-.24-.6-.33v-.34h12.17c.26,0,.45-.06.58-.17.13-.11.24-.31.32-.6h.33v3.98h-.33c-.08-.29-.19-.49-.32-.6-.13-.11-.33-.17-.58-.17h-8.18v2.96h5.08c.25,0,.44-.06.57-.17.13-.11.24-.31.33-.6h.33v3.89h-.33c-.08-.28-.19-.48-.32-.6-.13-.11-.33-.17-.58-.17h-5.08Z"/>
        <path class="cls-1" d="M178.25,9.41l2.03,2.97-.28.2c-.19-.14-.34-.2-.46-.2-.14,0-.45.15-.95.45-1.1.64-2.07,1.09-2.91,1.33-.84.25-1.81.37-2.91.37-2.2,0-3.99-.53-5.38-1.58-.79-.6-1.41-1.35-1.88-2.26-.5-.98-.75-2.04-.75-3.19,0-1.58.46-2.97,1.37-4.19,1.44-1.89,3.64-2.84,6.6-2.84,1.1,0,2.07.12,2.93.37.85.25,1.83.69,2.92,1.33.5.3.81.45.95.45.11,0,.26-.07.46-.21l.28.22-2.03,2.95-.26-.19c0-.1.02-.16.02-.18,0-.07.01-.12.01-.16,0-.39-.54-.83-1.62-1.33-1.03-.47-2.06-.71-3.1-.71-1.46,0-2.66.38-3.61,1.15-1.08.86-1.62,1.97-1.62,3.32s.54,2.47,1.62,3.33c.95.76,2.16,1.14,3.61,1.14,1.14,0,2.27-.29,3.4-.85.88-.45,1.32-.84,1.32-1.18,0-.02-.01-.13-.04-.34l.26-.2Z"/>
        <path class="cls-1" d="M188.3,2v11.01c0,.25.06.44.17.57.11.13.31.24.6.33v.34h-4.76v-.34c.28-.07.48-.18.6-.31s.17-.33.17-.58V2c0-.25-.06-.44-.17-.57s-.31-.24-.6-.33v-.34h4.76v.34c-.29.08-.49.19-.6.32-.11.13-.17.32-.17.57Z"/>
        <path class="cls-1" d="M197.62,8.71v4.3c0,.25.06.44.17.57.11.13.31.24.6.33v.34h-4.76v-.34c.28-.07.48-.18.6-.31s.17-.33.17-.58V2c0-.25-.06-.44-.17-.57s-.31-.24-.6-.33v-.34h8.78c1.74,0,3.05.26,3.93.78.51.3.91.74,1.2,1.3.29.56.43,1.19.43,1.89,0,1.34-.46,2.34-1.37,2.99-.91.65-2.31.98-4.2.98h-4.79ZM197.62,6.27h4.59c.84,0,1.43-.08,1.76-.24.48-.23.72-.66.72-1.29s-.24-1.05-.72-1.29c-.32-.16-.91-.24-1.76-.24h-4.59v3.05Z"/>
        <path class="cls-1" d="M215.67,8.52v3.28h8.55c.25,0,.44-.06.57-.17.13-.11.24-.31.32-.6h.34v3.98h-.34c-.07-.28-.18-.48-.31-.59-.14-.12-.33-.17-.58-.17h-12.54v-.34c.28-.07.48-.18.6-.31s.17-.33.17-.58V2c0-.25-.06-.44-.17-.57s-.31-.24-.6-.33v-.34h12.17c.26,0,.45-.06.58-.17.13-.11.24-.31.32-.6h.33v3.98h-.33c-.08-.29-.19-.49-.32-.6-.13-.11-.33-.17-.58-.17h-8.18v2.96h5.08c.25,0,.44-.06.57-.17.13-.11.24-.31.33-.6h.33v3.89h-.33c-.08-.28-.19-.48-.32-.6-.13-.11-.33-.17-.58-.17h-5.08Z"/>
      </g>
    </g>
  </g>
</svg>