<?xml version="1.0" encoding="UTF-8"?>
<svg id="_レイヤー_2" data-name="レイヤー 2" xmlns="http://www.w3.org/2000/svg" viewBox="0 0 379.33 35.48">
  <defs>
    <style>
      .cls-1 {
        fill: #40210f;
        stroke-width: 0px;
      }
    </style>
  </defs>
  <g id="_テキスト" data-name="テキスト">
    <g>
      <path class="cls-1" d="M10.8,7c0,.7.27,1.06,1.02,1.1.74-.04,1.53-.08,2.27-.08.94,0,.86.51.86,1.88s.08,1.92-.86,1.92c-.43,0-1.6-.08-2.23-.08-.74.04-1.06.31-1.06,1.06v4.3c.04.39.2.78.67.78.12,0,.2,0,.31-.04.43-.2,1.53-.7,1.92-.7.94,0,1.17,2.27,1.17,2.58,0,.86-.47.94-3.09,2-.78.31-.98.67-.98,1.49v5.4c0,1.84.12,3.68.12,5.52,0,1.17-.39,1.21-2,1.21s-2.07-.04-2.07-1.21c0-1.84.12-3.68.12-5.52v-4.03c-.04-.43-.2-.82-.7-.82-.12,0-.2,0-.31.04-.55.16-1.02.31-1.41.43-1.96.59-1.92.59-2.15,1.17-.12.24-.27.47-.55.47-.47,0-.7-.78-1.06-1.96-.12-.35-.2-.74-.35-1.17-.08-.24-.23-.7-.23-.98,0-.43.43-.59.94-.67.55-.08,4.15-1.02,4.85-1.25.78-.23.98-.63.98-1.41v-5.63c0-.74-.35-1.1-1.1-1.1h-.55c-.74,0-1.1.24-1.25,1.02-.63,3.36-.74,3.64-1.68,3.64-.51,0-2.39-.24-2.39-.9,0-.27.2-.94.27-1.25.86-3.01,1.33-6.14,1.56-9.23.04-.47,0-1.02.59-1.02.31,0,1.88.35,2.27.43.43.08,1.17.2,1.17.63,0,.23-.16.39-.35.51-.47.2-.43.35-.51.98,0,.2-.04.43-.08.7,0,.08-.04.12-.04.2,0,.51.39.67.82.71h.31c.67,0,.94-.27.94-.94v-2.54c0-1.17-.04-2.43-.16-3.48,0-.12-.04-.23-.04-.35,0-.43.35-.51.7-.51.55,0,2.9.23,3.56.31.27.04.67.12.67.47,0,.27-.16.35-.47.59-.39.31-.43,1.02-.43,2.35v3.01ZM20.19,15.84c-1.37,0-2.78.08-4.15.08-.9,0-.82-.47-.82-1.96s-.08-1.96.82-1.96c1.37,0,2.74.08,4.15.08h.78c.74,0,1.1-.31,1.1-1.1v-6.22c0-1.21-.04-2.54-.16-3.56,0-.12-.04-.27-.04-.35,0-.47.31-.59.7-.59.43,0,2.93.27,3.44.35.35.04.9.04.9.51,0,.27-.16.35-.47.59-.39.31-.43,1.1-.43,2.27v7c0,.78.31,1.1,1.1,1.1h1.33c1.37,0,2.74-.08,4.11-.08.9,0,.86.47.86,1.96s.04,1.96-.86,1.96c-1.37,0-2.74-.08-4.11-.08h-1.33c-.78,0-1.1.31-1.1,1.1v11.89c0,.74.31,1.09,1.1,1.09h2.86c1.45,0,2.93-.12,4.15-.12.9,0,.86.55.86,2s.04,2-.86,2c-1.37,0-2.74-.12-4.15-.12h-12.13c-1.37,0-2.74.12-4.11.12-.9,0-.86-.43-.86-2s-.04-2,.86-2c1.17,0,2.7.12,4.11.12h3.13c.74,0,1.1-.35,1.1-1.09v-11.89c0-.78-.35-1.1-1.1-1.1h-.78Z"/>
      <path class="cls-1" d="M53.48,31.14c-.43-.12-.51-.35-.59-.74-.08-.47-.31-.78-.82-.78-.12,0-.2,0-.31.04-2.35.67-4.73,1.21-7.12,1.8-.23.08-.31.23-.43.51-.08.16-.23.27-.43.27-.35,0-.47-.31-.67-.98-.12-.27-.23-.62-.39-1.06-.16-.43-.47-1.13-.47-1.6,0-.39.31-.43.98-.55.2-.04.47-.08.74-.12.98-.2,1.96-.35,2.93-.55.78-.23,1.02-.51,1.02-1.29v-3.95c0-.59-.23-1.1-.9-1.1h-.16c-.78.12-.7.43-.7,1.57,0,.74-.12.78-1.29.78-1.29,0-1.45,0-1.45-.82v-13.97c0-1.02.23-1.49,1.33-1.49.63,0,1.25.04,1.88.04.74,0,1.02-.39,1.02-1.1v-2.39c0-.9-.04-1.84-.12-2.58,0-.12-.04-.23-.04-.31,0-.39.23-.47.59-.47.39,0,2.23.2,2.7.23.27.04.86.04.86.43,0,.27-.27.39-.51.55-.35.27-.39.7-.39,1.92v2.62c0,.7.27,1.06.98,1.1.59,0,1.13-.04,1.72-.04,1.02,0,1.25.55,1.25,1.49,0,.63-.04,1.29-.04,1.92v7.28c0,.59.04,1.21.04,1.8,0,1.06-.27,1.49-1.33,1.49-.67,0-1.29-.04-1.92-.04-.78.04-1.06.31-1.06,1.1v3.76c0,.31.12.59.51.59h.16c.2-.04.35-.12.51-.16.2-.04.59-.16.59-.63,0-.08-.04-.16-.04-.24-.08-.27-.55-1.92-.55-2.07,0-.55,1.49-.82,1.92-.82.63,0,.86.51,1.45,3.87.04.08.08.2.2.2s.2-.08.23-.2c.78-3.79.98-7.63.98-11.54V6.42c0-1.06-.04-2.07-.04-3.13,0-1.37.67-1.64,1.88-1.64,1.1,0,2.19.08,3.29.08h10.41c1.49,0,2.97-.08,4.5-.08.86,0,.86.31.86,1.6s0,1.64-.86,1.64c-1.53,0-3.01-.08-4.5-.08h-11.15c-.78,0-1.1.31-1.1,1.1v9.23c0,4.66-.35,10.8-1.68,15.26-.39,1.25-1.1,3.13-1.76,4.26-.16.27-.31.43-.63.43-.43,0-2.7-.63-2.7-1.57,0-.23.7-1.72.86-2.03.04-.2-.08-.31-.23-.35ZM46.12,16.86c0,.47.31.74.78.74h.27c.43-.04.74-.27.74-.74v-5.44c0-.47-.31-.74-.74-.74h-.27c-.47,0-.78.27-.78.74v5.44ZM51.29,17.61c.43-.04.74-.27.74-.74v-5.44c0-.47-.31-.74-.74-.74h-.16c-.43,0-.74.27-.74.74v5.44c0,.47.27.74.74.74h.16ZM67.05,6.61c0,.27.31.35.51.35h1.72c.39,0,.7-.16.7-.63-.04-.2-.08-.67-.08-.78,0-.35.23-.43.55-.43.55,0,2.19.16,2.78.2.35.04.86.08.86.43,0,.2-.2.27-.43.43-.12.08-.16.16-.23.24-.04.08-.08.12-.08.2,0,.27.27.35.51.35.82,0,1.68-.04,2.5-.04s.82.35.82,1.33,0,1.29-.82,1.29-1.6-.04-2.39-.04c-.43,0-.63.2-.67.63,0,.94-.35.94-1.72.94s-1.64,0-1.64-.9c0-.51-.23-.67-.7-.67h-1.53c-.43.04-.7.16-.7.63-.04.94-.31.94-1.72.94-1.17,0-1.64,0-1.64-.78v-.16c0-.39-.2-.59-.63-.63-.74,0-1.53.04-2.27.04-.86,0-.82-.35-.82-1.29s-.04-1.33.82-1.33c.78,0,1.53.04,2.27.04.43-.04.67-.24.63-.7,0-.24-.04-.55-.04-.74,0-.35.27-.39.55-.39.59,0,2.15.16,2.82.2.23.04.82.04.82.39,0,.23-.2.31-.43.47-.08.08-.16.12-.23.2-.04.08-.08.16-.08.23ZM70.26,27.78v-.16c-.08-.16-.16-.39-.16-.59,0-.47.94-.7,1.25-.7.47,0,.55.51,1.29,2.89.12.35.43,1.6.43,1.96,0,.51-1.06.71-1.29.71-.39,0-.43-.24-.59-.94-.08-.27-.23-.47-.55-.47h-.16c-1.17.27-3.17.63-4.42.82-.27.08-.35.2-.51.47-.08.16-.2.31-.39.31-.35,0-.43-.39-.63-.94-.12-.35-.55-1.72-.55-2s.27-.31,1.1-.39c.16,0,.35,0,.55-.04l.31-.04c.78-.12,1.02-.43,1.02-1.21v-.74c0-.74-.31-1.06-1.1-1.06h-1.41c-.78,0-1.1.31-1.1,1.06v4.3c0,1.17.04,2.35.04,3.52,0,.94-.31.94-1.53.94-1.29,0-1.64,0-1.64-.94,0-1.17.08-2.35.08-3.52v-4.07c0-.86-.08-1.76-.08-2.62,0-1.21.7-1.37,1.76-1.37.94,0,1.88.04,2.82.04h1.41c.51,0,.74-.2.74-.74v-.12c0-.51-.23-.74-.74-.74h-.63c-.86,0-1.68.04-2.54.04-.94,0-1.72-.2-1.72-1.29,0-.47.08-.98.08-1.57v-4.34c0-.63-.08-1.09-.08-1.56,0-1.1.74-1.33,1.72-1.33.82,0,1.68.08,2.54.08h5.67c.82,0,1.68-.08,2.5-.08.98,0,1.76.2,1.76,1.33,0,.55-.08,1.06-.08,1.56v4.34c0,.51.08,1.02.08,1.57,0,1.09-.78,1.29-1.72,1.29-.86,0-1.68-.04-2.54-.04h-.9c-.55,0-.74.2-.74.74v.12c0,.55.2.74.7.74h1.84c.94,0,1.88-.08,2.82-.08,1.02,0,1.76.2,1.76,1.37,0,.86-.04,1.76-.04,2.62v3.17c0,.74.04,1.53.04,2.27,0,.94-.08,1.76-.86,2.31-1.02.74-2.82.82-4.07.82-.98,0-1.64,0-1.64-1.84,0-.63.12-.82.59-.82s.98.04,1.53.04c1.37,0,1.37-.47,1.37-1.53v-4.62c0-.74-.31-1.06-1.1-1.06h-2.19c-.78,0-1.1.31-1.1,1.06v1.02c0,.27.12.47.43.43.08,0,.12-.04.2-.04.2-.04.35-.12.35-.35ZM66.98,14.44c-.04-.43-.31-.71-.74-.74h-1.1c-.47,0-.74.27-.74.74v.35c0,.47.27.74.74.74h1.1c.43-.04.74-.27.74-.74v-.35ZM65.14,17.29c-.47,0-.74.27-.74.74v.39c.04.43.27.74.74.74h1.1c.43-.04.7-.31.74-.74v-.39c-.04-.43-.31-.7-.74-.74h-1.1ZM71.67,15.53c.47,0,.74-.27.74-.74v-.35c-.04-.43-.27-.74-.74-.74h-1.29c-.47,0-.74.27-.74.74v.35c0,.47.27.74.74.74h1.29ZM69.64,18.43c0,.43.27.74.74.74h1.29c.47,0,.7-.31.74-.74v-.39c-.04-.43-.27-.74-.74-.74h-1.29c-.47,0-.74.27-.74.74v.39Z"/>
      <path class="cls-1" d="M106.34,13.42c2.1,2.1,3.16,4.73,3.16,7.7,0,4.35-2.28,8.08-6.1,10.11-.72.38-2.66,1.25-3.41,1.25-.81,0-2.1-1.94-2.1-2.63,0-.31.47-.38.78-.44,4.1-.97,7.32-3.66,7.32-8.14,0-3.35-1.75-6.35-5.01-7.48-.28-.09-.91-.28-1.19-.28-.72,0-.72.69-.75,1.22-.34,4.57-1.44,10.14-4.44,13.74-1.03,1.25-2.41,2.41-4.13,2.41-1.91,0-3.41-1.38-4.26-2.97-.69-1.28-.97-2.97-.97-4.44,0-7.32,5.6-13.14,12.99-13.14,3.07,0,5.88.91,8.11,3.1ZM94.16,14.33c-3.57,1.69-5.63,5.04-5.63,9.01,0,1.16.41,4.07,2,4.07s3.32-3.57,4.19-6.76c.41-1.5,1-4.6,1-6.1,0-.31-.16-.56-.5-.56-.25,0-.81.22-1.06.34Z"/>
      <path class="cls-1" d="M126.05,24.65c-.47,0-5.12,3.76-5.79,4.34-.16.12-.39.31-.59.31-.78,0-2.35-2.93-2.35-3.72,0-.43.43-.55.9-.82,2.19-1.25,4.26-2.66,6.42-3.99,1.49-.9,1.64-.94,1.64-2.15v-1.33c0-.59.04-1.17.04-1.76v-.39c0-.51-.35-.9-.86-.9-.08,0-.16.04-.23.04-.74.16-3.4.63-3.99.63-.51,0-1.13-.04-1.13-2.89,0-1.06.08-1.21.82-1.25,1.21-.04,2.58-.12,3.79-.27.51-.04,1.1-.08,1.45-.47.31-.35.31-.74.31-1.17.04-1.1.08-2.19.08-3.29,0-.78-.08-1.68-.08-1.84,0-.31.12-.59.51-.59.59,0,3.21.55,3.99.7.23.04.78.16.78.51,0,.23-.23.47-.39.62-.59.47-.63.94-.74,2.15-.04.23-.08.55-.12.9,0,.16-.04.39-.04.55,0,.35.31.67.67.67.27,0,2.07-.55,2.46-.67.2-.08.47-.2.67-.2.9,0,1.02,2.54,1.02,3.21,0,1.02-.67,1.02-3.64,1.53-1.45.27-1.53.55-1.53,2.35v.55c0,.67.08,1.53.59,1.53.2,0,.74-.24.98-.35,2.07-.78,4.23-1.29,6.49-1.29,4.34,0,8.53,2.7,8.53,7.39,0,2.43-1.13,4.46-3.13,5.83-2,1.37-5.52,1.76-7.86,1.76h-.47c-.63,0-1.45-.04-1.64-.43-.35-.55-.63-2.15-.63-2.82,0-.51.12-1.02.7-1.02.47,0,1.76.35,3.21.35,2.27,0,5.59-.74,5.59-3.6,0-2.46-2.5-3.68-4.69-3.68s-5.05.78-6.89,1.88c-.43.27-.63.67-.63,1.21,0,.47.08,2.03.12,2.58.08.82.35,4.34.35,4.73,0,1.92-2.39,2.86-3.44,2.86-.86,0-1.13-.82-1.45-1.49-.63-1.41-1.25-2.03-2.39-3.05-.2-.2-.47-.43-.47-.74,0-.43.47-.78.86-.78.27,0,1.64.94,2,1.21.12.12.31.24.47.24.23,0,.27-.16.27-.31,0-.04-.08-1.64-.08-1.72,0-.2-.04-.39-.04-.55-.04-.7-.04-1.1-.43-1.1ZM145.81,10.99c1.06.82,3.01,2.46,3.01,2.9,0,.74-1.68,2.66-2.46,2.66-.31,0-.63-.27-.86-.47-1.64-1.56-3.36-3.01-5.2-4.38-.27-.2-.7-.51-.7-.94,0-.59,1.72-2.54,2.35-2.54.47,0,2.07,1.33,2.93,2.03.31.23.63.51.94.74Z"/>
      <path class="cls-1" d="M163.63,8.22c.31.08.86.16.86.55,0,.23-.16.31-.39.51-.55.43-.59,1.21-.7,1.88-.2,1.37-.31,2.74-.31,4.15,0,2.62.23,5.71,1.25,8.18.47,1.1,1.76,3.4,3.13,3.4,1.1,0,2.23-1.72,2.7-2.58.23-.39.55-.98,1.06-.98.82,0,2.82,1.6,2.82,2.31,0,.74-1.76,2.78-2.31,3.4-1.13,1.29-2.35,2.46-4.19,2.46-2.9,0-5.16-2.62-6.46-5.01-1.96-3.68-2.27-8.61-2.27-12.75,0-.62.12-5.59.2-5.95.04-.31.27-.43.55-.43.51,0,3.4.74,4.07.86ZM179.55,7.43c.86,0,4.15,2.46,6.03,6.06,1.1,2.07,2.31,5.79,2.31,8.14,0,.74-.39.94-1.06,1.13-.63.2-1.53.35-2.19.35-1.25,0-1.21-.55-1.29-1.49-.47-4.58-2.07-8.29-5.79-11.15-.23-.16-.35-.31-.35-.59,0-.74,1.56-2.46,2.35-2.46Z"/>
      <path class="cls-1" d="M206.04,4.15c.27.04.78.2.78.55,0,.27-.23.39-.47.59-1.37,1.02-1.72,13.42-1.72,15.65,0,3.05-.08,7.79,4.15,7.79,2.82,0,5.63-1.64,7.36-3.79,1.29-1.68,2.07-3.68,2.39-5.79.12-.63.2-1.29.78-1.29.86,0,3.25,2,3.25,3.17,0,1.1-1.06,3.56-1.6,4.58-2.35,4.38-6.81,7.47-11.89,7.47-2.58,0-5.28-.94-6.89-3.01-1.76-2.35-1.96-6.14-1.96-9,0-3.09.12-6.18.35-9.27.12-1.8.47-5.56.47-7.16v-.43c0-.59.04-.98.59-.98.67,0,3.64.7,4.42.94Z"/>
      <path class="cls-1" d="M238.59,8.22c.31.08.86.16.86.55,0,.23-.16.31-.39.51-.55.43-.59,1.21-.7,1.88-.2,1.37-.31,2.74-.31,4.15,0,2.62.24,5.71,1.25,8.18.47,1.1,1.76,3.4,3.13,3.4,1.1,0,2.23-1.72,2.7-2.58.23-.39.55-.98,1.06-.98.82,0,2.82,1.6,2.82,2.31,0,.74-1.76,2.78-2.31,3.4-1.13,1.29-2.35,2.46-4.19,2.46-2.9,0-5.17-2.62-6.46-5.01-1.96-3.68-2.27-8.61-2.27-12.75,0-.62.12-5.59.2-5.95.04-.31.27-.43.55-.43.51,0,3.4.74,4.07.86ZM254.51,7.43c.86,0,4.15,2.46,6.02,6.06,1.1,2.07,2.31,5.79,2.31,8.14,0,.74-.39.94-1.06,1.13-.63.2-1.53.35-2.19.35-1.25,0-1.21-.55-1.29-1.49-.47-4.58-2.07-8.29-5.79-11.15-.24-.16-.35-.31-.35-.59,0-.74,1.57-2.46,2.35-2.46Z"/>
      <path class="cls-1" d="M275.95,16c-1.1,0-2.27.08-3.13.08-.78,0-.74-.51-.74-1.72,0-1.29,0-1.68.78-1.68.98,0,2,.08,3.09.08h4.03c.9,0,1.8-.04,2.7-.04,1.88,0,2.35,2,2.35,2.27,0,2.5-10.25,11.5-12.01,11.5-.98,0-2.27-1.76-2.27-2.39,0-.35.39-.63,1.21-1.1.24-.16.47-.31.78-.51,1.76-1.06,4.34-3.21,5.71-4.73.23-.23,1.02-1.06,1.02-1.37,0-.35-.27-.39-.82-.39h-2.7ZM295.35,1.6c-.04.12-.04.16-.04.24.04.47.51.55.9.59h3.72c1.53,0,3.05-.08,4.58-.08.94,0,.9.39.9,1.6s0,1.56-.86,1.56c-1.56,0-3.09-.08-4.62-.08h-3.72c-.51,0-.82.2-.86.74-.08.9-.39.9-2.07.9s-2,0-2.03-.82c-.04-.59-.31-.82-.9-.82h-4.3c-.86,0-.9.47-.9.9-.08.7-.55.78-1.84.78-1.84,0-2.19,0-2.27-.82-.04-.63-.27-.86-.9-.86h-3.56c-1.53,0-3.09.08-4.62.08-.86,0-.86-.31-.86-1.6s0-1.57.9-1.57c1.53,0,3.05.08,4.58.08h3.6c.63,0,.9-.23.9-.86,0-.23-.12-1.1-.12-1.13,0-.39.35-.43.67-.43.59,0,2.74.16,3.4.23.31,0,.94.04.94.43,0,.2-.16.27-.43.47-.16.12-.23.16-.35.31l-.04.12c0,.12-.04.16-.04.27.08.47.55.55.94.59h4.34c.63,0,.9-.27.9-.9-.04-.23-.04-.47-.08-.7,0-.08-.04-.23-.04-.31,0-.43.35-.47.67-.47.67,0,2.66.16,3.4.23.31.04.94.04.94.43,0,.23-.16.27-.43.47-.2.12-.23.2-.35.35l-.04.08ZM278.57,29.93c-.63.08-.59.12-1.29,1.41-.39.7-1.6,2.74-2.03,3.33-.2.31-.47.63-.9.63-.78,0-2.78-.94-2.78-1.68,0-.23.12-.43.27-.59,1.06-1.33,2.03-2.93,2.78-4.46.2-.39.31-.78.63-.78.35,0,1.56.51,1.96.67,1.06.39,1.84.74,1.84,1.13,0,.27-.24.35-.47.35ZM281.82,27.74c-1.33,0-2.62.08-3.91.08-.86,0-.86-.47-.86-1.57,0-1.17,0-1.6.9-1.6,1.29,0,2.58.08,3.87.08h12.05c1.29,0,2.62-.08,3.91-.08.86,0,.86.51.86,1.6s0,1.57-.86,1.57c-1.29,0-2.58-.08-3.91-.08h-12.05ZM287.57,12.52c.35,0,.59-.08.9-.24.04-.04.12-.08.23-.16.63-.35,2.03-1.21,2.03-1.41,0-.27-.51-.24-.74-.24h-7.04c-1.25,0-2.5.08-3.79.08-.86,0-.82-.39-.82-1.53,0-1.21,0-1.57.86-1.57,1.25,0,2.5.08,3.76.08h9.9c1.09,0,2.19-.04,3.29-.04,1.33,0,2.07,1.6,2.07,1.88,0,1.06-6.14,4.3-7.24,4.85-.74.39-.94.7-.94,1.53v2.15c0,.9.08,1.76.08,2.66,0,3.29-3.29,3.48-5.79,3.48-.55,0-1.49,0-1.84-.47-.35-.51-.59-1.6-.59-2.23,0-.51.16-.86.7-.86.35,0,1.1.08,1.72.08,1.96,0,1.88-.67,1.88-2.5v-1.96c0-.9,0-1.88-.12-2.78-.04-.12-.04-.23-.04-.35,0-.43.31-.51.67-.51.2,0,.39,0,.59.04h.27ZM283.38,35.09c-.86,0-.94-.35-1.06-1.13-.16-1.37-.43-2.7-.74-4.07-.04-.16-.08-.39-.08-.59,0-.94,2.35-1.13,2.62-1.13.94,0,1.02.86,1.41,2.78.12.51.51,2.39.51,2.82,0,1.06-1.92,1.33-2.66,1.33ZM291.99,35.09c-.74,0-.82-.39-.98-1.02-.31-1.33-.7-2.66-1.17-3.95-.12-.24-.27-.67-.27-.9,0-.94,2.46-1.17,2.7-1.17.86,0,1.13.98,1.72,2.66.2.63.86,2.5.86,3.01,0,1.1-2.43,1.37-2.86,1.37ZM301.34,11.97c.43,0,2.82,3.05,2.82,3.52,0,.27-.2.43-.47.43-.12,0-.2-.04-.35-.08-.08-.04-.35-.12-.43-.12-.16,0-.35.16-.47.23-1.37.86-2.66,1.64-4.07,2.43-.23.16-.43.31-.43.63,0,.23.12.39.31.55,2.07,1.6,3.83,2.58,6.18,3.72.43.2.78.35.78.74,0,.82-1.29,2.62-2,2.62-.27,0-.67-.2-.9-.31-2.35-1.13-4.5-2.5-6.42-4.23-1.76-1.53-3.64-3.64-4.77-5.63-.12-.2-.24-.43-.24-.67,0-.7,1.49-1.76,2.11-1.76.39,0,.51.23.9.78.12.2.24.43.43.7.23.27.43.51.86.51.24,0,.43-.12.67-.2,1.25-.78,3.79-2.5,4.85-3.48.2-.16.39-.39.63-.39ZM301.57,35.37c-.47,0-.67-.47-.86-.82-.82-1.49-1.76-2.86-2.78-4.19-.16-.23-.43-.59-.43-.82,0-.74,2-1.6,2.62-1.6s1.29.94,2.31,2.46c.39.55,1.88,2.78,1.88,3.33,0,.82-2.19,1.64-2.74,1.64Z"/>
      <path class="cls-1" d="M322.63,4.15c.27.04.78.2.78.55,0,.27-.23.39-.47.59-1.37,1.02-1.72,13.42-1.72,15.65,0,3.05-.08,7.79,4.15,7.79,2.82,0,5.63-1.64,7.36-3.79,1.29-1.68,2.07-3.68,2.39-5.79.12-.63.2-1.29.78-1.29.86,0,3.25,2,3.25,3.17,0,1.1-1.06,3.56-1.6,4.58-2.35,4.38-6.81,7.47-11.89,7.47-2.58,0-5.28-.94-6.89-3.01-1.76-2.35-1.96-6.14-1.96-9,0-3.09.12-6.18.35-9.27.12-1.8.47-5.56.47-7.16v-.43c0-.59.04-.98.59-.98.67,0,3.64.7,4.42.94Z"/>
      <path class="cls-1" d="M358.98,6.1c.78,0,1.1-.35,1.1-1.09v-1.37c0-.82-.04-1.64-.16-2.43v-.39c0-.43.31-.55.7-.55.55,0,3.05.23,3.72.31.31.04.94.04.94.51,0,.31-.31.47-.59.63-.51.31-.55.51-.51,3.29,0,.74.31,1.09,1.1,1.09h8.53c1.56,0,3.09-.12,4.62-.12.98,0,.9.51.9,2s.08,2-.9,2c-1.53,0-3.05-.12-4.62-.12h-11.07c-.08.04-.08.08-.04.12.2.08.35.2.35.43,0,.35-.35.55-.67.74-.27.16-.31.43-.31.74,0,.78-.04,1.6-.08,2.42,0,.74.27,1.06,1.02,1.06h8.22c.9,0,1.8-.08,2.74-.08,1.88,0,2.07.98,2.07,2.31,0,4.03-1.02,11.35-2.78,14.91-1.33,2.7-3.64,2.82-6.3,2.82-2.23,0-3.56.23-3.56-2.78,0-.86.12-1.37.86-1.37.63,0,1.72.2,2.62.2,1.6,0,2.62-.31,3.29-1.88.9-2.11,1.64-6.89,1.64-9.19,0-1.17-.31-1.17-2.19-1.17h-7.2c-.74,0-1.1.24-1.29,1.02-1.37,5.05-4.26,9.08-8.33,12.36-.86.71-3.25,2.54-4.3,2.54s-2.43-1.68-2.43-2.7c0-.47.35-.67,1.29-1.17,3.48-1.92,6.57-4.85,8.37-8.41,1.68-3.4,2.31-7.36,2.31-11.11v-.78c-.08-.74-.39-.94-1.1-1.02h-6.3c-1.53,0-3.05.12-4.58.12-.98,0-.9-.47-.9-2s-.08-2,.9-2c1.53,0,3.05.12,4.58.12h8.33Z"/>
    </g>
  </g>
</svg>