<?xml version="1.0" encoding="UTF-8"?>
<svg id="_レイヤー_2" data-name="レイヤー 2" xmlns="http://www.w3.org/2000/svg" viewBox="0 0 401.57 67.88">
  <defs>
    <style>
      .cls-1 {
        fill: #231815;
        stroke-width: 0px;
      }

      .cls-2 {
        fill: #fff;
        stroke-width: 2px;
      }

      .cls-2, .cls-3 {
        stroke: #231815;
        stroke-miterlimit: 10;
      }

      .cls-3 {
        fill: none;
        stroke-width: .5px;
      }
    </style>
  </defs>
  <g id="_テキスト" data-name="テキスト">
    <g>
      <g>
        <path class="cls-2" d="M1,5.97h1.36c2,0,3.62-1.63,3.62-3.62v-1.35h389.62v1.35c0,1.99,1.62,3.62,3.62,3.62h1.36v55.94h-1.36c-2,0-3.62,1.63-3.62,3.62v1.35H5.98v-1.35c0-1.99-1.62-3.62-3.62-3.62h-1.36V5.97Z"/>
        <path class="cls-3" d="M5.49,9.83c1.96-.82,3.53-2.39,4.35-4.35h381.9c.82,1.96,2.39,3.52,4.35,4.35v48.22c-1.96.82-3.52,2.39-4.35,4.35H9.83c-.82-1.96-2.39-3.53-4.35-4.35V9.83Z"/>
      </g>
      <g>
        <path class="cls-1" d="M84.14,41.19c0,1.52-1.1,2.56-2.27,2.56-.87,0-1.81-.62-2.23-2.1-.74-2.56-2.75-4.95-5.18-5.86-.58-.23-.91-.39-.91-.49,0-.06.13-.1.42-.1.78,0,4.14.23,6.9,1.72,2.59-2.59,4.37-6.18,4.37-6.48,0-.16-.13-.26-.45-.26h-.81c-4.57,0-7.74.78-11.75,2.04-.32.1-.58.13-.81.13-.71,0-1.26-.39-2.43-1.33-.97-.78-1.26-1.36-1.26-1.85,0-.65.68-1.91.91-1.91.16,0,.29.23.45.49.42.62,1.07,1.62,2.59,1.62.13,0,.29,0,.45-.03,4.31-.52,7.16-.94,11.85-.94h1.39c.39,0,1-.68,1.3-.94.19-.13.32-.26.58-.26.78,0,4.18,1.88,4.18,2.78,0,.49-.58.84-1.2,1.1-.29.13-.62.32-.87.62-2.49,2.82-5.15,4.66-7.64,5.73,2.01,1.3,2.43,2.82,2.43,3.76Z"/>
        <path class="cls-1" d="M106.32,31.44c0-.65,0-1.94-1.55-1.94-.16,0-.29.03-.45.06-.13.03-.26.03-.39.03-.16,0-.29-.03-.29-.19,0-.42,1.26-2.01,2.27-2.01,1.07,0,4.24,1.72,4.24,2.62,0,.52-.68.87-.71,1.52-.32,12.6-13.11,14.12-13.28,14.12-.13,0-.19-.03-.19-.06,0-.06.19-.16.62-.29,8.09-2.33,9.75-9.75,9.75-13.86ZM114.54,43.36c-.62,0-3.24-2.17-3.24-2.78,0-.49.62-1.26.68-1.68.19-1.55.29-3.46.29-5.5,0-4.66-.06-5.86-1.85-5.86-.16,0-.29-.06-.29-.23,0-.42,1.23-1.78,2.07-1.78.94,0,4.11,2.3,4.11,3.17,0,.58-.84.87-.97,1.65-.23,1.68-.55,5.34-.55,7.67,0,.49,0,.91.36.91.71,0,8.61-3.46,11.01-11.24.13-.45.26-.68.32-.68.03,0,.06.1.06.29,0,3.4-4.47,12.47-10.75,15.28-.52.23-.81.78-1.26.78Z"/>
        <path class="cls-1" d="M152.97,39.73c.91.45,1.3,1.07,1.3,1.62s-.45,1-1.26,1h-.26c-1.26-.16-2.82-.36-3.85-.36-1.13,0-4.86.32-7.77,1.23-.29.1-.55.13-.81.13-.52,0-1-.23-1.94-.74-1.49-.91-1.91-1.26-1.91-1.88,0-.19.1-1.55.58-1.55.1,0,.19.03.32.13.55.36,2.07,1.17,3.53,1.17.1,0,.23-.03.36-.03,2.78-.32,4.99-.55,8.09-.87.13,0,.36-.03.58-.06.16-1.81.58-7.29.58-8.58,0-.32-.1-.62-.78-.62-2.85.06-5.5.62-9.03,1.75-.23.1-.52.19-.87.19-1.13,0-3.3-2.14-3.3-3.59,0-.58.36-1.42.81-1.42.16,0,.29.16.42.36.45.68,1.36,1.72,2.66,1.72.1,0,.23-.03.32-.03,2.23-.32,6.9-.94,9.07-1,.75-.03.97-.52,1.55-1.04.19-.19.39-.29.62-.29.65,0,4.53,1.85,4.53,3.04,0,.36-.29.65-.68.94-.32.23-.81.36-.91.94-.42,2.07-1.07,5.21-1.98,7.87h.03Z"/>
        <path class="cls-1" d="M177.08,47.8c-.49,0-.94-.23-1.29-.84-1.04-1.68-4.08-3.17-4.08-3.4,0-.03.03-.03.06-.03.06,0,.19,0,.32.03,1.72.36,2.95.52,3.79.52,1.75,0,2.01-.65,2.04-1.46.1-2.14.13-5.99.13-9.78v-3.46c-.1.26-.45.42-.65.55-.26.23-.58.26-.81,1.07-2.75,9.42-11.01,13.47-12.37,13.47-.06,0-.1,0-.1-.03,0-.1.23-.29.68-.62,5.57-3.98,8.16-13.37,8.16-14.44,0-.16-.1-.29-.29-.29h-.52s-2.82.13-4.57.36h-.03c-.42,0-1.42-1.3-1.42-1.75,2.1.32,4.63.52,5.76.52h.71c.16,0,.32-.19.45-.36.19-.23,1.33-1.3,1.52-1.3.29,0,3.24,1.81,3.46,2.49-.06-6.73-.1-8.29-.58-9.58-.06-.19-.1-.29-.1-.39s.06-.13.26-.13c.58,0,5.67.52,5.67,1.49,0,.16-.16.39-.55.62v.23c0,3.27.71,6.48,2.01,9.39,1.33-1.3,3.98-4.37,4.53-5.99.06-.16.06-.23.16-.23.45,0,4.05,2.65,4.05,3.72,0,.29-.26.49-.78.49-.1,0-.19-.03-.32-.03-.06,0-.13-.03-.19-.03-.1,0-.23.03-.36.1-2.27.94-4.5,2.1-6.73,2.72,2.2,4.47,5.8,8.29,10.43,10.94.23.13.29.23.29.29,0,.42-3.08.23-4.82,1.39-.29.19-.58.29-.87.29s-.58-.1-.84-.36c-4.86-4.86-6.9-12.56-6.9-20.46,0-.78.03-1.52.06-2.3-.42.23-.71.29-.74.68-.06,1.65-.1,4.21-.1,7.09,0,6.18.16,12.63.29,13.83.03.16.03.36.03.55,0,3.95-4.21,4.44-4.86,4.44Z"/>
        <path class="cls-1" d="M209.26,31.06c-.42.32-.52.39-.52.81,0,.19,0,.45.03.87.03.55.03,1.1.03,1.62,0,6.38-2.23,10.04-6.96,12.85-.29.16-.58.32-.71.32-.03,0-.03-.03-.03-.06,0-.06.1-.26.42-.65,2.69-3.11,3.69-7.61,3.69-11.98,0-2.43-.49-5.63-.74-6.61-.03-.16-.06-.26-.06-.32,0-.1.03-.13.1-.13.16,0,2.04.26,4.73,1.88h7.9c.65-1.42,1.13-3.01,1.49-4.24.19-.65.19-1.1.23-1.68,0-.36.07-.36.1-.36.58,0,5.08,1.81,5.08,2.72,0,.23-.23.42-.78.42-.1,0-.19-.03-.32-.03h-.19c-.32,0-.32.13-.62.36-.78.65-1.98,1.75-3.33,2.82h5.28c.23,0,.45-.13.55-.29.36-.58,1.55-2.33,2.07-2.85.06-.06.19-.1.32-.1.94,0,3.59,3.14,3.59,3.66,0,.19-.16.39-.71.39h-20.04c-.07.19-.32.36-.58.58ZM228.11,22.9c0,.19-.16.39-.71.39h-11.75c-1.78,0-6.77.06-9.62.36h-.03c-.58,0-1.49-1.23-1.49-1.65,2.72.32,7.48.49,10.04.52-.03-.91-.1-2.69-.39-4.08-.03-.1-.03-.19-.03-.26,0-.16.07-.19.23-.19.78,0,4.01.71,4.86.97.55.16.78.42.78.68,0,.36-.39.71-1.1.97-.26.1-.36.68-.45,1.91h3.17c.19,0,.39-.13.49-.29.32-.62,1.23-1.88,2.07-2.69.06-.06.23-.1.36-.1.87,0,3.59,2.88,3.59,3.46ZM230.76,45.95c0,.19-.13.36-.68.36h-15.35c-1.52,0-4.31.06-6.93.26h-.03c-.52,0-1.52-1.1-1.52-1.46,2.88.32,6.96.42,8.55.42h2.01l.03-4.01c-1.36.03-2.98.06-4.79.26h-.03c-.58,0-1.52-1.1-1.52-1.46,2.17.26,4.6.39,6.35.42v-3.56h-3.76c-2.01,2.46-4.6,4.21-4.99,4.21-.03,0-.06-.03-.06-.06,0-.1.1-.29.32-.62,1.62-2.33,2.69-6.86,2.82-8.29.03-.39,0-.52.16-.52.49,0,4.6,1.46,4.6,2.36,0,.29-.32.58-.97.71-.16.03-.29.03-.45.26-.29.42-.55.81-.84,1.17h3.17c-.03-1.75-.1-2.85-.39-4.66-.03-.19-.07-.32-.07-.39s.03-.06.13-.06c.42,0,5.25.65,5.25,1.59,0,.29-.36.62-1.04.87-.36.13-.39.87-.45,2.66h2.01c.42,0,.55-.1.65-.26.13-.19,1.49-2.4,2.23-2.4.65,0,3.3,2.27,3.3,3.01,0,.23-.16.42-.71.42h-7.48v3.56h1.1c.42,0,.58-.06.68-.23.84-1.36,1.42-2.3,1.97-2.3.87,0,3.21,1.94,3.21,2.88,0,.19-.16.42-.75.42h-6.22c0,1.78.03,3.56.03,4.01h4.18c.42,0,.52-.06.62-.23,1.72-2.62,1.75-2.66,2.17-2.66.87,0,3.5,2.53,3.5,3.3ZM215.67,27.17c0,1.13-1.04,2.04-2.07,2.04-.75,0-1.49-.42-1.91-1.49-.29-.71-.97-1.98-1.62-2.75-.23-.29-.36-.42-.36-.52,0-.06.1-.06.26-.06,2.3,0,5.7.29,5.7,2.78Z"/>
        <path class="cls-1" d="M254.18,29.44c0,8.22-6.64,14.83-10.07,14.83-1.26,0-2.23-.78-2.33-2.91-.03-1.04-.45-1.59-1.13-2.27-1.04-1.07-1.72-2.4-1.72-4.02,0-4.18,5.99-11.33,13.28-11.33,7.9,0,11.46,6.99,11.46,12.21,0,7.51-8.26,9.78-14.96,9.78-.84,0-1.36-.06-1.36-.19,0-.1.52-.23,1.72-.36,7.19-.65,10.98-3.59,10.98-9.94,0-8.77-4.76-10.33-7.38-10.46.84.55,1.52,1.62,1.52,4.66ZM242.04,34.97c0,1.52.97,5.08,2.75,5.08,2.36,0,8.09-7.03,8.09-12.34,0-1.26-.36-2.4-1.04-2.56-.42-.1-.62-.19-.68-.32-5.25.78-9.13,6.15-9.13,10.13Z"/>
        <path class="cls-1" d="M287.42,41.09c.71-.23,1.33-.32,1.84-.32,1.36,0,2.11.68,2.11,1.52,0,1.78-3.11,3.76-7.77,3.76-6.48,0-8.9-4.63-8.9-4.76,0-.06.03-.1.1-.1.19,0,.65.26,1.2.65,1.3.84,2.98,1.17,4.66,1.17,1.97,0,3.95-.45,5.12-.94.55-.19,1.1-.81,1.65-.97ZM287.32,29.08c-.26,0-.55-.03-.87-.13-.32-.1-.71-.16-1.1-.16-1.49,0-3.21.68-3.89,1-.26.1-.42.13-.52.13-.06,0-.1-.03-.1-.06,0-.1.16-.29.39-.45.06-.03,2.01-1.62,2.01-1.85,0-.1-.03-.16-.16-.23-.78-.42-1.75-.23-3.11-.32-2.69-.23-3.53-2.1-3.53-2.72,0-.1.03-.13.1-.13.13,0,.42.23.71.36.36.16.91.26,1.59.26.55,0,1.2-.06,1.88-.16.78-.1,1.52-.16,2.2-.16,3.92,0,6.09,1.85,6.09,3.24,0,.87-.74,1.39-1.68,1.39Z"/>
        <path class="cls-1" d="M308.77,39.18c0,2.59,3.11,3.63,5.7,3.63,1.68,0,3.21-.39,3.95-.94.55-.39,1.1-.55,1.62-.55,1.13,0,2.07.84,2.07,1.85,0,1.94-2.82,3.24-6.54,3.24-4.21,0-8.42-1.78-8.42-5.96,0-1.33.49-2.91,1.85-4.79-3.33-2.3-4.53-7.51-5.89-8.48-.55-.36-.78-.62-.78-.78,0-.1.13-.16.32-.16.23,0,.55.06.91.19,3.98,1.29,4.24,5.25,7.03,6.41-.39-1.04-.55-2.01-.55-2.88,0-3.08,2.2-5.15,5.8-5.5.94-.1,1.91-.13,3.01-.29,1.39-.16,2.82-.74,4.86-.74,2.56,0,3.08,1.1,3.08,1.72,0,.75-.75,1.49-2.33,1.65-1.62.16-2.53.45-3.66.97-1.55.71-5.05,2.72-7.84,5.31.1.1.23.19.36.26,1.33.42,2.14.81,2.14,1.75,0,1.39-1.75,1.68-2.98,1.68-.91,0-1.72-.16-2.49-.52-.78.97-1.2,2.01-1.2,2.95ZM318.74,25.65c.68-.58,1.07-.74,1.07-.78s0-.03-.03-.03c-.06,0-.36.06-.87.1-.94.06-2.01.16-3.01.19-3.5.1-4.92,2.01-4.92,4.02,0,1.07.39,2.17,1.07,3.04,2.04-2.36,4.34-4.57,6.7-6.54Z"/>
      </g>
    </g>
  </g>
</svg>