<?xml version="1.0" encoding="UTF-8"?>
<svg id="_レイヤー_2" data-name="レイヤー 2" xmlns="http://www.w3.org/2000/svg" viewBox="0 0 849.56 187.3">
  <defs>
    <style>
      .cls-1 {
        fill: #231815;
      }

      .cls-1, .cls-2 {
        stroke-width: 0px;
      }

      .cls-2 {
        fill: #88c0cf;
      }

      .cls-3 {
        fill: none;
        stroke: #231815;
        stroke-miterlimit: 10;
        stroke-width: 2px;
      }
    </style>
  </defs>
  <g id="_テキスト" data-name="テキスト">
    <g>
      <path class="cls-2" d="M849.56,164.06V23.24c-12.83,0-23.24-10.4-23.24-23.24H23.24c0,12.83-10.4,23.24-23.24,23.24v140.83c12.83,0,23.24,10.4,23.24,23.24h803.08c0-12.83,10.4-23.24,23.24-23.24Z"/>
      <path class="cls-3" d="M35.23,172.21c-3.88-9.02-11.12-16.26-20.14-20.14V35.23c9.02-3.88,16.26-11.12,20.14-20.14h779.09c3.88,9.02,11.12,16.26,20.14,20.14v116.83c-9.02,3.88-16.26,11.12-20.14,20.14H35.23Z"/>
      <g>
        <path class="cls-1" d="M141.46,125.05c-19.5,0-30.84-13.64-30.84-28.77,0-16.16,13.42-29.36,31.21-29.36,18.76,0,30.55,13.27,30.55,29.36s-11.12,28.77-30.92,28.77ZM160.37,98.21c0-12.68-4.97-28.77-19.28-28.77-12.53,0-18.39,12.38-18.39,24.84,0,9.34,3.41,28.25,19.35,28.25,12.75,0,18.31-10.97,18.31-24.32Z"/>
        <path class="cls-1" d="M236.06,122.38c0,.89-1.78,1.19-1.85,1.19-.59,0-1.26-.22-1.56-.67-2.45-3.63-10.16-11.86-17.5-19.65-5.86-6.23-16.61-17.2-22.09-23.35-.07-.15-.15-.15-.22-.15-.15,0-.15.22-.15.45,0,9.12.15,27.43.52,32.33.59,8.01,1.78,8.45,7.49,9.34.44.37.59.82.59,1.11,0,.67-.44,1.11-.67,1.11-.07,0-4.3-.52-9.34-.52-2.59,0-5.26.15-7.78.52h-.15c-.52,0-.67-.44-.67-1.04,0-.52.15-1.11.37-1.26,6.3-.74,6.52-1.11,6.52-17.72,0-7.86-.07-18.83-.07-26.4,0-.89-.74-6.6-6.52-7.34-.37-.22-.59-.67-.59-1.04,0-.59.44-1.19.89-1.19,0,0,4.08.3,8.38.3,1.85,0,3.78-.07,5.41-.22h.44c2.37,0,1.63,2.37,3.71,4.89.52.59,1.33,1.33,2.15,2.3,4.6,5.19,10.31,10.97,15.94,16.68,3.78,3.86,8.53,8.45,12.31,12.53.07.07.15.07.15.07.07,0,.07-.07.07-.37.07-2.45.07-5.49.07-8.53,0-6.08-.07-12.23-.07-14.24-.07-8.23-.74-10.38-7.71-11.2-.37-.3-.44-.74-.44-1.19,0-.59.15-1.04.44-1.04.07,0,4.6.45,9.71.45,2.52,0,5.26-.15,7.64-.45h.15c.44,0,.67.45.67,1.04,0,.45-.15.96-.44,1.19-6.08.74-6.67,3.19-6.67,6.75v4.45c-.07,1.56-.07,4.38-.07,7.71,0,10.23.3,26.25.96,33.07v.07Z"/>
        <path class="cls-1" d="M251.44,124.08c-.52,0-.67-.37-.67-.82,0-.52.3-1.26.67-1.48,6.75-.52,6.45-4.15,6.52-10.97.07-3.26.07-8.9.07-14.53s0-11.34-.07-14.61c-.15-8.38.74-10.68-6.38-11.34-.59-.44-.82-.89-.82-1.26,0-.59.37-.96.74-.96.07,0,6.67.37,13.42.37,3.63,0,7.27-.07,9.94-.45h.15c.44,0,.82.45.82.96,0,.45-.22.89-.82,1.33-6.9.74-6.23,3.19-6.38,11.42-.07,2.74-.07,8.75-.07,14.83s0,12.23.07,15.5c.15,7.27.96,9.19,5.78,9.19,1.41,0,4-.15,5.56-.3,10.38-1.04,14.61-10.08,16.24-12.01.15-.15.44-.22.74-.22.67,0,1.56.3,1.56.96,0,.3-2.08,6.23-5.12,12.31-.89,1.85-2.22,2.15-4.08,2.15-.07,0-13.64-.59-24.91-.59-5.26,0-10.08.15-12.75.52h-.22Z"/>
        <path class="cls-1" d="M308.41,124.08c-.44,0-.67-.3-.67-.74,0-.59.37-1.33.67-1.56,6.3-.67,5.63-3.41,5.78-9.49.15-3.56.15-10.38.15-16.98s0-13.05-.15-15.64v-1.63c0-6.15,0-7.04-6.08-7.56-.52-.37-.67-.82-.67-1.19,0-.67.44-1.19.74-1.19.07,0,5.93.37,12.38.37,3.48,0,7.12-.07,10.16-.45h.07c.37,0,.59.45.59,1.04s-.22,1.26-.74,1.48c-6.3.82-5.41,3.48-5.63,9.12-.15,3.26-.15,8.23-.15,13.42,0,7.12.07,14.75.15,19.13.15,6.45-.07,8.97,6.01,9.56.44.3.59.74.59,1.19,0,.59-.3,1.11-.67,1.11-.07,0-6.67-.59-13.27-.59-3.26,0-6.52.15-8.97.59h-.3Z"/>
        <path class="cls-1" d="M397.39,122.38c0,.89-1.78,1.19-1.85,1.19-.59,0-1.26-.22-1.56-.67-2.45-3.63-10.16-11.86-17.5-19.65-5.86-6.23-16.61-17.2-22.09-23.35-.07-.15-.15-.15-.22-.15-.15,0-.15.22-.15.45,0,9.12.15,27.43.52,32.33.59,8.01,1.78,8.45,7.49,9.34.44.37.59.82.59,1.11,0,.67-.44,1.11-.67,1.11-.07,0-4.3-.52-9.34-.52-2.59,0-5.26.15-7.78.52h-.15c-.52,0-.67-.44-.67-1.04,0-.52.15-1.11.37-1.26,6.3-.74,6.52-1.11,6.52-17.72,0-7.86-.07-18.83-.07-26.4,0-.89-.74-6.6-6.52-7.34-.37-.22-.59-.67-.59-1.04,0-.59.44-1.19.89-1.19,0,0,4.08.3,8.38.3,1.85,0,3.78-.07,5.41-.22h.44c2.37,0,1.63,2.37,3.71,4.89.52.59,1.33,1.33,2.15,2.3,4.6,5.19,10.31,10.97,15.94,16.68,3.78,3.86,8.53,8.45,12.31,12.53.07.07.15.07.15.07.07,0,.07-.07.07-.37.07-2.45.07-5.49.07-8.53,0-6.08-.07-12.23-.07-14.24-.07-8.23-.74-10.38-7.71-11.2-.37-.3-.44-.74-.44-1.19,0-.59.15-1.04.44-1.04.07,0,4.6.45,9.71.45,2.52,0,5.26-.15,7.64-.45h.15c.44,0,.67.45.67,1.04,0,.45-.15.96-.44,1.19-6.08.74-6.67,3.19-6.67,6.75v4.45c-.07,1.56-.07,4.38-.07,7.71,0,10.23.3,26.25.96,33.07v.07Z"/>
        <path class="cls-1" d="M460.62,110.44c-.96,3.11-4.45,10.01-5.26,12.16-.52,1.33-1.11,1.48-2.45,1.48,0,0-13.2-.3-25.06-.3-5.93,0-11.49.07-14.9.3h-.07c-.37,0-.59-.52-.59-1.11,0-.52.15-1.11.59-1.41,4.37-.37,4.97-1.41,5.56-3.71.52-2,.52-15.12.52-21.21,0-12.97-.07-18.83-.44-23.06-.22-2.89-2.97-3.11-5.86-3.11-.44-.3-.67-.89-.67-1.41s.22-1.04.67-1.04h.07c3.26.37,9.86.45,16.83.45,8.23,0,16.98-.15,21.13-.45.52,0,.89-.07,1.26-.07,1.04,0,1.33.22,1.33,1.04,0,.15-.07.37-.07.67-.07.52-.07,1.04-.07,1.56,0,3.04.59,6.75.74,9.42,0,.45-.74.89-1.33.89-.44,0-.82-.22-.96-.74-2.15-8.6-8.67-9.93-16.09-9.93-4.52,0-5.78.59-5.93,4.23,0,.52-.07,2.45-.07,16.76,0,.74.3,1.04.67,1.04,7.56,0,14.16,0,15.12-6.97.07-.52.44-.74.89-.74.74,0,1.63.52,1.56.82-.3,1.71-.37,4.08-.37,6.45,0,4.75.37,9.64.37,9.71v.07c0,.59-.82.96-1.56.96-.52,0-.96-.15-.96-.67-.52-7.12-7.64-7.12-13.35-7.12h-1.63c-.3,0-.82.07-.82.74,0,1.04-.07,2.89-.07,5.19,0,3.34.07,7.56.3,11.57.3,5.19-.37,7.93,6.08,8.45.74.07,1.56.07,2.3.07,11.42,0,14.98-4.52,20.39-12.01.15-.15.3-.22.52-.22.74,0,1.71.74,1.71,1.19v.07Z"/>
        <path class="cls-1" d="M536.4,108.22c0,10.75-9.56,16.83-19.72,16.83-4.45,0-9.19-.89-13.35-2.89-1.85-.89-1.78-.96-1.85-2.3-.15-2-.89-8.9-.89-9.86v-.07c0-.82.74-1.11,1.41-1.11.59,0,1.11.22,1.19.52,2.45,11.57,8.53,13.12,13.94,13.12,4.82,0,9.49-2.08,9.49-9.49,0-6.75-3.34-9.71-8.82-13.35l-2.67-1.78c-5.71-3.78-11.79-7.93-11.79-16.16,0-10.31,10.16-14.61,18.76-14.61,4.75,0,8.82.89,10.01.89,1.41,0,1.11,0,1.56,1.48.74,2.3,1.78,8.3,1.78,10.01,0,.37-.96.82-1.71.82-.37,0-.74-.15-.82-.52-2.22-7.12-6.52-10.08-11.71-10.08-2.89,0-8.67,1.04-8.67,8.53,0,5.78,4.67,7.71,7.93,9.86,1.41.89,2.74,1.63,3.86,2.3,5.63,3.41,12.09,9.04,12.09,17.72v.15Z"/>
        <path class="cls-1" d="M586.85,124.08c-.52,0-.96-.44-.96-1.04,0-.45.22-.89.82-1.33,5.49-.52,5.63-1.11,5.71-11.57v-12.97c0-1.04-.59-1.26-1.56-1.26-2.97-.07-7.56-.15-12.23-.15s-9.42.07-12.68.15c-1.48.07-1.48.52-1.71,1.26l.22,13.94c.15,8.38-.44,9.86,5.86,10.68.22.15.37.59.37,1.04,0,.59-.22,1.26-.59,1.26-.07,0-5.93-.67-12.38-.67-3.26,0-6.67.15-9.56.67h-.15c-.52,0-.82-.44-.82-1.04,0-.45.15-.96.67-1.33,5.12-.52,5.63-1.85,5.86-10.23.07-2.52.15-9.27.15-16.01s-.07-13.64-.15-16.24c-.15-6.15.07-8.45-5.86-8.82-.67-.52-.96-.96-.96-1.33,0-.59.52-.96.82-.96.07,0,5.78.45,12.23.45,3.41,0,7.04-.15,10.08-.52.3-.07.74.52.74,1.19,0,.45-.22.82-.67,1.19-5.63.45-5.56,2-5.71,9.64v11.34c0,1.33.3,1.48,1.48,1.48,3.48.07,8.53.15,13.49.15,4.15,0,8.3-.07,11.49-.15,1.33-.07,1.56-.22,1.56-1.48v-6.38c0-13.94,0-14.16-5.86-14.61-.59-.37-.74-.82-.74-1.26,0-.59.37-1.04.67-1.04.07,0,6.08.45,12.46.45,3.48,0,6.97-.15,9.79-.52h.07c.37,0,.67.59.67,1.19,0,.45-.15.89-.52,1.11-5.26.59-5.56-.15-5.93,10.08-.15,3.71-.15,8.16-.15,12.53,0,7.49.07,14.68.15,17.35.15,9.04.37,10.9,6.01,11.42.52.37.67.82.67,1.26,0,.59-.44,1.11-.82,1.11-.07,0-6.3-.74-12.83-.74-3.19,0-6.45.22-9.05.74h-.15Z"/>
        <path class="cls-1" d="M650.66,125.05c-19.5,0-30.84-13.64-30.84-28.77,0-16.16,13.42-29.36,31.21-29.36,18.76,0,30.55,13.27,30.55,29.36s-11.12,28.77-30.92,28.77ZM669.57,98.21c0-12.68-4.97-28.77-19.28-28.77-12.53,0-18.39,12.38-18.39,24.84,0,9.34,3.41,28.25,19.35,28.25,12.75,0,18.31-10.97,18.31-24.32Z"/>
        <path class="cls-1" d="M692.48,124.08c-.59,0-.82-.3-.82-.74,0-.52.3-1.19.74-1.48,5.78-.59,5.93-4.15,5.93-10.16v-.74c.07-2.82.07-11.57.07-19.2,0-5.64,0-10.68-.07-12.53-.22-7.04-1.26-8.16-6.15-8.67-.52-.37-.67-.74-.67-1.11,0-.59.44-1.11.74-1.11,2.52.15,4.75.22,6.9.22,4.37,0,8.3-.22,12.9-.45.67,0,1.33-.07,2-.07,10.31,0,20.69,3.49,20.69,15.13,0,14.98-15.05,15.94-22.69,15.94-.59,0-.89-.45-.89-.89,0-.59.37-1.19.89-1.19h.22c6.15,0,11.27-5.41,11.27-12.46,0-1.63-.37-14.09-11.2-14.09h-.3c-1.78,0-3.11.07-3.11,8.75-.07,4.52-.07,11.64-.07,18.24,0,5.41,0,10.53.15,13.49.3,6.75-.96,10.23,7.12,10.83.44.37.59.89.59,1.33,0,.52-.22.96-.67.96-.07,0-6.82-.59-13.79-.59-3.41,0-6.9.15-9.56.59h-.22Z"/>
      </g>
    </g>
  </g>
</svg>