<?xml version="1.0" encoding="UTF-8"?>
<svg id="_レイヤー_2" data-name="レイヤー 2" xmlns="http://www.w3.org/2000/svg" viewBox="0 0 94.9 30.43">
  <defs>
    <style>
      .cls-1 {
        fill: #231815;
        stroke-width: 0px;
      }
    </style>
  </defs>
  <g id="_テキスト" data-name="テキスト">
    <g>
      <g>
        <path class="cls-1" d="M16.98,2.19l-1.99,3.92-.34-.19c0-.08.01-.15.01-.2,0-.28-.24-.57-.71-.89-1.45-1.01-3.15-1.51-5.1-1.51-.86,0-1.62.11-2.28.32-.48.16-.87.41-1.16.73-.3.32-.45.68-.45,1.06,0,.62.38,1.05,1.13,1.28.39.11,1.23.24,2.51.37l1.91.2c1.14.12,2.06.29,2.76.5.7.21,1.33.51,1.87.89.55.4.99.92,1.31,1.57.32.65.48,1.34.48,2.08,0,1.17-.38,2.21-1.13,3.12-.68.83-1.74,1.44-3.18,1.84-1.07.3-2.22.45-3.45.45-2.2,0-4.38-.53-6.52-1.58-.46-.21-.73-.32-.82-.32-.11,0-.27.09-.5.27l-.35-.18,1.8-4.08.35.17v.16c0,.37.17.7.52,1.01.53.47,1.35.88,2.45,1.22,1.1.34,2.15.51,3.15.51,1.08,0,2-.18,2.77-.55.42-.2.76-.47,1.01-.81s.38-.69.38-1.05c0-.55-.3-.95-.89-1.18-.41-.16-1.25-.31-2.51-.45l-1.88-.19c-1.26-.13-2.15-.25-2.67-.37s-1.04-.31-1.56-.57c-.74-.37-1.32-.92-1.74-1.65-.38-.66-.57-1.42-.57-2.27,0-1.41.48-2.57,1.45-3.49,1.27-1.21,3.17-1.82,5.71-1.82,1.06,0,2.06.11,2.97.32.92.22,2.06.61,3.44,1.19.47.19.76.28.87.28.17,0,.37-.09.6-.28l.34.18Z"/>
        <path class="cls-1" d="M29.66,3.52v12.62c0,.25.06.44.17.57.11.13.32.24.61.32v.39h-5.19v-.39c.29-.08.5-.19.61-.32.11-.13.17-.32.17-.57V3.52h-5.17c-.24,0-.43.06-.56.17-.13.11-.24.32-.32.61h-.39V0h.39c.09.3.2.5.32.61.13.11.31.17.55.17h13.96c.25,0,.44-.06.57-.17.13-.11.24-.32.32-.61h.39v4.3h-.39c-.08-.3-.19-.5-.32-.61-.13-.11-.32-.17-.57-.17h-5.16Z"/>
        <path class="cls-1" d="M48.96,13.18h-7.56l-1.12,2.34c-.15.33-.23.58-.23.77,0,.36.27.61.81.74v.39h-5.5v-.39c.32-.06.57-.18.74-.34.17-.16.37-.48.58-.95l6.12-12.79c.2-.41.29-.73.29-.98,0-.37-.24-.64-.71-.8v-.39h5.9v.39c-.48.14-.72.38-.72.72,0,.24.08.5.23.8l6.34,12.83c.27.54.5.92.71,1.12.2.2.48.33.82.4v.39h-6.13v-.39c.54-.09.81-.34.81-.76,0-.17-.08-.42-.24-.76l-1.14-2.34ZM47.91,10.9l-2.7-5.93-2.74,5.93h5.44Z"/>
        <path class="cls-1" d="M62.78,10.63v5.52c0,.24.06.43.18.57s.32.24.6.31v.39h-5.19v-.39c.29-.08.5-.19.61-.32.11-.13.17-.32.17-.56V2.06c0-.25-.06-.44-.17-.57-.11-.13-.32-.24-.61-.32v-.39h10.41c1.27,0,2.27.07,3.02.22s1.39.4,1.94.77c.64.42,1.12,1,1.44,1.72.3.7.45,1.45.45,2.24,0,2.71-1.51,4.3-4.52,4.77l3.23,4.6c.57.8.99,1.32,1.25,1.55s.59.36.97.38v.39h-6.01v-.39c.41-.06.62-.21.62-.44,0-.15-.19-.5-.57-1.06l-3.37-4.9h-4.44ZM62.78,7.89h5.61c.83,0,1.41-.02,1.76-.07.34-.05.65-.15.94-.3.62-.33.93-.93.93-1.8s-.31-1.47-.93-1.8c-.29-.16-.6-.27-.93-.31-.33-.04-.92-.07-1.76-.07h-5.61v4.36Z"/>
        <path class="cls-1" d="M88.46,3.52v12.62c0,.25.06.44.17.57.11.13.32.24.61.32v.39h-5.19v-.39c.29-.08.5-.19.61-.32.11-.13.17-.32.17-.57V3.52h-5.17c-.24,0-.43.06-.56.17-.13.11-.24.32-.32.61h-.39V0h.39c.09.3.2.5.32.61.13.11.31.17.55.17h13.96c.25,0,.44-.06.57-.17.13-.11.24-.32.32-.61h.39v4.3h-.39c-.08-.3-.19-.5-.32-.61-.13-.11-.32-.17-.57-.17h-5.16Z"/>
      </g>
      <text/>
    </g>
  </g>
</svg>