<svg data-name="レイヤー 2" xmlns="http://www.w3.org/2000/svg" viewBox="0 0 72.77 115.58"><g data-name="テキスト"><path fill="none" stroke="#231815" stroke-miterlimit="10" d="M34.81 0v82l5.15-9.91"/><path d="M6.04 112.67c0 1.81-1.61 2.84-3.32 2.84-.75 0-1.55-.15-2.25-.49-.31-.15-.3-.16-.31-.39-.03-.34-.15-1.5-.15-1.66 0-.15.12-.2.24-.2.1 0 .19.04.2.09.41 1.95 1.44 2.21 2.35 2.21.81 0 1.6-.35 1.6-1.6 0-1.14-.56-1.64-1.49-2.25l-.45-.3c-.96-.64-1.99-1.34-1.99-2.72 0-1.74 1.71-2.46 3.16-2.46.8 0 1.49.15 1.69.15.24 0 .19 0 .26.25.12.39.3 1.4.3 1.69 0 .06-.16.14-.29.14-.06 0-.12-.03-.14-.09-.38-1.2-1.1-1.7-1.97-1.7-.49 0-1.46.17-1.46 1.44 0 .97.79 1.3 1.34 1.66.24.15.46.27.65.39.95.57 2.04 1.52 2.04 2.99v.02zm13.45-6.79c.38 0 .45 0 .46.3.01.35.29 1.76.29 2.24 0 .15-.15.26-.29.26-.09 0-.18-.05-.21-.18-.55-1.7-2.1-2.37-3.46-2.37-1.69 0-3.41 1.32-3.41 4.39s1.76 4.55 3.81 4.55c1.87 0 2.92-1.57 3.27-2.47.02-.07.11-.11.2-.11.14 0 .3.09.3.2 0 .02-.01.04-.01.05-.1.29-.26 1.01-.38 1.55-.05.21-.12.37-.45.56-.72.44-2.04.74-3.07.74-2.96 0-5.72-1.66-5.72-5.06 0-2.66 2.37-4.89 5.51-4.89 1.21 0 1.92.25 3.07.25h.09zm5.48 9.46c-.09 0-.12-.05-.12-.12 0-.09.05-.2.12-.25 1-.11.96-.24.99-1.84.01-.49.01-1.91.01-3.19 0-.92 0-1.76-.01-2.07-.04-1.36-.06-1.36-1.04-1.55a.191.191 0 01-.1-.18c0-.11.08-.2.11-.2.41.03.8.04 1.16.04.74 0 1.4-.04 2.19-.08.14 0 .27-.01.41-.01 1.7 0 3.46.46 3.46 2.35 0 1.42-1.14 1.77-2.12 2.09-.02.01-.04.01-.04.04 0 0 0 .01.01.03.66.65 1.35 2.39 2.15 3.26.54.6.95 1.2 1.95 1.36.12.03.19.1.19.17 0 .1 0 .25-1.17.25-1.02 0-1.99-.29-2.7-1.17-.81-1.01-1.6-3.06-2.14-3.51-.09-.07-.2-.07-.3-.07-.04 0-.12.01-.17.01-.05.01-.08.01-.08.1 0 .56.01 1.85.02 2.31.05 1.56.05 1.76 1.19 1.86.08.08.11.15.11.21 0 .1-.07.17-.12.17-.01 0-1.15-.09-2.34-.09-.55 0-1.12.01-1.59.07h-.04zm2.76-5.27q0 .25.06.25c1.24-.05 2.47-.42 2.47-1.82 0-1.04-.59-2.2-1.95-2.2-.32 0-.56.07-.57.69 0 .26-.01.56-.01.69v2.4zm15.13 5.43c-3.29 0-5.2-2.3-5.2-4.85 0-2.72 2.26-4.95 5.26-4.95 3.16 0 5.15 2.24 5.15 4.95s-1.88 4.85-5.21 4.85zm3.19-4.52c0-2.14-.84-4.85-3.25-4.85-2.11 0-3.1 2.09-3.1 4.19 0 1.57.57 4.76 3.26 4.76 2.15 0 3.09-1.85 3.09-4.1zm6.56 4.36c-.09 0-.11-.06-.11-.14 0-.09.05-.21.11-.25 1.14-.09 1.09-.7 1.1-1.85.01-.55.01-1.5.01-2.45s0-1.91-.01-2.46c-.03-1.41.12-1.8-1.08-1.91-.1-.08-.14-.15-.14-.21 0-.1.06-.16.12-.16.01 0 1.12.06 2.26.06.61 0 1.22-.01 1.67-.07h.03c.08 0 .14.07.14.16 0 .07-.04.15-.14.22-1.16.12-1.05.54-1.08 1.92-.01.46-.01 1.47-.01 2.5s0 2.06.01 2.61c.03 1.22.16 1.55.98 1.55.24 0 .67-.02.94-.05 1.75-.17 2.46-1.7 2.74-2.02.02-.03.08-.04.12-.04.11 0 .26.05.26.16 0 .05-.35 1.05-.86 2.07-.15.31-.38.36-.69.36-.01 0-2.3-.1-4.2-.1-.89 0-1.7.03-2.15.09h-.04zm12.23 0c-.09 0-.11-.06-.11-.14 0-.09.05-.21.11-.25 1.14-.09 1.09-.7 1.1-1.85.01-.55.01-1.5.01-2.45s0-1.91-.01-2.46c-.03-1.41.12-1.8-1.08-1.91-.1-.08-.14-.15-.14-.21 0-.1.06-.16.12-.16.01 0 1.12.06 2.26.06.61 0 1.22-.01 1.67-.07h.03c.08 0 .14.07.14.16 0 .07-.04.15-.14.22-1.16.12-1.05.54-1.08 1.92-.01.46-.01 1.47-.01 2.5s0 2.06.01 2.61c.03 1.22.16 1.55.98 1.55.24 0 .67-.02.94-.05 1.75-.17 2.46-1.7 2.74-2.02.02-.03.08-.04.12-.04.11 0 .26.05.26.16 0 .05-.35 1.05-.86 2.07-.15.31-.38.36-.69.36-.01 0-2.3-.1-4.2-.1-.89 0-1.7.03-2.15.09h-.04z" stroke-width="0"/></g></svg>