<svg data-name="レイヤー 2" xmlns="http://www.w3.org/2000/svg" viewBox="0 0 413.54 134.46"><g data-name="テキスト"><path d="M124.44 7.42h-15.98V4.44h18.27c.41 0 .99-.38 1.33-.61l2.22 2.6c-.56.38-1.04.76-1.53 1.2-2.78 2.55-5.76 5.61-8.26 8.38.89 1.04 1.71 2.09 2.47 3.26l-2.62 2.06c-1.76-3.21-4.18-6.12-7.06-8.41l2.06-2.04c1.07.84 2.14 1.86 3.11 2.8 1.81-1.94 4.15-4.38 5.99-6.27zm11.77 12.35l-2.83-2.06c1.99-1.15 3.47-2.4 4.43-4.54.79-1.71 1.02-3.59 1.02-5.45 0-1.58-.1-3.19-.28-4.77l3.08.2c.36.03.74.05.74.31 0 .18-.1.25-.28.38-.2.15-.25.25-.25.41V6.9c0 2.4 0 4-.69 6.29-.87 2.88-2.6 4.74-4.94 6.57zm11.31-16.76c.41.05.71.1.71.33 0 .15-.1.25-.31.41-.2.15-.28.28-.28.33v11.08c2.4-1.3 5.25-4.26 6.73-6.52l1.73 2.57c-2.29 3.06-6.04 6.73-9.38 8.59l-2.17-1.68V2.65l2.96.36zm28.84 16.46v-.89h-13.33v-2.8h13.33V6.91h-13.28V4.08h16.31v15.39h-3.03zm18.8-1.25c1.45-.18 2.91-.38 4.33-.59l-.13 2.42c-2.47.48-4.94.94-7.42 1.4-.89.18-1.63.18-2.57.46-.25.08-.36.23-.48.38-.18.23-.31.36-.48.36-.15 0-.31-.08-.33-.28l-.48-3.13c1.48-.18 2.98-.38 4.46-.59V13.4h-3.98v-2.75h10.35v2.75h-3.26v4.82zm6.17-10.52c.54 3.19 1.48 6.55 3.31 9.28.38.56 1.25 1.66 1.99 1.66.56 0 1.1-1.91 1.22-2.37l2.06 1.94c-.33 1.3-1.32 4.03-2.96 4.03-2.04 0-3.8-2.24-4.79-3.8-1.3-2.06-2.22-4.43-2.8-6.78-.33-1.3-.51-2.62-.69-3.95h-11.06V4.96h10.8c-.1-1.45-.23-2.91-.23-4.38l2.29.28c.69.08 1.15.18 1.15.51 0 .08-.05.18-.28.31-.28.15-.31.25-.31.48.03.79.08 1.81.1 2.8h8.08v2.75h-7.9zm2.95-7.32c1.3.66 2.52 1.43 3.67 2.32l-1.66 2.19c-1.02-.99-2.22-1.81-3.44-2.57l1.43-1.94zm19.31 11.11c.84-.31 1.68-.59 2.52-.94v3.16c-.84.31-1.68.61-2.52.89v7.57h-2.9v-6.55c-1.2.46-1.99.71-2.32.82-.51.15-.64.2-.84.48-.2.25-.36.38-.54.38-.2 0-.28-.15-.31-.74l-.18-3.06c1.4-.33 2.8-.66 4.18-1.07V7.51h-1.45c-.31 1.02-.38 1.38-.87 2.37l-2.8-.66c1.25-2.47 1.48-4.36 1.66-7.06l2.32.13c.48.03.82.08.82.36 0 .15-.1.28-.23.38-.13.1-.2.15-.23.33-.05.54-.13 1.07-.18 1.4h.97V.64l2.57.13c.28.03.94.1.94.41 0 .2-.15.36-.31.48-.25.2-.31.31-.31.43v2.68h2.14v2.75h-2.14v3.98zM233.23.76c.25.03.74.05.74.31 0 .23-.23.43-.41.56-.31.2-.38.28-.38.46v5.43h4.64v2.88h-4.64v8.13h5.07v2.88h-13.4v-2.88h5.38V10.4h-4.18V7.52h4.18V.56l3.01.2zm22.97 2.35v1.45h1.61V3.29l2.27.13c.43.03.51.1.51.23s-.1.25-.43.36c-.08.03-.08.05-.08.08v.48h1.68V3.3l2.24.13c.38.03.51.05.51.23 0 .13-.15.23-.31.28-.15.05-.2.08-.2.1v.54h2.24v1.61H264v1.1h1.66v6.37h-3.52v.82h4.33v5.56c0 1.86-.56 2.5-2.45 2.5h-.61l-1.07-2.24c.28.05.66.15.94.15.33 0 .61-.13.61-.51v-.31l-.59.1-.05-.38c-.69.15-2.19.48-2.85.59-.94.15-1.07.18-1.22.48-.1.2-.18.23-.33.23s-.23-.15-.36-.51l-.64-1.78c.74-.08 1.48-.15 2.19-.25v-1.55h-2.32v5.81h-2.6v-5.38c-.74 2.22-1.5 3.52-3.18 5.17l-2.32-1.48c.79-.69 1.35-1.27 1.99-2.09a91.57 91.57 0 01-5.1 1.68c-.54.15-.59.2-.84.61-.13.2-.2.25-.36.25-.23 0-.33-.2-.46-.56l-.82-2.5c1.17-.23 2.47-.51 3.49-.71v-4.03h-.64v1.43h-2.27V4.13h2.9V.41l2.37.13c.25.03.56.05.56.28 0 .13-.15.25-.25.33-.18.13-.28.25-.28.33v2.65h2.93v9.17h-2.93v3.44c.38-.08.76-.18 1.15-.28-.23-.61-.48-1.17-.76-1.71l2.04-.66c.25.41.46.79.66 1.22.56-2.52.64-4.48.64-7.08 0-2.45-.1-4.89-.23-7.36h13.05v2.24h-10.27zm-8.63 3.36h-.66v4.38h.66V6.47zm3.05 0h-.71v4.38h.71V6.47zm9.43 7.98v-.82h-3.34V7.26h1.1v-1.1h-1.58c0 2.96-.03 5.35-.46 8.28h4.28zm.05-5.58h-1.15v.94h1.15v-.94zm0 2.21h-1.15v.94h1.15v-.94zm1.66-3.82v-1.1h-1.68v1.1h1.68zm1.58 1.61h-1.22v.94h1.22v-.94zm0 2.21h-1.22v.94h1.22v-.94zm-1.2 6.73c.23-.05.46-.1.69-.13-.05-.18-.1-.33-.15-.48l1.22-.25v-.43h-1.76v1.3zm23.59-15.77c.48-.69.76-1.25 1.1-2.01l2.19.41c.61.1 1.02.23 1.02.41 0 .13-.08.23-.28.33-.15.08-.25.18-.33.28-.15.25-.23.36-.41.59h5.43v1.94h-8.84v.87h6.8v1.53h-6.8v.87h9.45V9.2h-5.45c1.66 1.53 3.59 2.17 5.79 2.52l-1.83 2.4c-1.12-.41-2.04-.87-3.06-1.43v4.51c.36-.33.87-.84 1.17-1.2l1.94 1.15c.18.1.43.31.43.48s-.18.2-.31.2h-.18c-.18 0-.25.03-.38.13-.43.38-1.61 1.33-2.14 1.73 1.43.2 2.88.23 4.31.23l-1.48 2.57c-3.82-.25-6.42-1.1-9.45-3.52l-.08 1.63c-1.61.41-7.34 1.66-8.84 1.89-.33.05-.51.08-.71.41-.05.08-.13.15-.23.15-.25 0-.31-.31-.36-.61l-.51-2.62c1.15 0 2.8-.15 4.1-.28v-6.35c-1.12.61-1.96.99-3.13 1.45l-1.78-2.4c2.34-.46 4.61-1.38 6.32-3.06h-6.14V7.24h9.45v-.87h-6.8V4.84h6.8v-.87h-8.84V2.03h5.02c-.33-.46-.69-.92-1.07-1.35l2.75-.69c.56.64 1.07 1.33 1.53 2.04h3.85zm2.83 9.4c-.94-.69-1.76-1.35-2.5-2.27h-3.31c-.76.94-1.38 1.5-2.32 2.27h2.34V9.78l2.62.13h.1c.23 0 .54.03.54.28 0 .08-.13.2-.2.28-.08.08-.23.23-.23.33v.64h2.96zm-.79 1.61h-7.34v.89h7.34v-.89zm0 2.24h-7.34v.87h7.34v-.87zm-7.34 3.92c1.25-.15 2.4-.33 3.59-.59-.28-.25-.56-.54-.82-.84h-2.78v1.43zm6.24-1.42c.61.51 1.12.87 1.86 1.2.46-.38.89-.79 1.33-1.2h-3.19zM318.93.38c.2 0 .66.03.66.33 0 .1-.18.25-.25.31-.15.1-.33.23-.33.36v1.04h4.69V5.1h-4.69v1.48h3.59v11.98h-8.92V6.57h2.47V5.09h-5.43v-.97h-3.92c-.1.97-.25 1.94-.43 2.88h3.44v.64c0 2.42-.56 5.58-1.38 7.85-1.12 3.06-2.67 5.27-4.97 7.54l-2.52-1.76c2.4-1.81 3.62-3.47 4.84-6.19-.59-.53-1.07-.87-1.73-1.3-.25.43-.51.87-.79 1.27l-2.57-1.5c2.22-2.75 3.06-5.96 3.42-9.43h-2.62V1.35h9.48v1.07h5.2V.33l2.78.05zm-13.13 8.9c-.23.76-.48 1.55-.76 2.32.64.23 1.04.43 1.61.84.25-1.15.38-2.01.48-3.16h-1.33zm6.7-2.65c.38.03.64.08.64.31 0 .15-.15.25-.28.36-.1.08-.25.18-.25.33v11.82h10.96v2.45h-10.96v.66h-2.6V6.47l2.5.15zm7.52 2.26h-3.75v1.12h3.75V8.89zm0 3.04h-3.75V13h3.75v-1.07zm0 3.1h-3.75v1.2h3.75v-1.2zM85.65 92.49c7.7.05 14.1-.99 18.11-2.91 3.44-1.67 5.26-4.42 5.26-6.92 0-2.86-2.34-5.41-7.18-5.88-.94-.1-2.03-.16-3.12-.16-3.02 0-6.35.31-9.11.68-3.7.47-6.92.94-8.54 1.2l-.73-5.36 8.74-.99c2.86-.31 6.09-.57 9.16-.57 1.41 0 2.81.1 4.11.21 8.38.73 12.65 5.67 12.65 10.93 0 4.48-3.07 9.16-9.21 11.76-4.84 2.03-11.76 3.17-18.22 3.28l-1.93-5.26zm51.74 2.24c.94.1 1.82.16 2.71.16 9.06 0 14.1-6.04 14.1-12.54 0-.83-.1-1.61-.26-2.45-.73-3.8-3.44-6.45-6.61-7.81-2.29 5.83-8.38 18.11-13.27 25.03-5.67-2.55-8.74-6.87-9.21-12.18-.68-8.54 5.36-18.37 17.12-18.37.73 0 1.46.05 2.19.1 7.86.78 13.64 5.62 14.99 12.28.21 1.09.31 2.19.31 3.28 0 9.11-7.55 17.75-19.26 17.18l-2.81-4.68zm-7.59-10.31c.21 2.6 1.3 4.22 2.92 5.36 3.64-5.15 7.29-12.8 9.58-18.79-8.95-.21-12.96 7.7-12.49 13.43zm37.74 1.87c10.04-1.71 13.98-8.11 13.91-13.91l7.44.82c0 7.59-5.95 17.55-15.99 19.26l-5.35-6.17zm35.7-19.33v9.89c0 3.12.07 5.21.07 8.33 0 8.7-5.8 13.39-15.47 13.02l-3.72-7.44c1.19.15 2.23.22 3.2.22 5.58 0 8.11-2.38 8.18-7.73V66.96h-20.68v-7.07h20.68l.07-11.01h7.66v11.01h21.87v7.07h-21.87zm16.07 24.39c-1.49-5.65-7.59-11.6-12.35-13.83l3.87-5.13c5.95 2.01 14.43 8.4 16.51 15.1l-8.03 3.87zm-6.7-40.68c0-4.09 3.42-7.44 7.59-7.44s7.51 3.35 7.51 7.44-3.35 7.59-7.51 7.59-7.59-3.35-7.59-7.59zm7.59-3.27c-1.86 0-3.35 1.49-3.35 3.27s1.49 3.27 3.35 3.27 3.27-1.41 3.27-3.27-1.49-3.27-3.27-3.27zm43.95 53.25l.3-25.51c-6.84 6.1-15.47 10.78-24.99 12.27l-5.21-6.17c18.37-2.83 33.32-16.14 38-32.57l8.11 2.08c-1.56 5.43-4.39 11.08-8.33 16.21v33.69h-7.88zm44.62-31.02c-2.45-3.35-9.82-7.73-14.58-8.85l3.79-5.88c6.17.45 14.06 4.39 16.58 8.48l-5.8 6.25zm-12.65 18.22c1.56.15 3.05.22 4.54.22 19.41 0 35.62-13.91 38.08-32.13l7.29 4.39c-2.83 17.55-20.97 36.44-45.81 35.77l-4.09-8.26zm66.11 14.66v-56.6h7.88v18.37c7.29-.3 17.63 2.97 21.79 7.21l-5.8 6.62c-4.54-4.39-11.08-6.69-15.99-6.92v31.31h-7.88zM38.46 38.81c3.62-4.1 7.52-6.15 11.7-6.15 5.61 0 10.44 2.81 14.48 8.43 4.04 5.62 6.06 13.76 6.06 24.44 0 11.2-2.52 20.44-7.55 27.73-5.04 7.29-11.73 10.94-20.09 10.94-5.53 0-10.28-1.5-14.24-4.51-3.96-3.01-7.16-7.83-9.58-14.46-2.43-6.63-3.64-15.24-3.64-25.84 0-12.82 1.81-23.16 5.43-31.01 3.62-7.85 8.83-13.49 15.61-16.94 6.79-3.45 14.02-5.17 21.7-5.17 2.07 0 3.49.14 4.27.42.78.28 1.16.82 1.16 1.61 0 2.99-.14 4.77-.42 5.34-.28.58-1.25.87-2.93.87-3.7 0-7.51.87-11.43 2.6s-6.66 4.18-8.21 7.34c-1.55 3.16-2.33 7.95-2.33 14.36zm9.14 8.6c0-1.32-.36-2.42-1.07-3.32-.72-.9-1.69-1.35-2.93-1.35-3.07 0-4.6 2.29-4.6 6.87v42.68c0 1.2.42 2.19 1.25 2.99s1.83 1.2 2.99 1.2c1.39 0 2.47-.6 3.22-1.79.76-1.2 1.13-3.69 1.13-7.47V47.41z" fill="#231815" stroke-width="0"/><path d="M413.54 130.96c-11.49 0-11.49-3.48-22.97-3.48-11.49 0-11.49 3.48-22.97 3.48-11.49 0-11.49-3.48-22.97-3.48-11.49 0-11.49 3.48-22.98 3.48s-11.49-3.48-22.97-3.48c-11.49 0-11.49 3.48-22.97 3.48-11.49 0-11.49-3.48-22.97-3.48-11.49 0-11.49 3.48-22.97 3.48-11.49 0-11.49-3.48-22.97-3.48-11.49 0-11.49 3.48-22.98 3.48s-11.49-3.48-22.98-3.48-11.49 3.48-22.98 3.48-11.49-3.48-22.97-3.48c-11.49 0-11.49 3.48-22.98 3.48s-11.49-3.48-22.98-3.48-11.49 3.48-22.98 3.48-11.49-3.48-22.98-3.48-11.49 3.48-22.98 3.48" fill="none" stroke="#fff" stroke-miterlimit="10" stroke-width="7"/></g></svg>